M48
; DRILL file {KiCad (6.0.5)} date Thu Jun 30 10:31:51 2022
; FORMAT={-:-/ absolute / metric / decimal}
; #@! TF.CreationDate,2022-06-30T10:31:51+03:00
; #@! TF.GenerationSoftware,Kicad,Pcbnew,(6.0.5)
; #@! TF.FileFunction,Plated,1,2,PTH
FMAT,2
METRIC
; #@! TA.AperFunction,Plated,PTH,ViaDrill
T1C0.400
; #@! TA.AperFunction,Plated,PTH,ComponentDrill
T2C0.762
; #@! TA.AperFunction,Plated,PTH,ComponentDrill
T3C0.800
; #@! TA.AperFunction,Plated,PTH,ComponentDrill
T4C0.950
; #@! TA.AperFunction,Plated,PTH,ComponentDrill
T5C1.000
; #@! TA.AperFunction,Plated,PTH,ComponentDrill
T6C1.020
; #@! TA.AperFunction,Plated,PTH,ComponentDrill
T7C1.140
; #@! TA.AperFunction,Plated,PTH,ComponentDrill
T8C1.200
; #@! TA.AperFunction,Plated,PTH,ComponentDrill
T9C1.298
; #@! TA.AperFunction,Plated,PTH,ComponentDrill
T10C1.300
; #@! TA.AperFunction,Plated,PTH,ComponentDrill
T11C1.320
; #@! TA.AperFunction,Plated,PTH,ComponentDrill
T12C1.524
; #@! TA.AperFunction,Plated,PTH,ComponentDrill
T13C1.600
; #@! TA.AperFunction,Plated,PTH,ComponentDrill
T14C2.300
; #@! TA.AperFunction,Plated,PTH,ComponentDrill
T15C2.390
; #@! TA.AperFunction,Plated,PTH,ComponentDrill
T16C2.400
; #@! TA.AperFunction,Plated,PTH,ComponentDrill
T17C3.550
%
G90
G05
T1
X52.172Y-78.969
X52.553Y-64.973
X53.569Y-86.385
X53.848Y-77.521
X56.083Y-62.306
X56.236Y-76.2
X56.693Y-82.652
X57.302Y-74.828
X57.455Y-77.47
X58.776Y-142.494
X58.826Y-146.787
X59.004Y-51.257
X59.004Y-52.807
X59.03Y-54.356
X59.106Y-73.533
X59.106Y-75.616
X59.766Y-67.945
X59.766Y-143.281
X59.766Y-144.501
X59.766Y-145.872
X59.969Y-58.877
X61.443Y-80.493
X61.519Y-81.763
X61.57Y-79.324
X61.595Y-87.046
X61.62Y-85.827
X61.646Y-83.795
X61.887Y-82.692
X62.103Y-58.445
X62.205Y-60.884
X62.255Y-59.741
X62.281Y-62.154
X62.281Y-73.558
X62.281Y-75.641
X62.967Y-62.941
X64.516Y-64.795
X64.516Y-81.382
X64.528Y-84.908
X64.528Y-79.502
X64.567Y-62.992
X64.872Y-67.894
X65.1Y-76.454
X65.659Y-54.458
X65.684Y-56.845
X65.71Y-51.867
X65.735Y-58.547
X65.765Y-66.12
X65.989Y-84.48
X66.015Y-81.737
X66.04Y-53.188
X66.04Y-79.604
X66.294Y-73.304
X66.472Y-59.563
X66.751Y-55.245
X66.827Y-56.515
X67.005Y-57.937
X67.031Y-54.28
X67.285Y-53.035
X67.31Y-52.019
X67.31Y-62.916
X67.31Y-87.935
X68.097Y-59.715
X68.885Y-83.312
X68.91Y-52.629
X69.113Y-68.986
X69.113Y-77.038
X69.164Y-71.882
X69.215Y-59.207
X69.444Y-142.977
X69.952Y-82.144
X70.456Y-83.883
X70.51Y-51.968
X70.587Y-59.69
X70.751Y-81.026
X71.196Y-144.348
X71.323Y-69.012
X71.425Y-66.726
X71.45Y-71.907
X71.476Y-77.038
X71.984Y-59.538
X72.085Y-52.654
X72.247Y-64.018
X72.771Y-67.488
X72.847Y-65.608
X72.988Y-63.348
X73.381Y-59.207
X73.711Y-52.045
X73.939Y-53.95
X73.965Y-55.804
X74.041Y-57.887
X74.6Y-59.665
X74.828Y-53.111
X75.159Y-56.871
X75.209Y-55.143
X75.209Y-58.471
X75.237Y-63.449
X75.311Y-52.095
X75.844Y-79.578
X75.971Y-64.174
X76.276Y-137.49
X76.327Y-135.966
X76.372Y-69.215
X76.372Y-71.222
X76.86Y-65.684
X77.191Y-82.779
X77.241Y-134.772
X77.267Y-138.532
X77.724Y-62.89
X77.876Y-78.537
X78.271Y-69.139
X78.435Y-70.739
X78.486Y-72.695
X78.511Y-51.079
X78.537Y-60.731
X78.588Y-53.899
X78.588Y-61.773
X79.019Y-91.846
X79.07Y-84.607
X79.223Y-74.574
X79.451Y-52.502
X79.514Y-95.301
X79.781Y-79.019
X79.934Y-137.566
X80.188Y-81.94
X80.924Y-135.966
X82.321Y-66.142
X82.347Y-63.19
X83.02Y-95.199
X83.972Y-87.249
X84.125Y-92.151
X84.76Y-78.689
X84.76Y-80.747
X84.861Y-83.21
X84.861Y-85.928
X84.938Y-88.544
X85.268Y-70.891
X86.09Y-143.018
X86.45Y-87.224
X86.512Y-84.582
X86.563Y-79.553
X86.563Y-80.874
X87.122Y-142.24
X88.087Y-77.114
X88.392Y-101.244
X88.468Y-82.321
X88.646Y-148.336
X88.773Y-147.193
X89.23Y-86.919
X89.281Y-79.934
X89.408Y-149.098
X89.459Y-72.708
X89.484Y-70.612
X90.526Y-75.413
X90.551Y-148.717
X90.932Y-82.22
X91.034Y-126.136
X91.059Y-86.944
X91.461Y-90.403
X91.567Y-149.352
X91.592Y-68.428
X92.253Y-132.588
X92.583Y-91.542
X92.71Y-148.717
X92.761Y-136.195
X92.812Y-85.623
X93.019Y-69.778
X93.091Y-130.404
X93.451Y-88.388
X93.578Y-67.035
X93.726Y-149.225
X94.539Y-81.305
X94.742Y-148.717
X94.906Y-68.326
X94.988Y-65.565
X95.072Y-88.773
X95.174Y-85.725
X95.174Y-130.327
X95.504Y-149.225
X95.961Y-91.669
X96.393Y-147.32
X96.495Y-88.443
X96.774Y-149.225
X96.952Y-74.524
X96.965Y-68.301
X97.206Y-87.401
X97.257Y-92.659
X97.257Y-95.301
X97.257Y-140.843
X97.485Y-116.383
X98.349Y-96.596
X98.781Y-86.462
X98.857Y-92.634
X99.593Y-118.389
X99.619Y-107.798
X99.766Y-72.293
X100.406Y-91.872
X100.432Y-90.068
X101.477Y-70.684
X102.108Y-74.066
X102.413Y-87.782
X103.581Y-79.908
X104.431Y-106.731
X105.816Y-81.534
X105.918Y-77.267
X106.248Y-65.227
X107.061Y-89.179
X107.112Y-90.932
X107.239Y-105.664
X107.29Y-83.083
X107.391Y-72.644
X107.391Y-75.311
X107.391Y-107.975
X107.768Y-79.024
X108.026Y-101.244
X108.585Y-89.078
X108.661Y-91.237
X108.89Y-70.155
X108.89Y-77.978
X109.118Y-94.539
X109.474Y-104.064
X109.703Y-101.295
X109.855Y-116.891
X110.236Y-84.252
X110.515Y-118.618
X110.947Y-81.229
X111.023Y-77.064
X111.074Y-115.799
X112.42Y-96.825
X112.878Y-64.999
X112.954Y-98.4
X113.513Y-104.013
X113.69Y-117.297
X114.046Y-114.986
X114.198Y-81.763
X114.706Y-92.812
X114.904Y-123.11
X115.113Y-89.027
X115.697Y-130.378
X116.078Y-74.041
X116.158Y-91.436
X116.225Y-97.485
X116.51Y-88.976
X116.561Y-71.78
X116.776Y-104.013
X117.373Y-93.053
X117.729Y-123.241
X117.78Y-91.491
X118.123Y-98.247
X118.313Y-104.013
X119.075Y-93.243
X119.278Y-91.605
X119.38Y-118.974
X119.609Y-124.587
X120.802Y-93.218
X120.879Y-119.075
X121.082Y-91.44
X122.098Y-90.221
X122.149Y-123.444
X122.403Y-133.985
X122.473Y-88.138
X122.809Y-80.493
X124.104Y-133.604
X124.46Y-80.467
X124.892Y-88.798
X124.917Y-97.536
X124.943Y-99.085
X125.271Y-90.348
X125.273Y-146.152
X125.298Y-140.564
X126.136Y-121.514
X126.695Y-125.933
X126.746Y-88.417
X127.318Y-124.79
X129.54Y-90.78
X129.591Y-95.148
X129.819Y-136.576
X130.073Y-96.538
X130.708Y-89.23
X132.969Y-96.52
X133.198Y-142.469
X134.493Y-91.923
X136.271Y-98.044
X139.294Y-146.101
X139.344Y-140.564
X139.889Y-128.935
X140.851Y-129.952
X142.697Y-137.82
X142.748Y-136.169
T2
X84.48Y-97.892
X84.48Y-100.432
X84.48Y-102.972
X84.48Y-105.512
X84.48Y-108.052
X84.48Y-110.592
X84.48Y-113.132
T3
X74.613Y-145.79
X78.613Y-145.79
X82.613Y-145.79
X99.416Y-140.386
X101.416Y-140.386
X117.082Y-112.979
X122.162Y-110.439
X122.162Y-115.519
T4
X142.925Y-122.713
X142.925Y-125.213
X142.925Y-127.213
X142.925Y-129.713
T5
X74.422Y-68.072
X74.422Y-70.612
X74.422Y-73.152
X74.422Y-75.692
X74.422Y-78.232
X74.422Y-80.772
X74.422Y-83.312
X74.422Y-85.852
X82.042Y-68.072
X82.042Y-70.612
X82.042Y-73.152
X82.042Y-75.692
X82.042Y-78.232
X82.042Y-80.772
X82.042Y-83.312
X82.042Y-85.852
X95.148Y-93.98
X95.148Y-96.52
X95.148Y-99.06
X95.148Y-101.6
X95.148Y-104.14
X95.148Y-106.68
X95.148Y-109.22
X95.148Y-111.76
X102.768Y-93.98
X102.768Y-96.52
X102.768Y-99.06
X102.768Y-101.6
X102.768Y-104.14
X102.768Y-106.68
X102.768Y-109.22
X102.768Y-111.76
X120.167Y-53.721
X120.167Y-56.261
X120.167Y-58.801
X120.167Y-61.341
X120.167Y-63.881
X120.167Y-66.421
X126.568Y-112.644
X126.568Y-115.184
X133.198Y-130.241
X133.198Y-132.781
X133.198Y-135.321
T6
X100.01Y-60.935
X102.51Y-60.935
X104.51Y-60.935
X107.01Y-60.935
T7
X72.613Y-141.54
X72.613Y-147.54
X84.613Y-141.54
X84.613Y-147.54
T8
X132.994Y-119.532
X132.994Y-124.612
T9
X144.94Y-101.959
X144.94Y-106.958
X144.94Y-111.959
X145.009Y-85.496
X145.009Y-90.495
X145.009Y-95.496
T10
X58.2Y-105.308
X63.2Y-100.308
X63.2Y-102.808
X63.2Y-107.808
X63.2Y-110.308
X137.49Y-130.15
X137.49Y-135.23
X138.024Y-119.685
X138.024Y-124.765
T11
X53.657Y-128.575
X125.857Y-128.575
T12
X72.161Y-103.48
X72.161Y-107.544
T13
X58.2Y-100.308
X58.2Y-110.308
X63.2Y-105.308
T14
X145.635Y-119.643
X145.635Y-132.783
T15
X53.657Y-136.445
T16
X70.513Y-55.956
X96.94Y-58.225
X110.08Y-58.225
T17
X62.017Y-120.705
X117.217Y-136.445
T2
G00X128.331Y-58.369
M15
G01X125.593Y-58.369
M16
G05
G00X131.379Y-56.083
M15
G01X128.641Y-56.083
M16
G05
G00X132.55Y-64.814
M15
G01X132.55Y-61.576
M16
G05
T3
G00X136.627Y-66.111
M15
G01X136.627Y-63.511
M16
G05
G00X140.727Y-60.011
M15
G01X138.527Y-60.011
M16
G05
G00X142.427Y-65.911
M15
G01X142.427Y-63.711
M16
G05
T0
M30
