%TF.GenerationSoftware,KiCad,Pcbnew,(6.0.4)*%
%TF.CreationDate,2022-06-30T01:03:10+03:00*%
%TF.ProjectId,test_project_01,74657374-5f70-4726-9f6a-6563745f3031,rev?*%
%TF.SameCoordinates,Original*%
%TF.FileFunction,Paste,Top*%
%TF.FilePolarity,Positive*%
%FSLAX46Y46*%
G04 Gerber Fmt 4.6, Leading zero omitted, Abs format (unit mm)*
G04 Created by KiCad (PCBNEW (6.0.4)) date 2022-06-30 01:03:10*
%MOMM*%
%LPD*%
G01*
G04 APERTURE LIST*
G04 Aperture macros list*
%AMRoundRect*
0 Rectangle with rounded corners*
0 $1 Rounding radius*
0 $2 $3 $4 $5 $6 $7 $8 $9 X,Y pos of 4 corners*
0 Add a 4 corners polygon primitive as box body*
4,1,4,$2,$3,$4,$5,$6,$7,$8,$9,$2,$3,0*
0 Add four circle primitives for the rounded corners*
1,1,$1+$1,$2,$3*
1,1,$1+$1,$4,$5*
1,1,$1+$1,$6,$7*
1,1,$1+$1,$8,$9*
0 Add four rect primitives between the rounded corners*
20,1,$1+$1,$2,$3,$4,$5,0*
20,1,$1+$1,$4,$5,$6,$7,0*
20,1,$1+$1,$6,$7,$8,$9,0*
20,1,$1+$1,$8,$9,$2,$3,0*%
%AMFreePoly0*
4,1,6,0.725000,-0.725000,-0.725000,-0.725000,-0.725000,0.125000,-0.125000,0.725000,0.725000,0.725000,0.725000,-0.725000,0.725000,-0.725000,$1*%
G04 Aperture macros list end*
%ADD10R,0.300000X1.400000*%
%ADD11RoundRect,0.250000X-0.350000X-0.450000X0.350000X-0.450000X0.350000X0.450000X-0.350000X0.450000X0*%
%ADD12RoundRect,0.250000X0.350000X0.450000X-0.350000X0.450000X-0.350000X-0.450000X0.350000X-0.450000X0*%
%ADD13RoundRect,0.237500X-0.300000X-0.237500X0.300000X-0.237500X0.300000X0.237500X-0.300000X0.237500X0*%
%ADD14RoundRect,0.237500X-0.237500X0.250000X-0.237500X-0.250000X0.237500X-0.250000X0.237500X0.250000X0*%
%ADD15RoundRect,0.237500X-0.250000X-0.237500X0.250000X-0.237500X0.250000X0.237500X-0.250000X0.237500X0*%
%ADD16RoundRect,0.250000X0.262500X0.450000X-0.262500X0.450000X-0.262500X-0.450000X0.262500X-0.450000X0*%
%ADD17RoundRect,0.237500X0.237500X-0.287500X0.237500X0.287500X-0.237500X0.287500X-0.237500X-0.287500X0*%
%ADD18RoundRect,0.237500X0.287500X0.237500X-0.287500X0.237500X-0.287500X-0.237500X0.287500X-0.237500X0*%
%ADD19RoundRect,0.237500X-0.287500X-0.237500X0.287500X-0.237500X0.287500X0.237500X-0.287500X0.237500X0*%
%ADD20RoundRect,0.237500X-0.237500X0.300000X-0.237500X-0.300000X0.237500X-0.300000X0.237500X0.300000X0*%
%ADD21RoundRect,0.150000X0.150000X-0.587500X0.150000X0.587500X-0.150000X0.587500X-0.150000X-0.587500X0*%
%ADD22R,2.700000X0.800000*%
%ADD23RoundRect,0.237500X0.300000X0.237500X-0.300000X0.237500X-0.300000X-0.237500X0.300000X-0.237500X0*%
%ADD24RoundRect,0.237500X0.237500X-0.300000X0.237500X0.300000X-0.237500X0.300000X-0.237500X-0.300000X0*%
%ADD25RoundRect,0.237500X0.250000X0.237500X-0.250000X0.237500X-0.250000X-0.237500X0.250000X-0.237500X0*%
%ADD26RoundRect,0.250000X0.475000X-0.337500X0.475000X0.337500X-0.475000X0.337500X-0.475000X-0.337500X0*%
%ADD27RoundRect,0.150000X0.825000X0.150000X-0.825000X0.150000X-0.825000X-0.150000X0.825000X-0.150000X0*%
%ADD28RoundRect,0.160000X-0.197500X-0.160000X0.197500X-0.160000X0.197500X0.160000X-0.197500X0.160000X0*%
%ADD29RoundRect,0.237500X0.237500X-0.250000X0.237500X0.250000X-0.237500X0.250000X-0.237500X-0.250000X0*%
%ADD30RoundRect,0.160000X0.197500X0.160000X-0.197500X0.160000X-0.197500X-0.160000X0.197500X-0.160000X0*%
%ADD31R,1.000000X0.700000*%
%ADD32R,1.400000X0.300000*%
%ADD33RoundRect,0.250000X-0.337500X-1.450000X0.337500X-1.450000X0.337500X1.450000X-0.337500X1.450000X0*%
%ADD34R,1.800000X0.400000*%
%ADD35R,0.400000X1.800000*%
%ADD36R,1.450000X1.450000*%
%ADD37R,0.400000X0.800000*%
%ADD38R,1.700000X0.700000*%
%ADD39FreePoly0,0.000000*%
%ADD40R,1.700000X1.700000*%
%ADD41R,1.560000X0.650000*%
%ADD42RoundRect,0.250000X0.337500X0.475000X-0.337500X0.475000X-0.337500X-0.475000X0.337500X-0.475000X0*%
%ADD43R,1.500000X0.650000*%
%ADD44R,1.200000X1.850000*%
%ADD45R,1.500000X0.450000*%
%ADD46RoundRect,0.250000X0.337500X1.450000X-0.337500X1.450000X-0.337500X-1.450000X0.337500X-1.450000X0*%
%ADD47R,0.500000X2.250000*%
%ADD48R,2.000000X2.500000*%
%ADD49R,1.400000X1.300000*%
%ADD50R,0.950000X1.000000*%
%ADD51R,1.900000X1.400000*%
%ADD52R,1.500000X0.800000*%
%ADD53RoundRect,0.150000X0.512500X0.150000X-0.512500X0.150000X-0.512500X-0.150000X0.512500X-0.150000X0*%
%ADD54RoundRect,0.150000X-0.150000X0.587500X-0.150000X-0.587500X0.150000X-0.587500X0.150000X0.587500X0*%
G04 APERTURE END LIST*
D10*
%TO.C,IC2*%
X132698300Y-90763300D03*
X132198300Y-90763300D03*
X131698300Y-90763300D03*
X131198300Y-90763300D03*
X130698300Y-90763300D03*
X130698300Y-95163300D03*
X131198300Y-95163300D03*
X131698300Y-95163300D03*
X132198300Y-95163300D03*
X132698300Y-95163300D03*
%TD*%
D11*
%TO.C,RR2*%
X96199200Y-139776200D03*
X94199200Y-139776200D03*
%TD*%
D12*
%TO.C,RR1*%
X96199200Y-143281400D03*
X94199200Y-143281400D03*
%TD*%
D13*
%TO.C,C23*%
X96978300Y-75844400D03*
X98703300Y-75844400D03*
%TD*%
D14*
%TO.C,R45*%
X88290400Y-68794600D03*
X88290400Y-70619600D03*
%TD*%
D15*
%TO.C,R44*%
X87671000Y-124434600D03*
X89496000Y-124434600D03*
%TD*%
D16*
%TO.C,R20*%
X112875700Y-69926200D03*
X111050700Y-69926200D03*
%TD*%
D17*
%TO.C,D6*%
X86639400Y-70558600D03*
X86639400Y-68808600D03*
%TD*%
D18*
%TO.C,D5*%
X89456200Y-126161800D03*
X87706200Y-126161800D03*
%TD*%
D19*
%TO.C,D1*%
X114463800Y-68021200D03*
X112713800Y-68021200D03*
%TD*%
D18*
%TO.C,F2*%
X109056200Y-110540800D03*
X110806200Y-110540800D03*
%TD*%
D20*
%TO.C,C16*%
X124180600Y-130531700D03*
X124180600Y-132256700D03*
%TD*%
D21*
%TO.C,U8*%
X120563600Y-132407900D03*
X122463600Y-132407900D03*
X121513600Y-130532900D03*
%TD*%
D13*
%TO.C,C11*%
X121922200Y-97561400D03*
X123647200Y-97561400D03*
%TD*%
D22*
%TO.C,L1*%
X90297000Y-138153000D03*
X90297000Y-140353000D03*
%TD*%
D23*
%TO.C,C5*%
X62050000Y-52806600D03*
X60325000Y-52806600D03*
%TD*%
D15*
%TO.C,R27*%
X110290600Y-94538800D03*
X112115600Y-94538800D03*
%TD*%
D24*
%TO.C,C7*%
X115138200Y-87679700D03*
X115138200Y-85954700D03*
%TD*%
D15*
%TO.C,R34*%
X128017900Y-133604000D03*
X129842900Y-133604000D03*
%TD*%
%TO.C,R29*%
X124893700Y-85623400D03*
X126718700Y-85623400D03*
%TD*%
D19*
%TO.C,D3*%
X112307400Y-125552200D03*
X114057400Y-125552200D03*
%TD*%
D25*
%TO.C,R12*%
X96545400Y-72491600D03*
X94720400Y-72491600D03*
%TD*%
D20*
%TO.C,C6*%
X116662200Y-85980100D03*
X116662200Y-87705100D03*
%TD*%
D25*
%TO.C,R25*%
X111758100Y-99974400D03*
X109933100Y-99974400D03*
%TD*%
D26*
%TO.C,C18*%
X69469000Y-146427100D03*
X69469000Y-144352100D03*
%TD*%
D27*
%TO.C,U3*%
X120991400Y-84302600D03*
X120991400Y-83032600D03*
X120991400Y-81762600D03*
X120991400Y-80492600D03*
X120991400Y-79222600D03*
X120991400Y-77952600D03*
X120991400Y-76682600D03*
X120991400Y-75412600D03*
X116041400Y-75412600D03*
X116041400Y-76682600D03*
X116041400Y-77952600D03*
X116041400Y-79222600D03*
X116041400Y-80492600D03*
X116041400Y-81762600D03*
X116041400Y-83032600D03*
X116041400Y-84302600D03*
%TD*%
D20*
%TO.C,C8*%
X88544400Y-98222900D03*
X88544400Y-99947900D03*
%TD*%
D28*
%TO.C,FB2*%
X96862300Y-130327400D03*
X98057300Y-130327400D03*
%TD*%
D23*
%TO.C,C3*%
X59180900Y-62306200D03*
X57455900Y-62306200D03*
%TD*%
D14*
%TO.C,R9*%
X88341200Y-109374300D03*
X88341200Y-111199300D03*
%TD*%
D29*
%TO.C,R42*%
X118186200Y-87755100D03*
X118186200Y-85930100D03*
%TD*%
D15*
%TO.C,R36*%
X112221000Y-122275600D03*
X114046000Y-122275600D03*
%TD*%
D30*
%TO.C,R35*%
X132067900Y-97637600D03*
X130872900Y-97637600D03*
%TD*%
D31*
%TO.C,SW1*%
X51356000Y-64952000D03*
X57356000Y-64952000D03*
X51356000Y-68652000D03*
X57356000Y-68652000D03*
%TD*%
D29*
%TO.C,R40*%
X115773200Y-122451500D03*
X115773200Y-120626500D03*
%TD*%
D15*
%TO.C,R8*%
X88853000Y-102971600D03*
X90678000Y-102971600D03*
%TD*%
D23*
%TO.C,C1*%
X62048900Y-54330600D03*
X60323900Y-54330600D03*
%TD*%
D29*
%TO.C,R18*%
X90121600Y-85312400D03*
X90121600Y-83487400D03*
%TD*%
D25*
%TO.C,R26*%
X111758100Y-98399600D03*
X109933100Y-98399600D03*
%TD*%
D15*
%TO.C,R43*%
X116511700Y-90170000D03*
X118336700Y-90170000D03*
%TD*%
D27*
%TO.C,U6*%
X119569000Y-102108000D03*
X119569000Y-100838000D03*
X119569000Y-99568000D03*
X119569000Y-98298000D03*
X119569000Y-97028000D03*
X119569000Y-95758000D03*
X119569000Y-94488000D03*
X114619000Y-94488000D03*
X114619000Y-95758000D03*
X114619000Y-97028000D03*
X114619000Y-98298000D03*
X114619000Y-99568000D03*
X114619000Y-100838000D03*
X114619000Y-102108000D03*
%TD*%
D32*
%TO.C,IC3*%
X117713400Y-120462800D03*
X117713400Y-120962800D03*
X117713400Y-121462800D03*
X117713400Y-121962800D03*
X117713400Y-122462800D03*
X122113400Y-122462800D03*
X122113400Y-121962800D03*
X122113400Y-121462800D03*
X122113400Y-120962800D03*
X122113400Y-120462800D03*
%TD*%
D13*
%TO.C,C15*%
X124334100Y-124460000D03*
X126059100Y-124460000D03*
%TD*%
D14*
%TO.C,R23*%
X117881400Y-71731500D03*
X117881400Y-73556500D03*
%TD*%
D23*
%TO.C,C12*%
X123646100Y-99085400D03*
X121921100Y-99085400D03*
%TD*%
D13*
%TO.C,C9*%
X111126100Y-66319400D03*
X112851100Y-66319400D03*
%TD*%
D15*
%TO.C,R39*%
X116968900Y-130378200D03*
X118793900Y-130378200D03*
%TD*%
D13*
%TO.C,C4*%
X111710300Y-83896200D03*
X113435300Y-83896200D03*
%TD*%
D33*
%TO.C,R31*%
X131090100Y-85877400D03*
X132765100Y-85877400D03*
%TD*%
D23*
%TO.C,C10*%
X145791100Y-136220200D03*
X144066100Y-136220200D03*
%TD*%
D25*
%TO.C,R13*%
X96547300Y-70967600D03*
X94722300Y-70967600D03*
%TD*%
D19*
%TO.C,D2*%
X112307400Y-120675400D03*
X114057400Y-120675400D03*
%TD*%
D34*
%TO.C,U1*%
X64112600Y-51956200D03*
X64112600Y-52756200D03*
X64112600Y-53556200D03*
X64112600Y-54356200D03*
X64112600Y-55156200D03*
X64112600Y-55956200D03*
X64112600Y-56756200D03*
X64112600Y-57556200D03*
X64112600Y-58356200D03*
X64112600Y-59156200D03*
X64112600Y-59956200D03*
D35*
X65712600Y-61356200D03*
X66512600Y-61356200D03*
X67312600Y-61356200D03*
X68112600Y-61356200D03*
X68912600Y-61356200D03*
X69712600Y-61356200D03*
X70512600Y-61356200D03*
X71312600Y-61356200D03*
X72112600Y-61356200D03*
X72912600Y-61356200D03*
X73712600Y-61356200D03*
X74512600Y-61356200D03*
X75312600Y-61356200D03*
D34*
X76912600Y-59956200D03*
X76912600Y-59156200D03*
X76912600Y-58356200D03*
X76912600Y-57556200D03*
X76912600Y-56756200D03*
X76912600Y-55956200D03*
X76912600Y-55156200D03*
X76912600Y-54356200D03*
X76912600Y-53556200D03*
X76912600Y-52756200D03*
X76912600Y-51956200D03*
D36*
X70512600Y-53981200D03*
D37*
X65712600Y-51056200D03*
X72912600Y-51056200D03*
X66512600Y-51056200D03*
X70512600Y-51056200D03*
X72112600Y-51056200D03*
D36*
X72487600Y-53981200D03*
D37*
X69712600Y-51056200D03*
X68912600Y-51056200D03*
D36*
X70512600Y-57931200D03*
X68537600Y-57931200D03*
D38*
X76862600Y-51006200D03*
D37*
X74512600Y-51056200D03*
X67312600Y-51056200D03*
D36*
X72487600Y-57931200D03*
X72487600Y-55956200D03*
D39*
X68537600Y-53981200D03*
D38*
X64162600Y-51006200D03*
D36*
X68537600Y-55956200D03*
D37*
X75312600Y-51056200D03*
X71312600Y-51056200D03*
X68112600Y-51056200D03*
D40*
X76862600Y-61356200D03*
D37*
X73712600Y-51056200D03*
D40*
X64162600Y-61356200D03*
%TD*%
D41*
%TO.C,U10*%
X94281000Y-135956000D03*
X94281000Y-136906000D03*
X94281000Y-137856000D03*
X96981000Y-137856000D03*
X96981000Y-136906000D03*
X96981000Y-135956000D03*
%TD*%
D14*
%TO.C,R19*%
X88468200Y-83468200D03*
X88468200Y-85293200D03*
%TD*%
D25*
%TO.C,R3*%
X94077800Y-133908800D03*
X92252800Y-133908800D03*
%TD*%
D15*
%TO.C,R2*%
X57380500Y-60731400D03*
X59205500Y-60731400D03*
%TD*%
D29*
%TO.C,R1*%
X113588800Y-87729700D03*
X113588800Y-85904700D03*
%TD*%
D19*
%TO.C,F1*%
X109361000Y-64566800D03*
X111111000Y-64566800D03*
%TD*%
D15*
%TO.C,R32*%
X143992600Y-137820400D03*
X145817600Y-137820400D03*
%TD*%
D25*
%TO.C,R6*%
X91741000Y-94691200D03*
X89916000Y-94691200D03*
%TD*%
D42*
%TO.C,C17*%
X61718100Y-148463000D03*
X59643100Y-148463000D03*
%TD*%
D43*
%TO.C,IC4*%
X67165200Y-146507200D03*
X67165200Y-145237200D03*
X67165200Y-143967200D03*
X67165200Y-142697200D03*
X61765200Y-142697200D03*
X61765200Y-143967200D03*
X61765200Y-145237200D03*
X61765200Y-146507200D03*
%TD*%
D25*
%TO.C,R28*%
X126769500Y-87223600D03*
X124944500Y-87223600D03*
%TD*%
D23*
%TO.C,C20*%
X95858500Y-141528800D03*
X94133500Y-141528800D03*
%TD*%
D15*
%TO.C,R16*%
X92838900Y-74066400D03*
X94663900Y-74066400D03*
%TD*%
%TO.C,R24*%
X108966000Y-96824800D03*
X110791000Y-96824800D03*
%TD*%
D25*
%TO.C,R38*%
X126109100Y-122809000D03*
X124284100Y-122809000D03*
%TD*%
D15*
%TO.C,R37*%
X112224900Y-123926600D03*
X114049900Y-123926600D03*
%TD*%
D13*
%TO.C,C14*%
X134518800Y-96646300D03*
X136243800Y-96646300D03*
%TD*%
D23*
%TO.C,C2*%
X62051100Y-51257200D03*
X60326100Y-51257200D03*
%TD*%
D44*
%TO.C,FB1*%
X104961800Y-68376800D03*
X109261800Y-68376800D03*
%TD*%
D45*
%TO.C,IC1*%
X92808000Y-77451000D03*
X92808000Y-78101000D03*
X92808000Y-78751000D03*
X92808000Y-79401000D03*
X92808000Y-80051000D03*
X92808000Y-80701000D03*
X92808000Y-81351000D03*
X92808000Y-82001000D03*
X92808000Y-82651000D03*
X92808000Y-83301000D03*
X92808000Y-83951000D03*
X92808000Y-84601000D03*
X98708000Y-84601000D03*
X98708000Y-83951000D03*
X98708000Y-83301000D03*
X98708000Y-82651000D03*
X98708000Y-82001000D03*
X98708000Y-81351000D03*
X98708000Y-80701000D03*
X98708000Y-80051000D03*
X98708000Y-79401000D03*
X98708000Y-78751000D03*
X98708000Y-78101000D03*
X98708000Y-77451000D03*
%TD*%
D25*
%TO.C,R4*%
X91692100Y-96316800D03*
X89867100Y-96316800D03*
%TD*%
D46*
%TO.C,R41*%
X112520600Y-106730800D03*
X110845600Y-106730800D03*
%TD*%
D47*
%TO.C,J10*%
X130784800Y-140448600D03*
X131584800Y-140448600D03*
X132384800Y-140448600D03*
X133184800Y-140448600D03*
X133984800Y-140448600D03*
D48*
X127934800Y-140573600D03*
X136834800Y-140573600D03*
X127934800Y-146023600D03*
X136834800Y-146023600D03*
%TD*%
D15*
%TO.C,R17*%
X92813500Y-75768200D03*
X94638500Y-75768200D03*
%TD*%
D29*
%TO.C,R22*%
X119553200Y-73565900D03*
X119553200Y-71740900D03*
%TD*%
D49*
%TO.C,J3*%
X52110000Y-86280400D03*
D50*
X51884000Y-84890400D03*
D49*
X52110000Y-80580400D03*
D51*
X65259000Y-87880400D03*
X66259000Y-74730400D03*
D52*
X62970000Y-79390400D03*
X62570000Y-80490400D03*
X62970000Y-81590400D03*
X63170000Y-82690400D03*
X62970000Y-83790400D03*
X63170000Y-84890400D03*
X62970000Y-85990400D03*
X62970000Y-87090400D03*
%TD*%
D53*
%TO.C,U5*%
X104769500Y-66177200D03*
X104769500Y-65227200D03*
X104769500Y-64277200D03*
X102494500Y-64277200D03*
X102494500Y-66177200D03*
%TD*%
D25*
%TO.C,R33*%
X129819400Y-135204200D03*
X127994400Y-135204200D03*
%TD*%
D54*
%TO.C,U2*%
X112024200Y-85955900D03*
X110124200Y-85955900D03*
X111074200Y-87830900D03*
%TD*%
D43*
%TO.C,Q1*%
X122308600Y-128447800D03*
X122308600Y-127177800D03*
X122308600Y-125907800D03*
X122308600Y-124637800D03*
X116908600Y-124637800D03*
X116908600Y-125907800D03*
X116908600Y-127177800D03*
X116908600Y-128447800D03*
%TD*%
D24*
%TO.C,C13*%
X134492300Y-95045000D03*
X134492300Y-93320000D03*
%TD*%
D25*
%TO.C,R21*%
X57376700Y-71221600D03*
X55551700Y-71221600D03*
%TD*%
M02*
