%TF.GenerationSoftware,KiCad,Pcbnew,(6.0.4)*%
%TF.CreationDate,2022-06-30T01:03:11+03:00*%
%TF.ProjectId,test_project_01,74657374-5f70-4726-9f6a-6563745f3031,rev?*%
%TF.SameCoordinates,Original*%
%TF.FileFunction,Soldermask,Bot*%
%TF.FilePolarity,Negative*%
%FSLAX46Y46*%
G04 Gerber Fmt 4.6, Leading zero omitted, Abs format (unit mm)*
G04 Created by KiCad (PCBNEW (6.0.4)) date 2022-06-30 01:03:11*
%MOMM*%
%LPD*%
G01*
G04 APERTURE LIST*
G04 Aperture macros list*
%AMRoundRect*
0 Rectangle with rounded corners*
0 $1 Rounding radius*
0 $2 $3 $4 $5 $6 $7 $8 $9 X,Y pos of 4 corners*
0 Add a 4 corners polygon primitive as box body*
4,1,4,$2,$3,$4,$5,$6,$7,$8,$9,$2,$3,0*
0 Add four circle primitives for the rounded corners*
1,1,$1+$1,$2,$3*
1,1,$1+$1,$4,$5*
1,1,$1+$1,$6,$7*
1,1,$1+$1,$8,$9*
0 Add four rect primitives between the rounded corners*
20,1,$1+$1,$2,$3,$4,$5,0*
20,1,$1+$1,$4,$5,$6,$7,0*
20,1,$1+$1,$6,$7,$8,$9,0*
20,1,$1+$1,$8,$9,$2,$3,0*%
G04 Aperture macros list end*
%ADD10O,1.700000X1.700000*%
%ADD11R,1.700000X1.700000*%
%ADD12R,2.000000X5.500000*%
%ADD13R,5.000000X1.800000*%
%ADD14R,1.600000X1.600000*%
%ADD15C,1.600000*%
%ADD16C,1.440000*%
%ADD17C,1.300000*%
%ADD18C,1.710000*%
%ADD19C,3.810000*%
%ADD20C,2.700000*%
%ADD21C,1.524000*%
%ADD22R,1.500000X1.600000*%
%ADD23C,3.000000*%
%ADD24RoundRect,0.650000X0.650000X-0.650000X0.650000X0.650000X-0.650000X0.650000X-0.650000X-0.650000X0*%
%ADD25C,2.600000*%
%ADD26RoundRect,0.101600X-1.206500X1.206500X-1.206500X-1.206500X1.206500X-1.206500X1.206500X1.206500X0*%
%ADD27C,2.616200*%
%ADD28C,3.200000*%
%ADD29C,2.800000*%
%ADD30C,1.500000*%
%ADD31R,1.800000X4.400000*%
%ADD32O,1.800000X4.000000*%
%ADD33O,4.000000X1.800000*%
%ADD34R,2.400000X2.400000*%
%ADD35O,2.400000X2.400000*%
%ADD36C,0.900000*%
%ADD37C,1.530000*%
%ADD38C,3.600000*%
%ADD39R,1.950000X1.950000*%
%ADD40C,1.950000*%
%ADD41C,2.400000*%
%ADD42C,5.325000*%
%ADD43C,3.585000*%
%ADD44C,1.980000*%
%ADD45RoundRect,0.237500X0.250000X0.237500X-0.250000X0.237500X-0.250000X-0.237500X0.250000X-0.237500X0*%
G04 APERTURE END LIST*
D10*
%TO.C,J8*%
X120167400Y-66421000D03*
X120167400Y-63881000D03*
X120167400Y-61341000D03*
X120167400Y-58801000D03*
X120167400Y-56261000D03*
D11*
X120167400Y-53721000D03*
%TD*%
D12*
%TO.C,J4*%
X132549800Y-63195200D03*
D13*
X126961800Y-58369200D03*
X130009800Y-56083200D03*
%TD*%
D14*
%TO.C,C22*%
X95351600Y-146024600D03*
D15*
X95351600Y-148250000D03*
%TD*%
D16*
%TO.C,RV1*%
X122162000Y-110439200D03*
X117082000Y-112979200D03*
X122162000Y-115519200D03*
%TD*%
D11*
%TO.C,JP2*%
X133197600Y-130240800D03*
D10*
X133197600Y-132780800D03*
X133197600Y-135320800D03*
%TD*%
D15*
%TO.C,C21*%
X89636600Y-147750000D03*
D14*
X89636600Y-145542000D03*
%TD*%
D17*
%TO.C,S3*%
X82613000Y-145790500D03*
X78613000Y-145790500D03*
X74613000Y-145790500D03*
D18*
X84613000Y-141540500D03*
X84613000Y-147540500D03*
X72613000Y-147540500D03*
X72613000Y-141540500D03*
%TD*%
D19*
%TO.C,U4*%
X70510400Y-99161600D03*
X70510400Y-111861600D03*
D20*
X72161400Y-107543600D03*
X72161400Y-103479600D03*
D21*
X84480400Y-97891600D03*
X84480400Y-100431600D03*
X84480400Y-113131600D03*
X84480400Y-110591600D03*
X84480400Y-108051600D03*
X84480400Y-105511600D03*
X84480400Y-102971600D03*
%TD*%
D22*
%TO.C,J9*%
X142925200Y-129712600D03*
D15*
X142925200Y-127212600D03*
X142925200Y-125212600D03*
X142925200Y-122712600D03*
D23*
X145635200Y-132782600D03*
X145635200Y-119642600D03*
%TD*%
D24*
%TO.C,J11*%
X137490200Y-135229600D03*
D25*
X137490200Y-130149600D03*
%TD*%
D24*
%TO.C,J12*%
X138176000Y-124764800D03*
D25*
X138176000Y-119684800D03*
%TD*%
D26*
%TO.C,J7*%
X144940020Y-101959410D03*
D27*
X144940020Y-106958130D03*
X144940020Y-111959390D03*
%TD*%
D28*
%TO.C,H4*%
X55000000Y-145000000D03*
%TD*%
D29*
%TO.C,U1*%
X70512600Y-55956200D03*
%TD*%
D28*
%TO.C,H3*%
X145000000Y-145000000D03*
%TD*%
D26*
%TO.C,J6*%
X145008600Y-85496400D03*
D27*
X145008600Y-90495120D03*
X145008600Y-95496380D03*
%TD*%
D30*
%TO.C,S2*%
X95148400Y-93980000D03*
X102768400Y-93980000D03*
X95148400Y-96520000D03*
X102768400Y-96520000D03*
X95148400Y-99060000D03*
X102768400Y-99060000D03*
X95148400Y-101600000D03*
X102768400Y-101600000D03*
X95148400Y-104140000D03*
X102768400Y-104140000D03*
X95148400Y-106680000D03*
X102768400Y-106680000D03*
X95148400Y-109220000D03*
X102768400Y-109220000D03*
X95148400Y-111760000D03*
X102768400Y-111760000D03*
%TD*%
D31*
%TO.C,J5*%
X136626600Y-64811200D03*
D32*
X142426600Y-64811200D03*
D33*
X139626600Y-60011200D03*
%TD*%
D34*
%TO.C,D4*%
X133451600Y-124617200D03*
D35*
X133451600Y-119537200D03*
%TD*%
D28*
%TO.C,H2*%
X145000000Y-55000000D03*
%TD*%
D36*
%TO.C,J10*%
X134584800Y-143123600D03*
X130184800Y-143123600D03*
%TD*%
D11*
%TO.C,J13*%
X126568200Y-112644000D03*
D10*
X126568200Y-115184000D03*
%TD*%
D28*
%TO.C,H1*%
X55000000Y-55000000D03*
%TD*%
D14*
%TO.C,C19*%
X99415600Y-140385800D03*
D15*
X101415600Y-140385800D03*
%TD*%
D37*
%TO.C,J2*%
X107010200Y-60934600D03*
X104510200Y-60934600D03*
X102510200Y-60934600D03*
X100010200Y-60934600D03*
D38*
X110080200Y-58224600D03*
X96940200Y-58224600D03*
%TD*%
D30*
%TO.C,S1*%
X74422000Y-68072000D03*
X82042000Y-68072000D03*
X74422000Y-70612000D03*
X82042000Y-70612000D03*
X74422000Y-73152000D03*
X82042000Y-73152000D03*
X74422000Y-75692000D03*
X82042000Y-75692000D03*
X74422000Y-78232000D03*
X82042000Y-78232000D03*
X74422000Y-80772000D03*
X82042000Y-80772000D03*
X74422000Y-83312000D03*
X82042000Y-83312000D03*
X74422000Y-85852000D03*
X82042000Y-85852000D03*
%TD*%
D39*
%TO.C,J1*%
X58200200Y-105308400D03*
D40*
X63200200Y-100308400D03*
X63200200Y-102808400D03*
X63200200Y-107808400D03*
X63200200Y-110308400D03*
D41*
X58200200Y-100308400D03*
X58200200Y-110308400D03*
X63200200Y-105308400D03*
%TD*%
D42*
%TO.C,U7*%
X62017000Y-120704800D03*
D43*
X53657000Y-136444800D03*
D42*
X117217000Y-136444800D03*
D44*
X53657000Y-128574800D03*
X125857000Y-128574800D03*
%TD*%
D45*
%TO.C,R11*%
X60071600Y-85242400D03*
X58246600Y-85242400D03*
%TD*%
%TO.C,R10*%
X60069100Y-83693000D03*
X58244100Y-83693000D03*
%TD*%
%TO.C,R5*%
X60071600Y-80568800D03*
X58246600Y-80568800D03*
%TD*%
%TO.C,R14*%
X60071600Y-79019400D03*
X58246600Y-79019400D03*
%TD*%
%TO.C,R15*%
X60069100Y-86766400D03*
X58244100Y-86766400D03*
%TD*%
%TO.C,R7*%
X60071600Y-82092800D03*
X58246600Y-82092800D03*
%TD*%
M02*
