%TF.GenerationSoftware,KiCad,Pcbnew,(6.0.5)*%
%TF.CreationDate,2022-06-30T10:31:42+03:00*%
%TF.ProjectId,test_project_01,74657374-5f70-4726-9f6a-6563745f3031,rev?*%
%TF.SameCoordinates,Original*%
%TF.FileFunction,Legend,Bot*%
%TF.FilePolarity,Positive*%
%FSLAX46Y46*%
G04 Gerber Fmt 4.6, Leading zero omitted, Abs format (unit mm)*
G04 Created by KiCad (PCBNEW (6.0.5)) date 2022-06-30 10:31:42*
%MOMM*%
%LPD*%
G01*
G04 APERTURE LIST*
G04 Aperture macros list*
%AMRoundRect*
0 Rectangle with rounded corners*
0 $1 Rounding radius*
0 $2 $3 $4 $5 $6 $7 $8 $9 X,Y pos of 4 corners*
0 Add a 4 corners polygon primitive as box body*
4,1,4,$2,$3,$4,$5,$6,$7,$8,$9,$2,$3,0*
0 Add four circle primitives for the rounded corners*
1,1,$1+$1,$2,$3*
1,1,$1+$1,$4,$5*
1,1,$1+$1,$6,$7*
1,1,$1+$1,$8,$9*
0 Add four rect primitives between the rounded corners*
20,1,$1+$1,$2,$3,$4,$5,0*
20,1,$1+$1,$4,$5,$6,$7,0*
20,1,$1+$1,$6,$7,$8,$9,0*
20,1,$1+$1,$8,$9,$2,$3,0*%
G04 Aperture macros list end*
%TA.AperFunction,Profile*%
%ADD10C,0.100000*%
%TD*%
%ADD11C,0.254000*%
%ADD12C,0.150000*%
%TA.AperFunction,Profile*%
%ADD13C,0.120000*%
%TD*%
%ADD14C,0.010000*%
%ADD15C,0.100000*%
%ADD16C,0.200000*%
%ADD17C,0.120000*%
%ADD18R,2.000000X5.500000*%
%ADD19R,5.000000X1.800000*%
%ADD20C,1.440000*%
%ADD21R,1.700000X1.700000*%
%ADD22O,1.700000X1.700000*%
%ADD23C,1.300000*%
%ADD24C,1.710000*%
%ADD25C,3.810000*%
%ADD26C,2.700000*%
%ADD27C,1.524000*%
%ADD28R,1.500000X1.600000*%
%ADD29C,1.600000*%
%ADD30C,3.000000*%
%ADD31RoundRect,0.650000X0.650000X-0.650000X0.650000X0.650000X-0.650000X0.650000X-0.650000X-0.650000X0*%
%ADD32C,2.600000*%
%ADD33RoundRect,0.101600X-1.206500X1.206500X-1.206500X-1.206500X1.206500X-1.206500X1.206500X1.206500X0*%
%ADD34C,2.616200*%
%ADD35C,3.200000*%
%ADD36C,2.800000*%
%ADD37C,1.500000*%
%ADD38R,1.800000X4.400000*%
%ADD39O,1.800000X4.000000*%
%ADD40O,4.000000X1.800000*%
%ADD41R,2.400000X2.400000*%
%ADD42O,2.400000X2.400000*%
%ADD43C,0.900000*%
%ADD44R,1.600000X1.600000*%
%ADD45C,1.530000*%
%ADD46C,3.600000*%
%ADD47R,1.950000X1.950000*%
%ADD48C,1.950000*%
%ADD49C,2.400000*%
%ADD50C,1.980000*%
%ADD51C,5.325000*%
%ADD52C,3.585000*%
%ADD53RoundRect,0.237500X0.250000X0.237500X-0.250000X0.237500X-0.250000X-0.237500X0.250000X-0.237500X0*%
%ADD54RoundRect,0.237500X-0.300000X-0.237500X0.300000X-0.237500X0.300000X0.237500X-0.300000X0.237500X0*%
G04 APERTURE END LIST*
D10*
X54944997Y-50017243D02*
X145105552Y-50016884D01*
X50038000Y-145054603D02*
X50016884Y-54944848D01*
X145034000Y-149961600D02*
X54894048Y-149982716D01*
X149961600Y-145105552D02*
X149961600Y-54944997D01*
X145034000Y-149961600D02*
G75*
G03*
X149961600Y-145105552I70785J4856299D01*
G01*
X50037998Y-145054603D02*
G75*
G03*
X54894048Y-149982716I4856297J-71293D01*
G01*
X54944997Y-50017243D02*
G75*
G03*
X50016884Y-54944848I-254J-4927859D01*
G01*
X149961599Y-54944997D02*
G75*
G03*
X145105552Y-50016884I-4856299J71291D01*
G01*
D11*
%TO.C,U7*%
X114756914Y-142160761D02*
X114756914Y-143779809D01*
X114614057Y-143970285D01*
X114471200Y-144065523D01*
X114185485Y-144160761D01*
X113614057Y-144160761D01*
X113328342Y-144065523D01*
X113185485Y-143970285D01*
X113042628Y-143779809D01*
X113042628Y-142160761D01*
X111899771Y-142160761D02*
X109899771Y-142160761D01*
X111185485Y-144160761D01*
D12*
%TO.C,R11*%
X56624457Y-85745580D02*
X56957790Y-85269390D01*
X57195885Y-85745580D02*
X57195885Y-84745580D01*
X56814933Y-84745580D01*
X56719695Y-84793200D01*
X56672076Y-84840819D01*
X56624457Y-84936057D01*
X56624457Y-85078914D01*
X56672076Y-85174152D01*
X56719695Y-85221771D01*
X56814933Y-85269390D01*
X57195885Y-85269390D01*
X55672076Y-85745580D02*
X56243504Y-85745580D01*
X55957790Y-85745580D02*
X55957790Y-84745580D01*
X56053028Y-84888438D01*
X56148266Y-84983676D01*
X56243504Y-85031295D01*
X54719695Y-85745580D02*
X55291123Y-85745580D01*
X55005409Y-85745580D02*
X55005409Y-84745580D01*
X55100647Y-84888438D01*
X55195885Y-84983676D01*
X55291123Y-85031295D01*
%TO.C,R10*%
X56649857Y-84246980D02*
X56983190Y-83770790D01*
X57221285Y-84246980D02*
X57221285Y-83246980D01*
X56840333Y-83246980D01*
X56745095Y-83294600D01*
X56697476Y-83342219D01*
X56649857Y-83437457D01*
X56649857Y-83580314D01*
X56697476Y-83675552D01*
X56745095Y-83723171D01*
X56840333Y-83770790D01*
X57221285Y-83770790D01*
X55697476Y-84246980D02*
X56268904Y-84246980D01*
X55983190Y-84246980D02*
X55983190Y-83246980D01*
X56078428Y-83389838D01*
X56173666Y-83485076D01*
X56268904Y-83532695D01*
X55078428Y-83246980D02*
X54983190Y-83246980D01*
X54887952Y-83294600D01*
X54840333Y-83342219D01*
X54792714Y-83437457D01*
X54745095Y-83627933D01*
X54745095Y-83866028D01*
X54792714Y-84056504D01*
X54840333Y-84151742D01*
X54887952Y-84199361D01*
X54983190Y-84246980D01*
X55078428Y-84246980D01*
X55173666Y-84199361D01*
X55221285Y-84151742D01*
X55268904Y-84056504D01*
X55316523Y-83866028D01*
X55316523Y-83627933D01*
X55268904Y-83437457D01*
X55221285Y-83342219D01*
X55173666Y-83294600D01*
X55078428Y-83246980D01*
%TO.C,R5*%
X56656266Y-81021180D02*
X56989600Y-80544990D01*
X57227695Y-81021180D02*
X57227695Y-80021180D01*
X56846742Y-80021180D01*
X56751504Y-80068800D01*
X56703885Y-80116419D01*
X56656266Y-80211657D01*
X56656266Y-80354514D01*
X56703885Y-80449752D01*
X56751504Y-80497371D01*
X56846742Y-80544990D01*
X57227695Y-80544990D01*
X55751504Y-80021180D02*
X56227695Y-80021180D01*
X56275314Y-80497371D01*
X56227695Y-80449752D01*
X56132457Y-80402133D01*
X55894361Y-80402133D01*
X55799123Y-80449752D01*
X55751504Y-80497371D01*
X55703885Y-80592609D01*
X55703885Y-80830704D01*
X55751504Y-80925942D01*
X55799123Y-80973561D01*
X55894361Y-81021180D01*
X56132457Y-81021180D01*
X56227695Y-80973561D01*
X56275314Y-80925942D01*
%TO.C,R14*%
X56675257Y-79547980D02*
X57008590Y-79071790D01*
X57246685Y-79547980D02*
X57246685Y-78547980D01*
X56865733Y-78547980D01*
X56770495Y-78595600D01*
X56722876Y-78643219D01*
X56675257Y-78738457D01*
X56675257Y-78881314D01*
X56722876Y-78976552D01*
X56770495Y-79024171D01*
X56865733Y-79071790D01*
X57246685Y-79071790D01*
X55722876Y-79547980D02*
X56294304Y-79547980D01*
X56008590Y-79547980D02*
X56008590Y-78547980D01*
X56103828Y-78690838D01*
X56199066Y-78786076D01*
X56294304Y-78833695D01*
X54865733Y-78881314D02*
X54865733Y-79547980D01*
X55103828Y-78500361D02*
X55341923Y-79214647D01*
X54722876Y-79214647D01*
%TO.C,R15*%
X56599057Y-87244180D02*
X56932390Y-86767990D01*
X57170485Y-87244180D02*
X57170485Y-86244180D01*
X56789533Y-86244180D01*
X56694295Y-86291800D01*
X56646676Y-86339419D01*
X56599057Y-86434657D01*
X56599057Y-86577514D01*
X56646676Y-86672752D01*
X56694295Y-86720371D01*
X56789533Y-86767990D01*
X57170485Y-86767990D01*
X55646676Y-87244180D02*
X56218104Y-87244180D01*
X55932390Y-87244180D02*
X55932390Y-86244180D01*
X56027628Y-86387038D01*
X56122866Y-86482276D01*
X56218104Y-86529895D01*
X54741914Y-86244180D02*
X55218104Y-86244180D01*
X55265723Y-86720371D01*
X55218104Y-86672752D01*
X55122866Y-86625133D01*
X54884771Y-86625133D01*
X54789533Y-86672752D01*
X54741914Y-86720371D01*
X54694295Y-86815609D01*
X54694295Y-87053704D01*
X54741914Y-87148942D01*
X54789533Y-87196561D01*
X54884771Y-87244180D01*
X55122866Y-87244180D01*
X55218104Y-87196561D01*
X55265723Y-87148942D01*
%TO.C,R7*%
X55767266Y-82519780D02*
X56100600Y-82043590D01*
X56338695Y-82519780D02*
X56338695Y-81519780D01*
X55957742Y-81519780D01*
X55862504Y-81567400D01*
X55814885Y-81615019D01*
X55767266Y-81710257D01*
X55767266Y-81853114D01*
X55814885Y-81948352D01*
X55862504Y-81995971D01*
X55957742Y-82043590D01*
X56338695Y-82043590D01*
X55433933Y-81519780D02*
X54767266Y-81519780D01*
X55195838Y-82519780D01*
%TO.C,C26*%
X66225657Y-84540342D02*
X66273276Y-84587961D01*
X66416133Y-84635580D01*
X66511371Y-84635580D01*
X66654228Y-84587961D01*
X66749466Y-84492723D01*
X66797085Y-84397485D01*
X66844704Y-84207009D01*
X66844704Y-84064152D01*
X66797085Y-83873676D01*
X66749466Y-83778438D01*
X66654228Y-83683200D01*
X66511371Y-83635580D01*
X66416133Y-83635580D01*
X66273276Y-83683200D01*
X66225657Y-83730819D01*
X65844704Y-83730819D02*
X65797085Y-83683200D01*
X65701847Y-83635580D01*
X65463752Y-83635580D01*
X65368514Y-83683200D01*
X65320895Y-83730819D01*
X65273276Y-83826057D01*
X65273276Y-83921295D01*
X65320895Y-84064152D01*
X65892323Y-84635580D01*
X65273276Y-84635580D01*
X64416133Y-83635580D02*
X64606609Y-83635580D01*
X64701847Y-83683200D01*
X64749466Y-83730819D01*
X64844704Y-83873676D01*
X64892323Y-84064152D01*
X64892323Y-84445104D01*
X64844704Y-84540342D01*
X64797085Y-84587961D01*
X64701847Y-84635580D01*
X64511371Y-84635580D01*
X64416133Y-84587961D01*
X64368514Y-84540342D01*
X64320895Y-84445104D01*
X64320895Y-84207009D01*
X64368514Y-84111771D01*
X64416133Y-84064152D01*
X64511371Y-84016533D01*
X64701847Y-84016533D01*
X64797085Y-84064152D01*
X64844704Y-84111771D01*
X64892323Y-84207009D01*
D13*
%TO.C,J4*%
X129501800Y-69291200D02*
G75*
G03*
X129501800Y-69291200I-1000000J0D01*
G01*
X129501800Y-52639200D02*
G75*
G03*
X129501800Y-52639200I-1000000J0D01*
G01*
%TO.C,FID5*%
G36*
X107516445Y-141397683D02*
G01*
X107569141Y-141399126D01*
X107659237Y-141399126D01*
X107659237Y-141549521D01*
X107447228Y-141549521D01*
X107427433Y-141785783D01*
X107424775Y-141818083D01*
X107418583Y-141898940D01*
X107414208Y-141964735D01*
X107412030Y-142009391D01*
X107412426Y-142026833D01*
X107418185Y-142021819D01*
X107444462Y-141995683D01*
X107489888Y-141949358D01*
X107552166Y-141885247D01*
X107628997Y-141805750D01*
X107718080Y-141713269D01*
X107817119Y-141610206D01*
X107923814Y-141498962D01*
X108035865Y-141381938D01*
X108150975Y-141261536D01*
X108266844Y-141140158D01*
X108381174Y-141020204D01*
X108491666Y-140904076D01*
X108596021Y-140794175D01*
X108691940Y-140692904D01*
X108777124Y-140602663D01*
X108849275Y-140525853D01*
X108978194Y-140388139D01*
X108978781Y-140505452D01*
X108979368Y-140622764D01*
X108181286Y-141462085D01*
X107383204Y-142301407D01*
X107367250Y-142492706D01*
X107303419Y-143258128D01*
X107292138Y-143393887D01*
X107278140Y-143563754D01*
X107265220Y-143722105D01*
X107253627Y-143865828D01*
X107243607Y-143991810D01*
X107235407Y-144096938D01*
X107229274Y-144178101D01*
X107225456Y-144232186D01*
X107224199Y-144256080D01*
X107227517Y-144267029D01*
X107242429Y-144290671D01*
X107270709Y-144326303D01*
X107284358Y-144341877D01*
X107313864Y-144375548D01*
X107373399Y-144440028D01*
X107450820Y-144521368D01*
X107547632Y-144621191D01*
X107665342Y-144741120D01*
X107805454Y-144882779D01*
X107897628Y-144975736D01*
X108026119Y-145105395D01*
X108154159Y-145234679D01*
X108277900Y-145359697D01*
X108393492Y-145476559D01*
X108497085Y-145581374D01*
X108584831Y-145670252D01*
X108652881Y-145739302D01*
X108919617Y-146010357D01*
X108871169Y-146060926D01*
X108859743Y-146072319D01*
X108826035Y-146100297D01*
X108802910Y-146111495D01*
X108784805Y-146101935D01*
X108751145Y-146073249D01*
X108710792Y-146032120D01*
X108686230Y-146006142D01*
X108640423Y-145958704D01*
X108575683Y-145892166D01*
X108494295Y-145808863D01*
X108398545Y-145711128D01*
X108290721Y-145601295D01*
X108173108Y-145481696D01*
X108047992Y-145354666D01*
X107917659Y-145222538D01*
X107196831Y-144492332D01*
X107167469Y-144871617D01*
X107161068Y-144952572D01*
X107151721Y-145061393D01*
X107143290Y-145143817D01*
X107135151Y-145204175D01*
X107126679Y-145246800D01*
X107117250Y-145276024D01*
X107106237Y-145296180D01*
X107090825Y-145324350D01*
X107078143Y-145376139D01*
X107074368Y-145450752D01*
X107074368Y-145560047D01*
X106773579Y-145560047D01*
X106773579Y-145326100D01*
X105649832Y-145326100D01*
X105584875Y-145399895D01*
X105567110Y-145419111D01*
X105470831Y-145496312D01*
X105362049Y-145543839D01*
X105244262Y-145560047D01*
X105140327Y-145551454D01*
X105022770Y-145515228D01*
X104922134Y-145450482D01*
X104902520Y-145431978D01*
X104853503Y-145372075D01*
X104810497Y-145302293D01*
X104779658Y-145233509D01*
X104767141Y-145176602D01*
X104766899Y-145168341D01*
X104765099Y-145138071D01*
X104760392Y-145117163D01*
X104750544Y-145107269D01*
X104733323Y-145110044D01*
X104706494Y-145127140D01*
X104667824Y-145160210D01*
X104615080Y-145210907D01*
X104546028Y-145280885D01*
X104458434Y-145371797D01*
X104350065Y-145485295D01*
X104292342Y-145545880D01*
X104195855Y-145647318D01*
X104104568Y-145743489D01*
X104022059Y-145830613D01*
X103951906Y-145904911D01*
X103897685Y-145962603D01*
X103862974Y-145999910D01*
X103768092Y-146103139D01*
X103709449Y-146044652D01*
X103650805Y-145986166D01*
X104376179Y-145225837D01*
X104421916Y-145177863D01*
X104584633Y-145006540D01*
X104724313Y-144858338D01*
X104841373Y-144732798D01*
X104936233Y-144629461D01*
X105003309Y-144554567D01*
X105277947Y-144554567D01*
X105280106Y-144572189D01*
X105280483Y-144574030D01*
X105298480Y-144615771D01*
X105334428Y-144635220D01*
X105445237Y-144676683D01*
X105543963Y-144745756D01*
X105621611Y-144837124D01*
X105674828Y-144946795D01*
X105700258Y-145070773D01*
X105708681Y-145175705D01*
X106970482Y-145175705D01*
X106979280Y-145138106D01*
X106980836Y-145128879D01*
X106985672Y-145087618D01*
X106992271Y-145020904D01*
X107000142Y-144934053D01*
X107008797Y-144832377D01*
X107017743Y-144721192D01*
X107047409Y-144341877D01*
X106647532Y-143935798D01*
X106574187Y-143861561D01*
X106484447Y-143771437D01*
X106403940Y-143691375D01*
X106335488Y-143624142D01*
X106281917Y-143572510D01*
X106246052Y-143539246D01*
X106230715Y-143527121D01*
X106220431Y-143532914D01*
X106189801Y-143559275D01*
X106143705Y-143603309D01*
X106086265Y-143661044D01*
X106021605Y-143728511D01*
X106004738Y-143746404D01*
X105929107Y-143826439D01*
X105838984Y-143921577D01*
X105741155Y-144024667D01*
X105642405Y-144128556D01*
X105549520Y-144226093D01*
X105543940Y-144231946D01*
X105457584Y-144322814D01*
X105391690Y-144393177D01*
X105343651Y-144446383D01*
X105310863Y-144485777D01*
X105290720Y-144514708D01*
X105280616Y-144536522D01*
X105277947Y-144554567D01*
X105003309Y-144554567D01*
X105009311Y-144547866D01*
X105061026Y-144487555D01*
X105091796Y-144448066D01*
X105102040Y-144428942D01*
X105102041Y-144428829D01*
X105100636Y-144404994D01*
X105096531Y-144351567D01*
X105090048Y-144272184D01*
X105081508Y-144170480D01*
X105071233Y-144050093D01*
X105059544Y-143914657D01*
X105046763Y-143767811D01*
X105033212Y-143613190D01*
X105019212Y-143454430D01*
X105005085Y-143295168D01*
X104991153Y-143139041D01*
X104977736Y-142989683D01*
X104965157Y-142850733D01*
X104953738Y-142725826D01*
X104943799Y-142618598D01*
X104935662Y-142532687D01*
X104929650Y-142471727D01*
X104926083Y-142439356D01*
X104918891Y-142385138D01*
X105090573Y-142385138D01*
X105092772Y-142426230D01*
X105097611Y-142495335D01*
X105104848Y-142589470D01*
X105114241Y-142705653D01*
X105125547Y-142840899D01*
X105138523Y-142992227D01*
X105152929Y-143156654D01*
X105168521Y-143331197D01*
X105180710Y-143465806D01*
X105195976Y-143632745D01*
X105210269Y-143787218D01*
X105223305Y-143926249D01*
X105234800Y-144046864D01*
X105244470Y-144146089D01*
X105252030Y-144220948D01*
X105257197Y-144268467D01*
X105259686Y-144285672D01*
X105267236Y-144280342D01*
X105294922Y-144254178D01*
X105339909Y-144209237D01*
X105399100Y-144148791D01*
X105469399Y-144076109D01*
X105547708Y-143994464D01*
X105630930Y-143907126D01*
X105715969Y-143817367D01*
X105799727Y-143728458D01*
X105879107Y-143643670D01*
X105951013Y-143566273D01*
X106012347Y-143499541D01*
X106060013Y-143446742D01*
X106090913Y-143411150D01*
X106099941Y-143398786D01*
X106341574Y-143398786D01*
X106707971Y-143764899D01*
X106797569Y-143854279D01*
X106882013Y-143937920D01*
X106947427Y-144001627D01*
X106996208Y-144047468D01*
X107030753Y-144077509D01*
X107053459Y-144093818D01*
X107066722Y-144098462D01*
X107072940Y-144093508D01*
X107074509Y-144081023D01*
X107075515Y-144060963D01*
X107079140Y-144009312D01*
X107085130Y-143930920D01*
X107093198Y-143829359D01*
X107103055Y-143708202D01*
X107114413Y-143571021D01*
X107126984Y-143421387D01*
X107140480Y-143262871D01*
X107152395Y-143123163D01*
X107164811Y-142976014D01*
X107175943Y-142842405D01*
X107185526Y-142725628D01*
X107193290Y-142628978D01*
X107198969Y-142555745D01*
X107202297Y-142509224D01*
X107203004Y-142492706D01*
X107202444Y-142493016D01*
X107186663Y-142508223D01*
X107151606Y-142543903D01*
X107100363Y-142596820D01*
X107036019Y-142663739D01*
X106961664Y-142741423D01*
X106880385Y-142826636D01*
X106795270Y-142916141D01*
X106709406Y-143006702D01*
X106625881Y-143095083D01*
X106547784Y-143178048D01*
X106478202Y-143252360D01*
X106344141Y-143396034D01*
X106341574Y-143398786D01*
X106099941Y-143398786D01*
X106101951Y-143396034D01*
X106091131Y-143381385D01*
X106059674Y-143346322D01*
X106010503Y-143293865D01*
X105946544Y-143226972D01*
X105870723Y-143148599D01*
X105785967Y-143061703D01*
X105695202Y-142969241D01*
X105601356Y-142874169D01*
X105507354Y-142779445D01*
X105416124Y-142688024D01*
X105330591Y-142602865D01*
X105253683Y-142526923D01*
X105188326Y-142463156D01*
X105137446Y-142414520D01*
X105103970Y-142383972D01*
X105090824Y-142374468D01*
X105090573Y-142385138D01*
X104918891Y-142385138D01*
X104916663Y-142368337D01*
X104551079Y-142368337D01*
X104550870Y-142234652D01*
X104684763Y-142234652D01*
X104793382Y-142234652D01*
X104803045Y-142234644D01*
X104857604Y-142233480D01*
X104887276Y-142228502D01*
X104899571Y-142217077D01*
X104902000Y-142196571D01*
X104891301Y-142166429D01*
X104854654Y-142116287D01*
X104793382Y-142050837D01*
X104684763Y-141943184D01*
X104684763Y-142234652D01*
X104550870Y-142234652D01*
X104550641Y-142088435D01*
X104550204Y-141808534D01*
X103949885Y-141198600D01*
X103349567Y-140588666D01*
X103348744Y-140472937D01*
X103347921Y-140357210D01*
X104067969Y-141087049D01*
X104137564Y-141157544D01*
X104281975Y-141303428D01*
X104405442Y-141427475D01*
X104509560Y-141531211D01*
X104595925Y-141616162D01*
X104666132Y-141683856D01*
X104721776Y-141735819D01*
X104764452Y-141773577D01*
X104795756Y-141798657D01*
X104817282Y-141812586D01*
X104830625Y-141816889D01*
X104853125Y-141815586D01*
X104865756Y-141806068D01*
X104867934Y-141780027D01*
X104862697Y-141729159D01*
X104859086Y-141697133D01*
X104854061Y-141643602D01*
X104852037Y-141608008D01*
X104851045Y-141595738D01*
X104841386Y-141582596D01*
X104814703Y-141578241D01*
X104762902Y-141580142D01*
X104749676Y-141580887D01*
X104696733Y-141580047D01*
X104659073Y-141568413D01*
X104632529Y-141549521D01*
X105008974Y-141549521D01*
X105014504Y-141612185D01*
X105017058Y-141640617D01*
X105025018Y-141718242D01*
X105032861Y-141769369D01*
X105042031Y-141799311D01*
X105053973Y-141813380D01*
X105070129Y-141816889D01*
X105084656Y-141819279D01*
X105094289Y-141830698D01*
X105099672Y-141857245D01*
X105102015Y-141905014D01*
X105102526Y-141980102D01*
X105102526Y-142143315D01*
X105155948Y-142196571D01*
X105286342Y-142326560D01*
X105470158Y-142509806D01*
X105470158Y-142368337D01*
X106472790Y-142368337D01*
X106472790Y-142685837D01*
X105650827Y-142685837D01*
X105929589Y-142974093D01*
X105982984Y-143029148D01*
X106056817Y-143104720D01*
X106120929Y-143169682D01*
X106171961Y-143220660D01*
X106206557Y-143254281D01*
X106221357Y-143267174D01*
X106226983Y-143263618D01*
X106253363Y-143239718D01*
X106298849Y-143195462D01*
X106361012Y-143133308D01*
X106437422Y-143055715D01*
X106525649Y-142965140D01*
X106623262Y-142864041D01*
X106727833Y-142754875D01*
X106832940Y-142644564D01*
X106935974Y-142535846D01*
X107019530Y-142446736D01*
X107085654Y-142374871D01*
X107136387Y-142317889D01*
X107173775Y-142273428D01*
X107199860Y-142239125D01*
X107216687Y-142212617D01*
X107226298Y-142191542D01*
X107230739Y-142173539D01*
X107231916Y-142164769D01*
X107237136Y-142116447D01*
X107243742Y-142045307D01*
X107251008Y-141959461D01*
X107258207Y-141867021D01*
X107260648Y-141834825D01*
X107267701Y-141747836D01*
X107274425Y-141672803D01*
X107280160Y-141616855D01*
X107284240Y-141587120D01*
X107292242Y-141549521D01*
X105008974Y-141549521D01*
X104632529Y-141549521D01*
X104621956Y-141541996D01*
X104615563Y-141536435D01*
X104563285Y-141469087D01*
X104542581Y-141399126D01*
X104995481Y-141399126D01*
X106875306Y-141399126D01*
X107157921Y-141399126D01*
X107233706Y-141399126D01*
X107256412Y-141398966D01*
X107290054Y-141396042D01*
X107299766Y-141386570D01*
X107292227Y-141366867D01*
X107289999Y-141363111D01*
X107264990Y-141334223D01*
X107228757Y-141302163D01*
X107192613Y-141276160D01*
X107167874Y-141265442D01*
X107165650Y-141267136D01*
X107160131Y-141290410D01*
X107157921Y-141332284D01*
X107157921Y-141399126D01*
X106875306Y-141399126D01*
X106870397Y-141278607D01*
X106865487Y-141158088D01*
X106765224Y-141137948D01*
X106714943Y-141128814D01*
X106630975Y-141116025D01*
X106552165Y-141106376D01*
X106439368Y-141094945D01*
X106439368Y-141232021D01*
X105670684Y-141232021D01*
X105670684Y-141111196D01*
X105574599Y-141122665D01*
X105427787Y-141147246D01*
X105280032Y-141191689D01*
X105157814Y-141253662D01*
X105059062Y-141334013D01*
X104995481Y-141399126D01*
X104542581Y-141399126D01*
X104540281Y-141391354D01*
X104547328Y-141309811D01*
X104585203Y-141231034D01*
X104588868Y-141226129D01*
X104639486Y-141183927D01*
X104705474Y-141158965D01*
X104776607Y-141152325D01*
X104842664Y-141165092D01*
X104893419Y-141198350D01*
X104910604Y-141215329D01*
X104927345Y-141219444D01*
X104951318Y-141206715D01*
X104991799Y-141174932D01*
X105004219Y-141165164D01*
X105100111Y-141103511D01*
X105213715Y-141048684D01*
X105306630Y-141014784D01*
X105804368Y-141014784D01*
X105804368Y-141098337D01*
X106305684Y-141098337D01*
X106305684Y-141014784D01*
X105804368Y-141014784D01*
X105306630Y-141014784D01*
X105334453Y-141004633D01*
X105451746Y-140975306D01*
X105555017Y-140964652D01*
X105565988Y-140964568D01*
X105626970Y-140958631D01*
X105660460Y-140941985D01*
X105670684Y-140912733D01*
X105671885Y-140903517D01*
X105678449Y-140895591D01*
X105694391Y-140889789D01*
X105723719Y-140885781D01*
X105770440Y-140883239D01*
X105838559Y-140881830D01*
X105932086Y-140881228D01*
X106055026Y-140881100D01*
X106170219Y-140881325D01*
X106268126Y-140882235D01*
X106339800Y-140884069D01*
X106389001Y-140887066D01*
X106419490Y-140891463D01*
X106435025Y-140897498D01*
X106439368Y-140905408D01*
X106453653Y-140924832D01*
X106493678Y-140937227D01*
X106508997Y-140939396D01*
X106561230Y-140947030D01*
X106630737Y-140957378D01*
X106706737Y-140968840D01*
X106748651Y-140974675D01*
X106809992Y-140980994D01*
X106853273Y-140982518D01*
X106871057Y-140978797D01*
X106874094Y-140976373D01*
X106902130Y-140970385D01*
X106952564Y-140966217D01*
X107017274Y-140964652D01*
X107157921Y-140964652D01*
X107157937Y-141014784D01*
X107157938Y-141018962D01*
X107158595Y-141036172D01*
X107167141Y-141065067D01*
X107191466Y-141089572D01*
X107238918Y-141118743D01*
X107280573Y-141145393D01*
X107343989Y-141196560D01*
X107401460Y-141254000D01*
X107445422Y-141309879D01*
X107468311Y-141356362D01*
X107473919Y-141374274D01*
X107484309Y-141386570D01*
X107487812Y-141390716D01*
X107516445Y-141397683D01*
G37*
D14*
X107516445Y-141397683D02*
X107569141Y-141399126D01*
X107659237Y-141399126D01*
X107659237Y-141549521D01*
X107447228Y-141549521D01*
X107427433Y-141785783D01*
X107424775Y-141818083D01*
X107418583Y-141898940D01*
X107414208Y-141964735D01*
X107412030Y-142009391D01*
X107412426Y-142026833D01*
X107418185Y-142021819D01*
X107444462Y-141995683D01*
X107489888Y-141949358D01*
X107552166Y-141885247D01*
X107628997Y-141805750D01*
X107718080Y-141713269D01*
X107817119Y-141610206D01*
X107923814Y-141498962D01*
X108035865Y-141381938D01*
X108150975Y-141261536D01*
X108266844Y-141140158D01*
X108381174Y-141020204D01*
X108491666Y-140904076D01*
X108596021Y-140794175D01*
X108691940Y-140692904D01*
X108777124Y-140602663D01*
X108849275Y-140525853D01*
X108978194Y-140388139D01*
X108978781Y-140505452D01*
X108979368Y-140622764D01*
X108181286Y-141462085D01*
X107383204Y-142301407D01*
X107367250Y-142492706D01*
X107303419Y-143258128D01*
X107292138Y-143393887D01*
X107278140Y-143563754D01*
X107265220Y-143722105D01*
X107253627Y-143865828D01*
X107243607Y-143991810D01*
X107235407Y-144096938D01*
X107229274Y-144178101D01*
X107225456Y-144232186D01*
X107224199Y-144256080D01*
X107227517Y-144267029D01*
X107242429Y-144290671D01*
X107270709Y-144326303D01*
X107284358Y-144341877D01*
X107313864Y-144375548D01*
X107373399Y-144440028D01*
X107450820Y-144521368D01*
X107547632Y-144621191D01*
X107665342Y-144741120D01*
X107805454Y-144882779D01*
X107897628Y-144975736D01*
X108026119Y-145105395D01*
X108154159Y-145234679D01*
X108277900Y-145359697D01*
X108393492Y-145476559D01*
X108497085Y-145581374D01*
X108584831Y-145670252D01*
X108652881Y-145739302D01*
X108919617Y-146010357D01*
X108871169Y-146060926D01*
X108859743Y-146072319D01*
X108826035Y-146100297D01*
X108802910Y-146111495D01*
X108784805Y-146101935D01*
X108751145Y-146073249D01*
X108710792Y-146032120D01*
X108686230Y-146006142D01*
X108640423Y-145958704D01*
X108575683Y-145892166D01*
X108494295Y-145808863D01*
X108398545Y-145711128D01*
X108290721Y-145601295D01*
X108173108Y-145481696D01*
X108047992Y-145354666D01*
X107917659Y-145222538D01*
X107196831Y-144492332D01*
X107167469Y-144871617D01*
X107161068Y-144952572D01*
X107151721Y-145061393D01*
X107143290Y-145143817D01*
X107135151Y-145204175D01*
X107126679Y-145246800D01*
X107117250Y-145276024D01*
X107106237Y-145296180D01*
X107090825Y-145324350D01*
X107078143Y-145376139D01*
X107074368Y-145450752D01*
X107074368Y-145560047D01*
X106773579Y-145560047D01*
X106773579Y-145326100D01*
X105649832Y-145326100D01*
X105584875Y-145399895D01*
X105567110Y-145419111D01*
X105470831Y-145496312D01*
X105362049Y-145543839D01*
X105244262Y-145560047D01*
X105140327Y-145551454D01*
X105022770Y-145515228D01*
X104922134Y-145450482D01*
X104902520Y-145431978D01*
X104853503Y-145372075D01*
X104810497Y-145302293D01*
X104779658Y-145233509D01*
X104767141Y-145176602D01*
X104766899Y-145168341D01*
X104765099Y-145138071D01*
X104760392Y-145117163D01*
X104750544Y-145107269D01*
X104733323Y-145110044D01*
X104706494Y-145127140D01*
X104667824Y-145160210D01*
X104615080Y-145210907D01*
X104546028Y-145280885D01*
X104458434Y-145371797D01*
X104350065Y-145485295D01*
X104292342Y-145545880D01*
X104195855Y-145647318D01*
X104104568Y-145743489D01*
X104022059Y-145830613D01*
X103951906Y-145904911D01*
X103897685Y-145962603D01*
X103862974Y-145999910D01*
X103768092Y-146103139D01*
X103709449Y-146044652D01*
X103650805Y-145986166D01*
X104376179Y-145225837D01*
X104421916Y-145177863D01*
X104584633Y-145006540D01*
X104724313Y-144858338D01*
X104841373Y-144732798D01*
X104936233Y-144629461D01*
X105003309Y-144554567D01*
X105277947Y-144554567D01*
X105280106Y-144572189D01*
X105280483Y-144574030D01*
X105298480Y-144615771D01*
X105334428Y-144635220D01*
X105445237Y-144676683D01*
X105543963Y-144745756D01*
X105621611Y-144837124D01*
X105674828Y-144946795D01*
X105700258Y-145070773D01*
X105708681Y-145175705D01*
X106970482Y-145175705D01*
X106979280Y-145138106D01*
X106980836Y-145128879D01*
X106985672Y-145087618D01*
X106992271Y-145020904D01*
X107000142Y-144934053D01*
X107008797Y-144832377D01*
X107017743Y-144721192D01*
X107047409Y-144341877D01*
X106647532Y-143935798D01*
X106574187Y-143861561D01*
X106484447Y-143771437D01*
X106403940Y-143691375D01*
X106335488Y-143624142D01*
X106281917Y-143572510D01*
X106246052Y-143539246D01*
X106230715Y-143527121D01*
X106220431Y-143532914D01*
X106189801Y-143559275D01*
X106143705Y-143603309D01*
X106086265Y-143661044D01*
X106021605Y-143728511D01*
X106004738Y-143746404D01*
X105929107Y-143826439D01*
X105838984Y-143921577D01*
X105741155Y-144024667D01*
X105642405Y-144128556D01*
X105549520Y-144226093D01*
X105543940Y-144231946D01*
X105457584Y-144322814D01*
X105391690Y-144393177D01*
X105343651Y-144446383D01*
X105310863Y-144485777D01*
X105290720Y-144514708D01*
X105280616Y-144536522D01*
X105277947Y-144554567D01*
X105003309Y-144554567D01*
X105009311Y-144547866D01*
X105061026Y-144487555D01*
X105091796Y-144448066D01*
X105102040Y-144428942D01*
X105102041Y-144428829D01*
X105100636Y-144404994D01*
X105096531Y-144351567D01*
X105090048Y-144272184D01*
X105081508Y-144170480D01*
X105071233Y-144050093D01*
X105059544Y-143914657D01*
X105046763Y-143767811D01*
X105033212Y-143613190D01*
X105019212Y-143454430D01*
X105005085Y-143295168D01*
X104991153Y-143139041D01*
X104977736Y-142989683D01*
X104965157Y-142850733D01*
X104953738Y-142725826D01*
X104943799Y-142618598D01*
X104935662Y-142532687D01*
X104929650Y-142471727D01*
X104926083Y-142439356D01*
X104918891Y-142385138D01*
X105090573Y-142385138D01*
X105092772Y-142426230D01*
X105097611Y-142495335D01*
X105104848Y-142589470D01*
X105114241Y-142705653D01*
X105125547Y-142840899D01*
X105138523Y-142992227D01*
X105152929Y-143156654D01*
X105168521Y-143331197D01*
X105180710Y-143465806D01*
X105195976Y-143632745D01*
X105210269Y-143787218D01*
X105223305Y-143926249D01*
X105234800Y-144046864D01*
X105244470Y-144146089D01*
X105252030Y-144220948D01*
X105257197Y-144268467D01*
X105259686Y-144285672D01*
X105267236Y-144280342D01*
X105294922Y-144254178D01*
X105339909Y-144209237D01*
X105399100Y-144148791D01*
X105469399Y-144076109D01*
X105547708Y-143994464D01*
X105630930Y-143907126D01*
X105715969Y-143817367D01*
X105799727Y-143728458D01*
X105879107Y-143643670D01*
X105951013Y-143566273D01*
X106012347Y-143499541D01*
X106060013Y-143446742D01*
X106090913Y-143411150D01*
X106099941Y-143398786D01*
X106341574Y-143398786D01*
X106707971Y-143764899D01*
X106797569Y-143854279D01*
X106882013Y-143937920D01*
X106947427Y-144001627D01*
X106996208Y-144047468D01*
X107030753Y-144077509D01*
X107053459Y-144093818D01*
X107066722Y-144098462D01*
X107072940Y-144093508D01*
X107074509Y-144081023D01*
X107075515Y-144060963D01*
X107079140Y-144009312D01*
X107085130Y-143930920D01*
X107093198Y-143829359D01*
X107103055Y-143708202D01*
X107114413Y-143571021D01*
X107126984Y-143421387D01*
X107140480Y-143262871D01*
X107152395Y-143123163D01*
X107164811Y-142976014D01*
X107175943Y-142842405D01*
X107185526Y-142725628D01*
X107193290Y-142628978D01*
X107198969Y-142555745D01*
X107202297Y-142509224D01*
X107203004Y-142492706D01*
X107202444Y-142493016D01*
X107186663Y-142508223D01*
X107151606Y-142543903D01*
X107100363Y-142596820D01*
X107036019Y-142663739D01*
X106961664Y-142741423D01*
X106880385Y-142826636D01*
X106795270Y-142916141D01*
X106709406Y-143006702D01*
X106625881Y-143095083D01*
X106547784Y-143178048D01*
X106478202Y-143252360D01*
X106344141Y-143396034D01*
X106341574Y-143398786D01*
X106099941Y-143398786D01*
X106101951Y-143396034D01*
X106091131Y-143381385D01*
X106059674Y-143346322D01*
X106010503Y-143293865D01*
X105946544Y-143226972D01*
X105870723Y-143148599D01*
X105785967Y-143061703D01*
X105695202Y-142969241D01*
X105601356Y-142874169D01*
X105507354Y-142779445D01*
X105416124Y-142688024D01*
X105330591Y-142602865D01*
X105253683Y-142526923D01*
X105188326Y-142463156D01*
X105137446Y-142414520D01*
X105103970Y-142383972D01*
X105090824Y-142374468D01*
X105090573Y-142385138D01*
X104918891Y-142385138D01*
X104916663Y-142368337D01*
X104551079Y-142368337D01*
X104550870Y-142234652D01*
X104684763Y-142234652D01*
X104793382Y-142234652D01*
X104803045Y-142234644D01*
X104857604Y-142233480D01*
X104887276Y-142228502D01*
X104899571Y-142217077D01*
X104902000Y-142196571D01*
X104891301Y-142166429D01*
X104854654Y-142116287D01*
X104793382Y-142050837D01*
X104684763Y-141943184D01*
X104684763Y-142234652D01*
X104550870Y-142234652D01*
X104550641Y-142088435D01*
X104550204Y-141808534D01*
X103949885Y-141198600D01*
X103349567Y-140588666D01*
X103348744Y-140472937D01*
X103347921Y-140357210D01*
X104067969Y-141087049D01*
X104137564Y-141157544D01*
X104281975Y-141303428D01*
X104405442Y-141427475D01*
X104509560Y-141531211D01*
X104595925Y-141616162D01*
X104666132Y-141683856D01*
X104721776Y-141735819D01*
X104764452Y-141773577D01*
X104795756Y-141798657D01*
X104817282Y-141812586D01*
X104830625Y-141816889D01*
X104853125Y-141815586D01*
X104865756Y-141806068D01*
X104867934Y-141780027D01*
X104862697Y-141729159D01*
X104859086Y-141697133D01*
X104854061Y-141643602D01*
X104852037Y-141608008D01*
X104851045Y-141595738D01*
X104841386Y-141582596D01*
X104814703Y-141578241D01*
X104762902Y-141580142D01*
X104749676Y-141580887D01*
X104696733Y-141580047D01*
X104659073Y-141568413D01*
X104632529Y-141549521D01*
X105008974Y-141549521D01*
X105014504Y-141612185D01*
X105017058Y-141640617D01*
X105025018Y-141718242D01*
X105032861Y-141769369D01*
X105042031Y-141799311D01*
X105053973Y-141813380D01*
X105070129Y-141816889D01*
X105084656Y-141819279D01*
X105094289Y-141830698D01*
X105099672Y-141857245D01*
X105102015Y-141905014D01*
X105102526Y-141980102D01*
X105102526Y-142143315D01*
X105155948Y-142196571D01*
X105286342Y-142326560D01*
X105470158Y-142509806D01*
X105470158Y-142368337D01*
X106472790Y-142368337D01*
X106472790Y-142685837D01*
X105650827Y-142685837D01*
X105929589Y-142974093D01*
X105982984Y-143029148D01*
X106056817Y-143104720D01*
X106120929Y-143169682D01*
X106171961Y-143220660D01*
X106206557Y-143254281D01*
X106221357Y-143267174D01*
X106226983Y-143263618D01*
X106253363Y-143239718D01*
X106298849Y-143195462D01*
X106361012Y-143133308D01*
X106437422Y-143055715D01*
X106525649Y-142965140D01*
X106623262Y-142864041D01*
X106727833Y-142754875D01*
X106832940Y-142644564D01*
X106935974Y-142535846D01*
X107019530Y-142446736D01*
X107085654Y-142374871D01*
X107136387Y-142317889D01*
X107173775Y-142273428D01*
X107199860Y-142239125D01*
X107216687Y-142212617D01*
X107226298Y-142191542D01*
X107230739Y-142173539D01*
X107231916Y-142164769D01*
X107237136Y-142116447D01*
X107243742Y-142045307D01*
X107251008Y-141959461D01*
X107258207Y-141867021D01*
X107260648Y-141834825D01*
X107267701Y-141747836D01*
X107274425Y-141672803D01*
X107280160Y-141616855D01*
X107284240Y-141587120D01*
X107292242Y-141549521D01*
X105008974Y-141549521D01*
X104632529Y-141549521D01*
X104621956Y-141541996D01*
X104615563Y-141536435D01*
X104563285Y-141469087D01*
X104542581Y-141399126D01*
X104995481Y-141399126D01*
X106875306Y-141399126D01*
X107157921Y-141399126D01*
X107233706Y-141399126D01*
X107256412Y-141398966D01*
X107290054Y-141396042D01*
X107299766Y-141386570D01*
X107292227Y-141366867D01*
X107289999Y-141363111D01*
X107264990Y-141334223D01*
X107228757Y-141302163D01*
X107192613Y-141276160D01*
X107167874Y-141265442D01*
X107165650Y-141267136D01*
X107160131Y-141290410D01*
X107157921Y-141332284D01*
X107157921Y-141399126D01*
X106875306Y-141399126D01*
X106870397Y-141278607D01*
X106865487Y-141158088D01*
X106765224Y-141137948D01*
X106714943Y-141128814D01*
X106630975Y-141116025D01*
X106552165Y-141106376D01*
X106439368Y-141094945D01*
X106439368Y-141232021D01*
X105670684Y-141232021D01*
X105670684Y-141111196D01*
X105574599Y-141122665D01*
X105427787Y-141147246D01*
X105280032Y-141191689D01*
X105157814Y-141253662D01*
X105059062Y-141334013D01*
X104995481Y-141399126D01*
X104542581Y-141399126D01*
X104540281Y-141391354D01*
X104547328Y-141309811D01*
X104585203Y-141231034D01*
X104588868Y-141226129D01*
X104639486Y-141183927D01*
X104705474Y-141158965D01*
X104776607Y-141152325D01*
X104842664Y-141165092D01*
X104893419Y-141198350D01*
X104910604Y-141215329D01*
X104927345Y-141219444D01*
X104951318Y-141206715D01*
X104991799Y-141174932D01*
X105004219Y-141165164D01*
X105100111Y-141103511D01*
X105213715Y-141048684D01*
X105306630Y-141014784D01*
X105804368Y-141014784D01*
X105804368Y-141098337D01*
X106305684Y-141098337D01*
X106305684Y-141014784D01*
X105804368Y-141014784D01*
X105306630Y-141014784D01*
X105334453Y-141004633D01*
X105451746Y-140975306D01*
X105555017Y-140964652D01*
X105565988Y-140964568D01*
X105626970Y-140958631D01*
X105660460Y-140941985D01*
X105670684Y-140912733D01*
X105671885Y-140903517D01*
X105678449Y-140895591D01*
X105694391Y-140889789D01*
X105723719Y-140885781D01*
X105770440Y-140883239D01*
X105838559Y-140881830D01*
X105932086Y-140881228D01*
X106055026Y-140881100D01*
X106170219Y-140881325D01*
X106268126Y-140882235D01*
X106339800Y-140884069D01*
X106389001Y-140887066D01*
X106419490Y-140891463D01*
X106435025Y-140897498D01*
X106439368Y-140905408D01*
X106453653Y-140924832D01*
X106493678Y-140937227D01*
X106508997Y-140939396D01*
X106561230Y-140947030D01*
X106630737Y-140957378D01*
X106706737Y-140968840D01*
X106748651Y-140974675D01*
X106809992Y-140980994D01*
X106853273Y-140982518D01*
X106871057Y-140978797D01*
X106874094Y-140976373D01*
X106902130Y-140970385D01*
X106952564Y-140966217D01*
X107017274Y-140964652D01*
X107157921Y-140964652D01*
X107157937Y-141014784D01*
X107157938Y-141018962D01*
X107158595Y-141036172D01*
X107167141Y-141065067D01*
X107191466Y-141089572D01*
X107238918Y-141118743D01*
X107280573Y-141145393D01*
X107343989Y-141196560D01*
X107401460Y-141254000D01*
X107445422Y-141309879D01*
X107468311Y-141356362D01*
X107473919Y-141374274D01*
X107484309Y-141386570D01*
X107487812Y-141390716D01*
X107516445Y-141397683D01*
G36*
X108528184Y-148384126D02*
G01*
X103849237Y-148384126D01*
X103849237Y-147231100D01*
X108528184Y-147231100D01*
X108528184Y-148384126D01*
G37*
X108528184Y-148384126D02*
X103849237Y-148384126D01*
X103849237Y-147231100D01*
X108528184Y-147231100D01*
X108528184Y-148384126D01*
D15*
%TO.C,U7*%
X51232000Y-118249800D02*
X51232000Y-118249800D01*
X119147000Y-138899800D02*
X119147000Y-138899800D01*
D16*
X129657000Y-128824800D02*
X129657000Y-128824800D01*
D15*
X51232000Y-138899800D02*
X51232000Y-138899800D01*
X128282000Y-118249800D02*
X63897000Y-118249800D01*
D16*
X129557000Y-128824800D02*
X129557000Y-128824800D01*
D15*
X119147000Y-138899800D02*
X128282000Y-138899800D01*
X63897000Y-118249800D02*
X128282000Y-118249800D01*
X60147000Y-118249800D02*
X51232000Y-118249800D01*
X51232000Y-138899800D02*
X51232000Y-118249800D01*
X51232000Y-118249800D02*
X51232000Y-138899800D01*
X51232000Y-118249800D02*
X51232000Y-118249800D01*
X128282000Y-138899800D02*
X128282000Y-138899800D01*
X128282000Y-118249800D02*
X128282000Y-118249800D01*
X63897000Y-118249800D02*
X63897000Y-118249800D01*
X128282000Y-118249800D02*
X128282000Y-118249800D01*
X51232000Y-138899800D02*
X115397000Y-138899800D01*
X128282000Y-118249800D02*
X128282000Y-138899800D01*
X60147000Y-118249800D02*
X60147000Y-118249800D01*
X115397000Y-138899800D02*
X51232000Y-138899800D01*
X128282000Y-138899800D02*
X128282000Y-138899800D01*
X51232000Y-138899800D02*
X51232000Y-138899800D01*
X128282000Y-138899800D02*
X119147000Y-138899800D01*
X115397000Y-138899800D02*
X115397000Y-138899800D01*
D16*
X129657000Y-128824800D02*
X129657000Y-128824800D01*
D15*
X128282000Y-138899800D02*
X128282000Y-118249800D01*
X51232000Y-118249800D02*
X60147000Y-118249800D01*
D16*
X129557000Y-128824800D02*
G75*
G03*
X129657000Y-128824800I50000J0D01*
G01*
X129557000Y-128824800D02*
G75*
G03*
X129657000Y-128824800I50000J0D01*
G01*
X129657000Y-128824800D02*
G75*
G03*
X129557000Y-128824800I-50000J0D01*
G01*
D17*
%TO.C,R11*%
X59413824Y-85764900D02*
X58904376Y-85764900D01*
X59413824Y-84719900D02*
X58904376Y-84719900D01*
%TO.C,R10*%
X59411324Y-83170500D02*
X58901876Y-83170500D01*
X59411324Y-84215500D02*
X58901876Y-84215500D01*
%TO.C,R5*%
X59413824Y-81091300D02*
X58904376Y-81091300D01*
X59413824Y-80046300D02*
X58904376Y-80046300D01*
%TO.C,R14*%
X59413824Y-79541900D02*
X58904376Y-79541900D01*
X59413824Y-78496900D02*
X58904376Y-78496900D01*
%TO.C,R15*%
X59411324Y-87288900D02*
X58901876Y-87288900D01*
X59411324Y-86243900D02*
X58901876Y-86243900D01*
%TO.C,R7*%
X59413824Y-81570300D02*
X58904376Y-81570300D01*
X59413824Y-82615300D02*
X58904376Y-82615300D01*
%TO.C,C26*%
X65436533Y-83263200D02*
X65729067Y-83263200D01*
X65436533Y-82243200D02*
X65729067Y-82243200D01*
%TD*%
%LPC*%
D18*
%TO.C,J4*%
X132549800Y-63195200D03*
D19*
X126961800Y-58369200D03*
X130009800Y-56083200D03*
%TD*%
D20*
%TO.C,RV1*%
X122162000Y-110439200D03*
X117082000Y-112979200D03*
X122162000Y-115519200D03*
%TD*%
D21*
%TO.C,JP2*%
X133197600Y-130240800D03*
D22*
X133197600Y-132780800D03*
X133197600Y-135320800D03*
%TD*%
D23*
%TO.C,S3*%
X82613000Y-145790500D03*
X78613000Y-145790500D03*
X74613000Y-145790500D03*
D24*
X84613000Y-141540500D03*
X84613000Y-147540500D03*
X72613000Y-147540500D03*
X72613000Y-141540500D03*
%TD*%
D25*
%TO.C,U4*%
X70510400Y-99161600D03*
X70510400Y-111861600D03*
D26*
X72161400Y-107543600D03*
X72161400Y-103479600D03*
D27*
X84480400Y-97891600D03*
X84480400Y-100431600D03*
X84480400Y-113131600D03*
X84480400Y-110591600D03*
X84480400Y-108051600D03*
X84480400Y-105511600D03*
X84480400Y-102971600D03*
%TD*%
D21*
%TO.C,J8*%
X120167400Y-53721000D03*
D22*
X120167400Y-56261000D03*
X120167400Y-58801000D03*
X120167400Y-61341000D03*
X120167400Y-63881000D03*
X120167400Y-66421000D03*
%TD*%
D28*
%TO.C,J9*%
X142925200Y-129712600D03*
D29*
X142925200Y-127212600D03*
X142925200Y-125212600D03*
X142925200Y-122712600D03*
D30*
X145635200Y-132782600D03*
X145635200Y-119642600D03*
%TD*%
D31*
%TO.C,J11*%
X137490200Y-135229600D03*
D32*
X137490200Y-130149600D03*
%TD*%
D31*
%TO.C,J12*%
X138023600Y-124764800D03*
D32*
X138023600Y-119684800D03*
%TD*%
D33*
%TO.C,J7*%
X144940020Y-101959410D03*
D34*
X144940020Y-106958130D03*
X144940020Y-111959390D03*
%TD*%
D35*
%TO.C,H4*%
X55000000Y-145000000D03*
%TD*%
D36*
%TO.C,U1*%
X70512600Y-55956200D03*
%TD*%
D35*
%TO.C,H3*%
X145000000Y-145000000D03*
%TD*%
D33*
%TO.C,J6*%
X145008600Y-85496400D03*
D34*
X145008600Y-90495120D03*
X145008600Y-95496380D03*
%TD*%
D37*
%TO.C,S2*%
X95148400Y-93980000D03*
X102768400Y-93980000D03*
X95148400Y-96520000D03*
X102768400Y-96520000D03*
X95148400Y-99060000D03*
X102768400Y-99060000D03*
X95148400Y-101600000D03*
X102768400Y-101600000D03*
X95148400Y-104140000D03*
X102768400Y-104140000D03*
X95148400Y-106680000D03*
X102768400Y-106680000D03*
X95148400Y-109220000D03*
X102768400Y-109220000D03*
X95148400Y-111760000D03*
X102768400Y-111760000D03*
%TD*%
D38*
%TO.C,J5*%
X136626600Y-64811200D03*
D39*
X142426600Y-64811200D03*
D40*
X139626600Y-60011200D03*
%TD*%
D41*
%TO.C,D4*%
X132994400Y-124612400D03*
D42*
X132994400Y-119532400D03*
%TD*%
D35*
%TO.C,H2*%
X145000000Y-55000000D03*
%TD*%
D43*
%TO.C,J10*%
X134584800Y-143123600D03*
X130184800Y-143123600D03*
%TD*%
D21*
%TO.C,J13*%
X126568200Y-112644000D03*
D22*
X126568200Y-115184000D03*
%TD*%
D35*
%TO.C,H1*%
X55000000Y-55000000D03*
%TD*%
D44*
%TO.C,C19*%
X99415600Y-140385800D03*
D29*
X101415600Y-140385800D03*
%TD*%
D45*
%TO.C,J2*%
X107010200Y-60934600D03*
X104510200Y-60934600D03*
X102510200Y-60934600D03*
X100010200Y-60934600D03*
D46*
X110080200Y-58224600D03*
X96940200Y-58224600D03*
%TD*%
D37*
%TO.C,S1*%
X74422000Y-68072000D03*
X82042000Y-68072000D03*
X74422000Y-70612000D03*
X82042000Y-70612000D03*
X74422000Y-73152000D03*
X82042000Y-73152000D03*
X74422000Y-75692000D03*
X82042000Y-75692000D03*
X74422000Y-78232000D03*
X82042000Y-78232000D03*
X74422000Y-80772000D03*
X82042000Y-80772000D03*
X74422000Y-83312000D03*
X82042000Y-83312000D03*
X74422000Y-85852000D03*
X82042000Y-85852000D03*
%TD*%
D47*
%TO.C,J1*%
X58200200Y-105308400D03*
D48*
X63200200Y-100308400D03*
X63200200Y-102808400D03*
X63200200Y-107808400D03*
X63200200Y-110308400D03*
D49*
X58200200Y-100308400D03*
X58200200Y-110308400D03*
X63200200Y-105308400D03*
%TD*%
D50*
%TO.C,U7*%
X125857000Y-128574800D03*
X53657000Y-128574800D03*
D51*
X117217000Y-136444800D03*
D52*
X53657000Y-136444800D03*
D51*
X62017000Y-120704800D03*
%TD*%
D53*
%TO.C,R11*%
X60071600Y-85242400D03*
X58246600Y-85242400D03*
%TD*%
%TO.C,R10*%
X60069100Y-83693000D03*
X58244100Y-83693000D03*
%TD*%
%TO.C,R5*%
X60071600Y-80568800D03*
X58246600Y-80568800D03*
%TD*%
%TO.C,R14*%
X60071600Y-79019400D03*
X58246600Y-79019400D03*
%TD*%
%TO.C,R15*%
X60069100Y-86766400D03*
X58244100Y-86766400D03*
%TD*%
%TO.C,R7*%
X60071600Y-82092800D03*
X58246600Y-82092800D03*
%TD*%
D54*
%TO.C,C26*%
X64720300Y-82753200D03*
X66445300Y-82753200D03*
%TD*%
M02*
