%TF.GenerationSoftware,KiCad,Pcbnew,(6.0.9)*%
%TF.CreationDate,2023-01-14T14:27:18+02:00*%
%TF.ProjectId,ESP32_power_meter_MP3_player_WIFI_radio_V2,45535033-325f-4706-9f77-65725f6d6574,rev?*%
%TF.SameCoordinates,Original*%
%TF.FileFunction,Soldermask,Top*%
%TF.FilePolarity,Negative*%
%FSLAX46Y46*%
G04 Gerber Fmt 4.6, Leading zero omitted, Abs format (unit mm)*
G04 Created by KiCad (PCBNEW (6.0.9)) date 2023-01-14 14:27:18*
%MOMM*%
%LPD*%
G01*
G04 APERTURE LIST*
G04 Aperture macros list*
%AMRoundRect*
0 Rectangle with rounded corners*
0 $1 Rounding radius*
0 $2 $3 $4 $5 $6 $7 $8 $9 X,Y pos of 4 corners*
0 Add a 4 corners polygon primitive as box body*
4,1,4,$2,$3,$4,$5,$6,$7,$8,$9,$2,$3,0*
0 Add four circle primitives for the rounded corners*
1,1,$1+$1,$2,$3*
1,1,$1+$1,$4,$5*
1,1,$1+$1,$6,$7*
1,1,$1+$1,$8,$9*
0 Add four rect primitives between the rounded corners*
20,1,$1+$1,$2,$3,$4,$5,0*
20,1,$1+$1,$4,$5,$6,$7,0*
20,1,$1+$1,$6,$7,$8,$9,0*
20,1,$1+$1,$8,$9,$2,$3,0*%
G04 Aperture macros list end*
%ADD10C,0.487311*%
%TA.AperFunction,Profile*%
%ADD11C,0.100000*%
%TD*%
%TA.AperFunction,Profile*%
%ADD12C,0.120000*%
%TD*%
%ADD13RoundRect,0.237500X-0.250000X-0.237500X0.250000X-0.237500X0.250000X0.237500X-0.250000X0.237500X0*%
%ADD14RoundRect,0.101600X-1.206500X1.206500X-1.206500X-1.206500X1.206500X-1.206500X1.206500X1.206500X0*%
%ADD15C,2.616200*%
%ADD16RoundRect,0.150000X-0.150000X0.825000X-0.150000X-0.825000X0.150000X-0.825000X0.150000X0.825000X0*%
%ADD17RoundRect,0.250000X-0.450000X0.350000X-0.450000X-0.350000X0.450000X-0.350000X0.450000X0.350000X0*%
%ADD18RoundRect,0.237500X-0.300000X-0.237500X0.300000X-0.237500X0.300000X0.237500X-0.300000X0.237500X0*%
%ADD19RoundRect,0.237500X-0.237500X0.300000X-0.237500X-0.300000X0.237500X-0.300000X0.237500X0.300000X0*%
%ADD20R,1.500000X1.500000*%
%ADD21RoundRect,0.250000X0.475000X-0.337500X0.475000X0.337500X-0.475000X0.337500X-0.475000X-0.337500X0*%
%ADD22R,1.700000X1.700000*%
%ADD23O,1.700000X1.700000*%
%ADD24RoundRect,0.237500X0.287500X0.237500X-0.287500X0.237500X-0.287500X-0.237500X0.287500X-0.237500X0*%
%ADD25R,1.200000X1.850000*%
%ADD26RoundRect,0.237500X0.237500X-0.250000X0.237500X0.250000X-0.237500X0.250000X-0.237500X-0.250000X0*%
%ADD27RoundRect,0.150000X0.150000X-0.587500X0.150000X0.587500X-0.150000X0.587500X-0.150000X-0.587500X0*%
%ADD28RoundRect,0.237500X-0.237500X0.287500X-0.237500X-0.287500X0.237500X-0.287500X0.237500X0.287500X0*%
%ADD29RoundRect,0.150000X0.587500X0.150000X-0.587500X0.150000X-0.587500X-0.150000X0.587500X-0.150000X0*%
%ADD30RoundRect,0.650000X-0.650000X0.650000X-0.650000X-0.650000X0.650000X-0.650000X0.650000X0.650000X0*%
%ADD31C,2.600000*%
%ADD32R,0.650000X1.560000*%
%ADD33R,1.500000X0.900000*%
%ADD34R,0.900000X1.500000*%
%ADD35R,0.900000X0.900000*%
%ADD36RoundRect,0.237500X0.237500X-0.300000X0.237500X0.300000X-0.237500X0.300000X-0.237500X-0.300000X0*%
%ADD37R,5.500000X2.000000*%
%ADD38R,1.800000X5.000000*%
%ADD39RoundRect,0.250000X-1.450000X0.312500X-1.450000X-0.312500X1.450000X-0.312500X1.450000X0.312500X0*%
%ADD40RoundRect,0.250000X0.262500X0.450000X-0.262500X0.450000X-0.262500X-0.450000X0.262500X-0.450000X0*%
%ADD41R,0.700000X1.000000*%
%ADD42R,1.300000X1.400000*%
%ADD43R,1.000000X0.950000*%
%ADD44R,1.400000X1.900000*%
%ADD45R,0.800000X1.500000*%
%ADD46R,0.300000X1.400000*%
%ADD47RoundRect,0.237500X-0.237500X0.250000X-0.237500X-0.250000X0.237500X-0.250000X0.237500X0.250000X0*%
%ADD48C,1.500000*%
%ADD49R,0.650000X1.500000*%
%ADD50R,1.800000X4.400000*%
%ADD51O,1.800000X4.000000*%
%ADD52O,4.000000X1.800000*%
%ADD53R,0.450000X1.500000*%
%ADD54R,1.500000X1.600000*%
%ADD55C,1.600000*%
%ADD56C,3.000000*%
%ADD57RoundRect,0.237500X0.250000X0.237500X-0.250000X0.237500X-0.250000X-0.237500X0.250000X-0.237500X0*%
%ADD58RoundRect,0.225000X-0.225000X-0.250000X0.225000X-0.250000X0.225000X0.250000X-0.225000X0.250000X0*%
%ADD59RoundRect,0.250000X-0.337500X-0.475000X0.337500X-0.475000X0.337500X0.475000X-0.337500X0.475000X0*%
%ADD60R,1.000000X0.700000*%
%ADD61R,1.600000X1.500000*%
%ADD62RoundRect,0.250000X-1.450000X0.337500X-1.450000X-0.337500X1.450000X-0.337500X1.450000X0.337500X0*%
%ADD63RoundRect,0.237500X0.300000X0.237500X-0.300000X0.237500X-0.300000X-0.237500X0.300000X-0.237500X0*%
%ADD64C,3.200000*%
%ADD65C,3.810000*%
%ADD66C,2.700000*%
%ADD67C,1.524000*%
%ADD68C,1.300000*%
%ADD69C,1.710000*%
%ADD70R,2.700000X0.800000*%
%ADD71RoundRect,0.250000X-0.475000X0.250000X-0.475000X-0.250000X0.475000X-0.250000X0.475000X0.250000X0*%
%ADD72RoundRect,0.250000X0.475000X-0.250000X0.475000X0.250000X-0.475000X0.250000X-0.475000X-0.250000X0*%
%ADD73RoundRect,0.237500X0.237500X-0.287500X0.237500X0.287500X-0.237500X0.287500X-0.237500X-0.287500X0*%
%ADD74C,1.440000*%
%ADD75R,1.950000X1.950000*%
%ADD76C,1.950000*%
%ADD77C,2.400000*%
%ADD78C,1.000000*%
%ADD79RoundRect,0.150000X0.825000X0.150000X-0.825000X0.150000X-0.825000X-0.150000X0.825000X-0.150000X0*%
%ADD80RoundRect,0.250000X-0.250000X-0.475000X0.250000X-0.475000X0.250000X0.475000X-0.250000X0.475000X0*%
%ADD81C,2.000000*%
%ADD82R,1.560000X0.650000*%
%ADD83RoundRect,0.650000X-0.650000X-0.650000X0.650000X-0.650000X0.650000X0.650000X-0.650000X0.650000X0*%
%ADD84R,2.400000X2.400000*%
%ADD85O,2.400000X2.400000*%
%ADD86C,1.980000*%
%ADD87C,5.325000*%
%ADD88C,3.585000*%
G04 APERTURE END LIST*
D10*
X112643655Y-73000000D02*
G75*
G03*
X112643655Y-73000000I-243655J0D01*
G01*
X112255966Y-124100000D02*
G75*
G03*
X112255966Y-124100000I-243655J0D01*
G01*
X78955966Y-57800000D02*
G75*
G03*
X78955966Y-57800000I-243655J0D01*
G01*
X107755966Y-124300000D02*
G75*
G03*
X107755966Y-124300000I-243655J0D01*
G01*
X77455966Y-51200000D02*
G75*
G03*
X77455966Y-51200000I-243655J0D01*
G01*
D11*
X149961600Y-145105552D02*
X149961600Y-54944997D01*
X54944997Y-50017244D02*
G75*
G03*
X50016884Y-54944848I-257J-4927856D01*
G01*
X149961593Y-54944997D02*
G75*
G03*
X145105552Y-50016884I-4856293J71297D01*
G01*
X145034000Y-149961584D02*
G75*
G03*
X149961600Y-145105552I70800J4856284D01*
G01*
X50038000Y-145054603D02*
X50016884Y-54944848D01*
X50038007Y-145054603D02*
G75*
G03*
X54894048Y-149982716I4856293J-71297D01*
G01*
X145034000Y-149961600D02*
X54894048Y-149982716D01*
X54944997Y-50017243D02*
X145105552Y-50016884D01*
D12*
%TO.C,J5*%
X140182000Y-77400000D02*
G75*
G03*
X140182000Y-77400000I-1000000J0D01*
G01*
X123530000Y-77400000D02*
G75*
G03*
X123530000Y-77400000I-1000000J0D01*
G01*
%TD*%
D13*
%TO.C,FB2*%
X78937500Y-139462500D03*
X80762500Y-139462500D03*
%TD*%
D14*
%TO.C,J12*%
X145350420Y-97200010D03*
D15*
X145350420Y-102198730D03*
X145350420Y-107199990D03*
%TD*%
D16*
%TO.C,U6*%
X111810000Y-114125000D03*
X110540000Y-114125000D03*
X109270000Y-114125000D03*
X108000000Y-114125000D03*
X106730000Y-114125000D03*
X105460000Y-114125000D03*
X104190000Y-114125000D03*
X104190000Y-119075000D03*
X105460000Y-119075000D03*
X106730000Y-119075000D03*
X108000000Y-119075000D03*
X109270000Y-119075000D03*
X110540000Y-119075000D03*
X111810000Y-119075000D03*
%TD*%
D17*
%TO.C,RR1*%
X88650000Y-135462500D03*
X88650000Y-137462500D03*
%TD*%
D18*
%TO.C,C15*%
X144937500Y-118800000D03*
X146662500Y-118800000D03*
%TD*%
D19*
%TO.C,C13*%
X117700000Y-93137500D03*
X117700000Y-94862500D03*
%TD*%
D13*
%TO.C,R19*%
X106100000Y-81800000D03*
X107925000Y-81800000D03*
%TD*%
D20*
%TO.C,TP4*%
X100600000Y-72800000D03*
%TD*%
D13*
%TO.C,R35*%
X115537500Y-125960000D03*
X117362500Y-125960000D03*
%TD*%
D21*
%TO.C,C23*%
X104800000Y-135137500D03*
X104800000Y-133062500D03*
%TD*%
D22*
%TO.C,J16*%
X55100000Y-101900000D03*
D23*
X55100000Y-104440000D03*
X55100000Y-106980000D03*
X55100000Y-109520000D03*
%TD*%
D24*
%TO.C,D3*%
X75475000Y-114000000D03*
X73725000Y-114000000D03*
%TD*%
D25*
%TO.C,FB1*%
X76650000Y-61950000D03*
X80950000Y-61950000D03*
%TD*%
D26*
%TO.C,R24*%
X119300000Y-94912500D03*
X119300000Y-93087500D03*
%TD*%
D27*
%TO.C,U8*%
X121250000Y-126537500D03*
X123150000Y-126537500D03*
X122200000Y-124662500D03*
%TD*%
D28*
%TO.C,D1*%
X130300000Y-109675000D03*
X130300000Y-111425000D03*
%TD*%
D29*
%TO.C,U1*%
X110737500Y-90550000D03*
X110737500Y-88650000D03*
X108862500Y-89600000D03*
%TD*%
D22*
%TO.C,J14*%
X84800000Y-144100000D03*
D23*
X84800000Y-146640000D03*
X82260000Y-144100000D03*
X82260000Y-146640000D03*
X79720000Y-144100000D03*
X79720000Y-146640000D03*
X77180000Y-144100000D03*
X77180000Y-146640000D03*
X74640000Y-144100000D03*
X74640000Y-146640000D03*
X72100000Y-144100000D03*
X72100000Y-146640000D03*
X69560000Y-144100000D03*
X69560000Y-146640000D03*
X67020000Y-144100000D03*
X67020000Y-146640000D03*
X64480000Y-144100000D03*
X64480000Y-146640000D03*
X61940000Y-144100000D03*
X61940000Y-146640000D03*
%TD*%
D30*
%TO.C,J10*%
X136600000Y-124860000D03*
D31*
X136600000Y-129940000D03*
%TD*%
D32*
%TO.C,U9*%
X86600000Y-136312500D03*
X85650000Y-136312500D03*
X84700000Y-136312500D03*
X84700000Y-139012500D03*
X85650000Y-139012500D03*
X86600000Y-139012500D03*
%TD*%
D19*
%TO.C,C27*%
X90650000Y-137600000D03*
X90650000Y-139325000D03*
%TD*%
D33*
%TO.C,U4*%
X91250000Y-51860000D03*
X91250000Y-53130000D03*
X91250000Y-54400000D03*
X91250000Y-55670000D03*
X91250000Y-56940000D03*
X91250000Y-58210000D03*
X91250000Y-59480000D03*
X91250000Y-60750000D03*
X91250000Y-62020000D03*
X91250000Y-63290000D03*
X91250000Y-64560000D03*
X91250000Y-65830000D03*
X91250000Y-67100000D03*
X91250000Y-68370000D03*
D34*
X93015000Y-69620000D03*
X94285000Y-69620000D03*
X95555000Y-69620000D03*
X96825000Y-69620000D03*
X98095000Y-69620000D03*
X99365000Y-69620000D03*
X100635000Y-69620000D03*
X101905000Y-69620000D03*
X103175000Y-69620000D03*
X104445000Y-69620000D03*
X105715000Y-69620000D03*
X106985000Y-69620000D03*
D33*
X108750000Y-68370000D03*
X108750000Y-67100000D03*
X108750000Y-65830000D03*
X108750000Y-64560000D03*
X108750000Y-63290000D03*
X108750000Y-62020000D03*
X108750000Y-60750000D03*
X108750000Y-59480000D03*
X108750000Y-58210000D03*
X108750000Y-56940000D03*
X108750000Y-55670000D03*
X108750000Y-54400000D03*
X108750000Y-53130000D03*
X108750000Y-51860000D03*
D35*
X97100000Y-58180000D03*
X97100000Y-60980000D03*
X98500000Y-60980000D03*
X98500000Y-58180000D03*
X97100000Y-59580000D03*
X99900000Y-60980000D03*
X98500000Y-59580000D03*
X99900000Y-59580000D03*
X99900000Y-58180000D03*
%TD*%
D22*
%TO.C,J13*%
X144000000Y-112925000D03*
D23*
X144000000Y-115465000D03*
%TD*%
D36*
%TO.C,C8*%
X66100000Y-119162500D03*
X66100000Y-117437500D03*
%TD*%
D37*
%TO.C,J5*%
X133086000Y-73352000D03*
D38*
X128260000Y-78940000D03*
X125974000Y-75892000D03*
%TD*%
D39*
%TO.C,F1*%
X80950000Y-64362500D03*
X80950000Y-68637500D03*
%TD*%
D36*
%TO.C,C17*%
X129500000Y-100062500D03*
X129500000Y-98337500D03*
%TD*%
D40*
%TO.C,R29*%
X133912500Y-134200000D03*
X132087500Y-134200000D03*
%TD*%
D36*
%TO.C,C6*%
X89200000Y-53232500D03*
X89200000Y-51507500D03*
%TD*%
D41*
%TO.C,SW2*%
X103350000Y-89300000D03*
X103350000Y-83300000D03*
X99650000Y-89300000D03*
X99650000Y-83300000D03*
%TD*%
D42*
%TO.C,J2*%
X130375000Y-66799000D03*
D43*
X128985000Y-67025000D03*
D42*
X124675000Y-66799000D03*
D44*
X131975000Y-53650000D03*
X118825000Y-52650000D03*
D45*
X123485000Y-55939000D03*
X124585000Y-56339000D03*
X125685000Y-55939000D03*
X126785000Y-55739000D03*
X127885000Y-55939000D03*
X128985000Y-55739000D03*
X130085000Y-55939000D03*
X131185000Y-55939000D03*
%TD*%
D26*
%TO.C,R13*%
X67600000Y-130312500D03*
X67600000Y-128487500D03*
%TD*%
D46*
%TO.C,IC2*%
X131100000Y-104600000D03*
X131600000Y-104600000D03*
X132100000Y-104600000D03*
X132600000Y-104600000D03*
X133100000Y-104600000D03*
X133100000Y-100200000D03*
X132600000Y-100200000D03*
X132100000Y-100200000D03*
X131600000Y-100200000D03*
X131100000Y-100200000D03*
%TD*%
D47*
%TO.C,R23*%
X132000000Y-130375000D03*
X132000000Y-132200000D03*
%TD*%
%TO.C,R40*%
X124050000Y-117537500D03*
X124050000Y-119362500D03*
%TD*%
D18*
%TO.C,C3*%
X109137500Y-92200000D03*
X110862500Y-92200000D03*
%TD*%
D13*
%TO.C,R37*%
X115537500Y-124400000D03*
X117362500Y-124400000D03*
%TD*%
D48*
%TO.C,S1*%
X95200000Y-99700000D03*
X87580000Y-99700000D03*
X95200000Y-97160000D03*
X87580000Y-97160000D03*
X95200000Y-94620000D03*
X87580000Y-94620000D03*
X95200000Y-92080000D03*
X87580000Y-92080000D03*
X95200000Y-89540000D03*
X87580000Y-89540000D03*
X95200000Y-87000000D03*
X87580000Y-87000000D03*
X95200000Y-84460000D03*
X87580000Y-84460000D03*
X95200000Y-81920000D03*
X87580000Y-81920000D03*
%TD*%
D49*
%TO.C,Q2*%
X126005000Y-130300000D03*
X124735000Y-130300000D03*
X123465000Y-130300000D03*
X122195000Y-130300000D03*
X122195000Y-135700000D03*
X123465000Y-135700000D03*
X124735000Y-135700000D03*
X126005000Y-135700000D03*
%TD*%
D14*
%TO.C,J9*%
X145350420Y-80600010D03*
D15*
X145350420Y-85598730D03*
X145350420Y-90599990D03*
%TD*%
D50*
%TO.C,J7*%
X135850000Y-65200000D03*
D51*
X141650000Y-65200000D03*
D52*
X138850000Y-60400000D03*
%TD*%
D13*
%TO.C,R44*%
X112487500Y-128350000D03*
X114312500Y-128350000D03*
%TD*%
D24*
%TO.C,D2*%
X127775000Y-98400000D03*
X126025000Y-98400000D03*
%TD*%
D26*
%TO.C,R27*%
X120800000Y-92162500D03*
X120800000Y-90337500D03*
%TD*%
D18*
%TO.C,C11*%
X106150000Y-86750000D03*
X107875000Y-86750000D03*
%TD*%
D20*
%TO.C,TP7*%
X81600000Y-57900000D03*
%TD*%
D47*
%TO.C,R12*%
X84400000Y-62300000D03*
X84400000Y-64125000D03*
%TD*%
D53*
%TO.C,IC1*%
X67625000Y-122950000D03*
X68275000Y-122950000D03*
X68925000Y-122950000D03*
X69575000Y-122950000D03*
X70225000Y-122950000D03*
X70875000Y-122950000D03*
X71525000Y-122950000D03*
X72175000Y-122950000D03*
X72825000Y-122950000D03*
X73475000Y-122950000D03*
X74125000Y-122950000D03*
X74775000Y-122950000D03*
X74775000Y-117050000D03*
X74125000Y-117050000D03*
X73475000Y-117050000D03*
X72825000Y-117050000D03*
X72175000Y-117050000D03*
X71525000Y-117050000D03*
X70875000Y-117050000D03*
X70225000Y-117050000D03*
X69575000Y-117050000D03*
X68925000Y-117050000D03*
X68275000Y-117050000D03*
X67625000Y-117050000D03*
%TD*%
D54*
%TO.C,J11*%
X141840000Y-133900000D03*
D55*
X141840000Y-131400000D03*
X141840000Y-129400000D03*
X141840000Y-126900000D03*
D56*
X144550000Y-136970000D03*
X144550000Y-123830000D03*
%TD*%
D26*
%TO.C,R18*%
X66700000Y-108212500D03*
X66700000Y-106387500D03*
%TD*%
D57*
%TO.C,R30*%
X146712500Y-120400000D03*
X144887500Y-120400000D03*
%TD*%
D58*
%TO.C,C30*%
X88675000Y-133862500D03*
X90225000Y-133862500D03*
%TD*%
D59*
%TO.C,C22*%
X106462500Y-127300000D03*
X108537500Y-127300000D03*
%TD*%
D20*
%TO.C,TP1*%
X109400000Y-122300000D03*
%TD*%
D26*
%TO.C,R22*%
X130400000Y-132200000D03*
X130400000Y-130375000D03*
%TD*%
D60*
%TO.C,SW1*%
X58400000Y-122750000D03*
X64400000Y-122750000D03*
X58400000Y-126450000D03*
X64400000Y-126450000D03*
%TD*%
D61*
%TO.C,J3*%
X71800000Y-60600000D03*
D55*
X69300000Y-60600000D03*
X67300000Y-60600000D03*
X64800000Y-60600000D03*
D56*
X74870000Y-57890000D03*
X61730000Y-57890000D03*
%TD*%
D18*
%TO.C,C20*%
X105475000Y-111600000D03*
X107200000Y-111600000D03*
%TD*%
D13*
%TO.C,R26*%
X133387500Y-96400000D03*
X135212500Y-96400000D03*
%TD*%
D20*
%TO.C,TP9*%
X83500000Y-51800000D03*
%TD*%
D62*
%TO.C,R42*%
X95600000Y-117662500D03*
X95600000Y-119337500D03*
%TD*%
D63*
%TO.C,C2*%
X114862500Y-92950000D03*
X113137500Y-92950000D03*
%TD*%
D64*
%TO.C,H4*%
X55000000Y-145000000D03*
%TD*%
D47*
%TO.C,R16*%
X98800000Y-95687500D03*
X98800000Y-97512500D03*
%TD*%
D57*
%TO.C,R25*%
X135212500Y-94800000D03*
X133387500Y-94800000D03*
%TD*%
D22*
%TO.C,JP1*%
X114075000Y-147000000D03*
D23*
X116615000Y-147000000D03*
X119155000Y-147000000D03*
%TD*%
D65*
%TO.C,U3*%
X66615000Y-83450000D03*
X66615000Y-96150000D03*
D66*
X68266000Y-91832000D03*
X68266000Y-87768000D03*
D67*
X80585000Y-82180000D03*
X80585000Y-84720000D03*
X80585000Y-97420000D03*
X80585000Y-94880000D03*
X80585000Y-92340000D03*
X80585000Y-89800000D03*
X80585000Y-87260000D03*
%TD*%
D47*
%TO.C,R17*%
X98800000Y-92287500D03*
X98800000Y-94112500D03*
%TD*%
D68*
%TO.C,S2*%
X96400000Y-140452500D03*
X100400000Y-140452500D03*
X104400000Y-140452500D03*
D69*
X94400000Y-144702500D03*
X94400000Y-138702500D03*
X106400000Y-138702500D03*
X106400000Y-144702500D03*
%TD*%
D28*
%TO.C,D4*%
X84400000Y-58887500D03*
X84400000Y-60637500D03*
%TD*%
D47*
%TO.C,R14*%
X67500000Y-125087500D03*
X67500000Y-126912500D03*
%TD*%
D70*
%TO.C,L1*%
X83050000Y-133762500D03*
X83050000Y-131562500D03*
%TD*%
D64*
%TO.C,H3*%
X145000000Y-145000000D03*
%TD*%
D63*
%TO.C,C10*%
X101312500Y-80300000D03*
X99587500Y-80300000D03*
%TD*%
D71*
%TO.C,C28*%
X86650000Y-131912500D03*
X86650000Y-133812500D03*
%TD*%
D72*
%TO.C,C26*%
X82650000Y-139412500D03*
X82650000Y-137512500D03*
%TD*%
D18*
%TO.C,C19*%
X108875000Y-111600000D03*
X110600000Y-111600000D03*
%TD*%
D13*
%TO.C,R32*%
X100175000Y-119550000D03*
X102000000Y-119550000D03*
%TD*%
D20*
%TO.C,TP3*%
X111900000Y-121600000D03*
%TD*%
D19*
%TO.C,C24*%
X129600000Y-117537500D03*
X129600000Y-119262500D03*
%TD*%
D18*
%TO.C,C14*%
X120837500Y-88750000D03*
X122562500Y-88750000D03*
%TD*%
D20*
%TO.C,TP2*%
X114600000Y-116800000D03*
%TD*%
D73*
%TO.C,D5*%
X127400000Y-112075000D03*
X127400000Y-110325000D03*
%TD*%
D47*
%TO.C,R9*%
X130300000Y-113107500D03*
X130300000Y-114932500D03*
%TD*%
D61*
%TO.C,J8*%
X127900000Y-140840000D03*
D55*
X130400000Y-140840000D03*
X132400000Y-140840000D03*
X134900000Y-140840000D03*
D56*
X137970000Y-143550000D03*
X124830000Y-143550000D03*
%TD*%
D22*
%TO.C,J4*%
X93250000Y-75900000D03*
D23*
X95790000Y-75900000D03*
X98330000Y-75900000D03*
X100870000Y-75900000D03*
X103410000Y-75900000D03*
X105950000Y-75900000D03*
%TD*%
D13*
%TO.C,R33*%
X100175000Y-117950000D03*
X102000000Y-117950000D03*
%TD*%
D57*
%TO.C,R43*%
X123112500Y-122800000D03*
X121287500Y-122800000D03*
%TD*%
D74*
%TO.C,RV1*%
X139500000Y-119000000D03*
X136960000Y-113920000D03*
X134420000Y-119000000D03*
%TD*%
D57*
%TO.C,R38*%
X117362500Y-122850000D03*
X115537500Y-122850000D03*
%TD*%
D59*
%TO.C,C25*%
X126062500Y-127600000D03*
X128137500Y-127600000D03*
%TD*%
D13*
%TO.C,R10*%
X125982500Y-100030000D03*
X127807500Y-100030000D03*
%TD*%
D26*
%TO.C,R21*%
X65100000Y-107212500D03*
X65100000Y-105387500D03*
%TD*%
D18*
%TO.C,C12*%
X106150000Y-85100000D03*
X107875000Y-85100000D03*
%TD*%
D26*
%TO.C,R36*%
X105400000Y-123012500D03*
X105400000Y-121187500D03*
%TD*%
D17*
%TO.C,RR2*%
X88650000Y-139262500D03*
X88650000Y-141262500D03*
%TD*%
D75*
%TO.C,J1*%
X55050000Y-89800000D03*
D76*
X60050000Y-84800000D03*
X60050000Y-87300000D03*
X60050000Y-92300000D03*
X60050000Y-94800000D03*
D77*
X55050000Y-84800000D03*
X55050000Y-94800000D03*
X60050000Y-89800000D03*
%TD*%
D63*
%TO.C,C18*%
X101937500Y-116350000D03*
X100212500Y-116350000D03*
%TD*%
D72*
%TO.C,C4*%
X78100000Y-84350000D03*
X78100000Y-82450000D03*
%TD*%
D64*
%TO.C,H2*%
X145000000Y-55000000D03*
%TD*%
D47*
%TO.C,R41*%
X125800000Y-113687500D03*
X125800000Y-115512500D03*
%TD*%
D13*
%TO.C,R31*%
X100175000Y-121150000D03*
X102000000Y-121150000D03*
%TD*%
D63*
%TO.C,C9*%
X77912500Y-68750000D03*
X76187500Y-68750000D03*
%TD*%
D46*
%TO.C,IC4*%
X127800000Y-117600000D03*
X127300000Y-117600000D03*
X126800000Y-117600000D03*
X126300000Y-117600000D03*
X125800000Y-117600000D03*
X125800000Y-122000000D03*
X126300000Y-122000000D03*
X126800000Y-122000000D03*
X127300000Y-122000000D03*
X127800000Y-122000000D03*
%TD*%
D78*
%TO.C,FID1*%
X138200000Y-55400000D03*
%TD*%
D79*
%TO.C,U2*%
X118075000Y-91245000D03*
X118075000Y-89975000D03*
X118075000Y-88705000D03*
X118075000Y-87435000D03*
X118075000Y-86165000D03*
X118075000Y-84895000D03*
X118075000Y-83625000D03*
X118075000Y-82355000D03*
X113125000Y-82355000D03*
X113125000Y-83625000D03*
X113125000Y-84895000D03*
X113125000Y-86165000D03*
X113125000Y-87435000D03*
X113125000Y-88705000D03*
X113125000Y-89975000D03*
X113125000Y-91245000D03*
%TD*%
D80*
%TO.C,C29*%
X88450000Y-132062500D03*
X90350000Y-132062500D03*
%TD*%
D81*
%TO.C,TP11*%
X113800000Y-69800000D03*
%TD*%
D57*
%TO.C,R11*%
X72092500Y-114060000D03*
X70267500Y-114060000D03*
%TD*%
%TO.C,R1*%
X112212500Y-94550000D03*
X110387500Y-94550000D03*
%TD*%
D39*
%TO.C,F2*%
X95700000Y-123762500D03*
X95700000Y-128037500D03*
%TD*%
D20*
%TO.C,TP10*%
X80000000Y-51500000D03*
%TD*%
D62*
%TO.C,R28*%
X138500000Y-96125000D03*
X138500000Y-97800000D03*
%TD*%
D64*
%TO.C,H1*%
X55000000Y-55000000D03*
%TD*%
D57*
%TO.C,R20*%
X107925000Y-83400000D03*
X106100000Y-83400000D03*
%TD*%
D80*
%TO.C,C1*%
X114000000Y-94800000D03*
X115900000Y-94800000D03*
%TD*%
D13*
%TO.C,R34*%
X100187500Y-114750000D03*
X102012500Y-114750000D03*
%TD*%
D21*
%TO.C,C5*%
X87400000Y-53407500D03*
X87400000Y-51332500D03*
%TD*%
D57*
%TO.C,R15*%
X100712500Y-99200000D03*
X98887500Y-99200000D03*
%TD*%
D22*
%TO.C,J15*%
X58800000Y-101900000D03*
D23*
X58800000Y-104440000D03*
X58800000Y-106980000D03*
X58800000Y-109520000D03*
%TD*%
D82*
%TO.C,U5*%
X69300000Y-66400000D03*
X69300000Y-65450000D03*
X69300000Y-64500000D03*
X66600000Y-64500000D03*
X66600000Y-66400000D03*
%TD*%
D73*
%TO.C,D6*%
X125800000Y-112075000D03*
X125800000Y-110325000D03*
%TD*%
D20*
%TO.C,TP5*%
X77400000Y-54100000D03*
%TD*%
D83*
%TO.C,J6*%
X114260000Y-142400000D03*
D31*
X119340000Y-142400000D03*
%TD*%
D49*
%TO.C,IC3*%
X106795000Y-134900000D03*
X108065000Y-134900000D03*
X109335000Y-134900000D03*
X110605000Y-134900000D03*
X110605000Y-129500000D03*
X109335000Y-129500000D03*
X108065000Y-129500000D03*
X106795000Y-129500000D03*
%TD*%
D84*
%TO.C,D7*%
X116787500Y-110070500D03*
D85*
X121867500Y-110070500D03*
%TD*%
D36*
%TO.C,C21*%
X120350000Y-83662500D03*
X120350000Y-81937500D03*
%TD*%
D47*
%TO.C,R39*%
X127400000Y-113687500D03*
X127400000Y-115512500D03*
%TD*%
D18*
%TO.C,C16*%
X131237500Y-98400000D03*
X132962500Y-98400000D03*
%TD*%
D81*
%TO.C,TP12*%
X112400000Y-51800000D03*
%TD*%
D86*
%TO.C,U7*%
X126040000Y-124870000D03*
X53840000Y-124870000D03*
D87*
X117400000Y-132740000D03*
D88*
X53840000Y-132740000D03*
D87*
X62200000Y-117000000D03*
%TD*%
D81*
%TO.C,TP13*%
X114400000Y-55000000D03*
%TD*%
M02*
