%TF.GenerationSoftware,KiCad,Pcbnew,(6.0.9)*%
%TF.CreationDate,2023-01-14T14:27:17+02:00*%
%TF.ProjectId,ESP32_power_meter_MP3_player_WIFI_radio_V2,45535033-325f-4706-9f77-65725f6d6574,rev?*%
%TF.SameCoordinates,Original*%
%TF.FileFunction,Legend,Bot*%
%TF.FilePolarity,Positive*%
%FSLAX46Y46*%
G04 Gerber Fmt 4.6, Leading zero omitted, Abs format (unit mm)*
G04 Created by KiCad (PCBNEW (6.0.9)) date 2023-01-14 14:27:17*
%MOMM*%
%LPD*%
G01*
G04 APERTURE LIST*
G04 Aperture macros list*
%AMRoundRect*
0 Rectangle with rounded corners*
0 $1 Rounding radius*
0 $2 $3 $4 $5 $6 $7 $8 $9 X,Y pos of 4 corners*
0 Add a 4 corners polygon primitive as box body*
4,1,4,$2,$3,$4,$5,$6,$7,$8,$9,$2,$3,0*
0 Add four circle primitives for the rounded corners*
1,1,$1+$1,$2,$3*
1,1,$1+$1,$4,$5*
1,1,$1+$1,$6,$7*
1,1,$1+$1,$8,$9*
0 Add four rect primitives between the rounded corners*
20,1,$1+$1,$2,$3,$4,$5,0*
20,1,$1+$1,$4,$5,$6,$7,0*
20,1,$1+$1,$6,$7,$8,$9,0*
20,1,$1+$1,$8,$9,$2,$3,0*%
G04 Aperture macros list end*
%TA.AperFunction,Profile*%
%ADD10C,0.100000*%
%TD*%
%ADD11C,0.150000*%
%ADD12C,0.254000*%
%TA.AperFunction,Profile*%
%ADD13C,0.120000*%
%TD*%
%ADD14C,0.120000*%
%ADD15C,0.100000*%
%ADD16C,0.200000*%
%ADD17C,0.010000*%
%ADD18RoundRect,0.101600X-1.206500X1.206500X-1.206500X-1.206500X1.206500X-1.206500X1.206500X1.206500X0*%
%ADD19C,2.616200*%
%ADD20R,1.700000X1.700000*%
%ADD21O,1.700000X1.700000*%
%ADD22RoundRect,0.650000X-0.650000X0.650000X-0.650000X-0.650000X0.650000X-0.650000X0.650000X0.650000X0*%
%ADD23C,2.600000*%
%ADD24R,5.500000X2.000000*%
%ADD25R,1.800000X5.000000*%
%ADD26C,1.500000*%
%ADD27R,1.800000X4.400000*%
%ADD28O,1.800000X4.000000*%
%ADD29O,4.000000X1.800000*%
%ADD30R,1.500000X1.600000*%
%ADD31C,1.600000*%
%ADD32C,3.000000*%
%ADD33R,1.600000X1.500000*%
%ADD34C,3.200000*%
%ADD35C,3.810000*%
%ADD36C,2.700000*%
%ADD37C,1.524000*%
%ADD38C,1.300000*%
%ADD39C,1.710000*%
%ADD40C,1.440000*%
%ADD41R,1.950000X1.950000*%
%ADD42C,1.950000*%
%ADD43C,2.400000*%
%ADD44C,2.000000*%
%ADD45RoundRect,0.650000X-0.650000X-0.650000X0.650000X-0.650000X0.650000X0.650000X-0.650000X0.650000X0*%
%ADD46R,2.400000X2.400000*%
%ADD47O,2.400000X2.400000*%
%ADD48RoundRect,0.237500X0.250000X0.237500X-0.250000X0.237500X-0.250000X-0.237500X0.250000X-0.237500X0*%
%ADD49C,1.980000*%
%ADD50C,5.325000*%
%ADD51C,3.585000*%
%ADD52RoundRect,0.250000X-0.250000X-0.475000X0.250000X-0.475000X0.250000X0.475000X-0.250000X0.475000X0*%
%ADD53R,1.500000X1.500000*%
G04 APERTURE END LIST*
D10*
X149961600Y-145105552D02*
X149961600Y-54944997D01*
X54944997Y-50017244D02*
G75*
G03*
X50016884Y-54944848I-257J-4927856D01*
G01*
X149961593Y-54944997D02*
G75*
G03*
X145105552Y-50016884I-4856293J71297D01*
G01*
X145034000Y-149961584D02*
G75*
G03*
X149961600Y-145105552I70800J4856284D01*
G01*
X50038000Y-145054603D02*
X50016884Y-54944848D01*
X50038007Y-145054603D02*
G75*
G03*
X54894048Y-149982716I4856293J-71297D01*
G01*
X145034000Y-149961600D02*
X54894048Y-149982716D01*
X54944997Y-50017243D02*
X145105552Y-50016884D01*
D11*
%TO.C,TP12*%
X117638095Y-51052380D02*
X117066666Y-51052380D01*
X117352380Y-52052380D02*
X117352380Y-51052380D01*
X116733333Y-52052380D02*
X116733333Y-51052380D01*
X116352380Y-51052380D01*
X116257142Y-51100000D01*
X116209523Y-51147619D01*
X116161904Y-51242857D01*
X116161904Y-51385714D01*
X116209523Y-51480952D01*
X116257142Y-51528571D01*
X116352380Y-51576190D01*
X116733333Y-51576190D01*
X115209523Y-52052380D02*
X115780952Y-52052380D01*
X115495238Y-52052380D02*
X115495238Y-51052380D01*
X115590476Y-51195238D01*
X115685714Y-51290476D01*
X115780952Y-51338095D01*
X114828571Y-51147619D02*
X114780952Y-51100000D01*
X114685714Y-51052380D01*
X114447619Y-51052380D01*
X114352380Y-51100000D01*
X114304761Y-51147619D01*
X114257142Y-51242857D01*
X114257142Y-51338095D01*
X114304761Y-51480952D01*
X114876190Y-52052380D01*
X114257142Y-52052380D01*
%TO.C,R46*%
X103742857Y-86852380D02*
X104076190Y-86376190D01*
X104314285Y-86852380D02*
X104314285Y-85852380D01*
X103933333Y-85852380D01*
X103838095Y-85900000D01*
X103790476Y-85947619D01*
X103742857Y-86042857D01*
X103742857Y-86185714D01*
X103790476Y-86280952D01*
X103838095Y-86328571D01*
X103933333Y-86376190D01*
X104314285Y-86376190D01*
X102885714Y-86185714D02*
X102885714Y-86852380D01*
X103123809Y-85804761D02*
X103361904Y-86519047D01*
X102742857Y-86519047D01*
X101933333Y-85852380D02*
X102123809Y-85852380D01*
X102219047Y-85900000D01*
X102266666Y-85947619D01*
X102361904Y-86090476D01*
X102409523Y-86280952D01*
X102409523Y-86661904D01*
X102361904Y-86757142D01*
X102314285Y-86804761D01*
X102219047Y-86852380D01*
X102028571Y-86852380D01*
X101933333Y-86804761D01*
X101885714Y-86757142D01*
X101838095Y-86661904D01*
X101838095Y-86423809D01*
X101885714Y-86328571D01*
X101933333Y-86280952D01*
X102028571Y-86233333D01*
X102219047Y-86233333D01*
X102314285Y-86280952D01*
X102361904Y-86328571D01*
X102409523Y-86423809D01*
%TO.C,R4*%
X122966666Y-66052380D02*
X123300000Y-65576190D01*
X123538095Y-66052380D02*
X123538095Y-65052380D01*
X123157142Y-65052380D01*
X123061904Y-65100000D01*
X123014285Y-65147619D01*
X122966666Y-65242857D01*
X122966666Y-65385714D01*
X123014285Y-65480952D01*
X123061904Y-65528571D01*
X123157142Y-65576190D01*
X123538095Y-65576190D01*
X122109523Y-65385714D02*
X122109523Y-66052380D01*
X122347619Y-65004761D02*
X122585714Y-65719047D01*
X121966666Y-65719047D01*
%TO.C,R2*%
X122966666Y-67452380D02*
X123300000Y-66976190D01*
X123538095Y-67452380D02*
X123538095Y-66452380D01*
X123157142Y-66452380D01*
X123061904Y-66500000D01*
X123014285Y-66547619D01*
X122966666Y-66642857D01*
X122966666Y-66785714D01*
X123014285Y-66880952D01*
X123061904Y-66928571D01*
X123157142Y-66976190D01*
X123538095Y-66976190D01*
X122585714Y-66547619D02*
X122538095Y-66500000D01*
X122442857Y-66452380D01*
X122204761Y-66452380D01*
X122109523Y-66500000D01*
X122061904Y-66547619D01*
X122014285Y-66642857D01*
X122014285Y-66738095D01*
X122061904Y-66880952D01*
X122633333Y-67452380D01*
X122014285Y-67452380D01*
D12*
%TO.C,U7*%
X91594619Y-124174523D02*
X91594619Y-125202619D01*
X91534142Y-125323571D01*
X91473666Y-125384047D01*
X91352714Y-125444523D01*
X91110809Y-125444523D01*
X90989857Y-125384047D01*
X90929380Y-125323571D01*
X90868904Y-125202619D01*
X90868904Y-124174523D01*
X90385095Y-124174523D02*
X89538428Y-124174523D01*
X90082714Y-125444523D01*
D11*
%TO.C,C7*%
X127966666Y-58487142D02*
X128014285Y-58534761D01*
X128157142Y-58582380D01*
X128252380Y-58582380D01*
X128395238Y-58534761D01*
X128490476Y-58439523D01*
X128538095Y-58344285D01*
X128585714Y-58153809D01*
X128585714Y-58010952D01*
X128538095Y-57820476D01*
X128490476Y-57725238D01*
X128395238Y-57630000D01*
X128252380Y-57582380D01*
X128157142Y-57582380D01*
X128014285Y-57630000D01*
X127966666Y-57677619D01*
X127633333Y-57582380D02*
X126966666Y-57582380D01*
X127395238Y-58582380D01*
%TO.C,R45*%
X103742857Y-88452380D02*
X104076190Y-87976190D01*
X104314285Y-88452380D02*
X104314285Y-87452380D01*
X103933333Y-87452380D01*
X103838095Y-87500000D01*
X103790476Y-87547619D01*
X103742857Y-87642857D01*
X103742857Y-87785714D01*
X103790476Y-87880952D01*
X103838095Y-87928571D01*
X103933333Y-87976190D01*
X104314285Y-87976190D01*
X102885714Y-87785714D02*
X102885714Y-88452380D01*
X103123809Y-87404761D02*
X103361904Y-88119047D01*
X102742857Y-88119047D01*
X101885714Y-87452380D02*
X102361904Y-87452380D01*
X102409523Y-87928571D01*
X102361904Y-87880952D01*
X102266666Y-87833333D01*
X102028571Y-87833333D01*
X101933333Y-87880952D01*
X101885714Y-87928571D01*
X101838095Y-88023809D01*
X101838095Y-88261904D01*
X101885714Y-88357142D01*
X101933333Y-88404761D01*
X102028571Y-88452380D01*
X102266666Y-88452380D01*
X102361904Y-88404761D01*
X102409523Y-88357142D01*
%TO.C,TP6*%
X86261904Y-57752380D02*
X85690476Y-57752380D01*
X85976190Y-58752380D02*
X85976190Y-57752380D01*
X85357142Y-58752380D02*
X85357142Y-57752380D01*
X84976190Y-57752380D01*
X84880952Y-57800000D01*
X84833333Y-57847619D01*
X84785714Y-57942857D01*
X84785714Y-58085714D01*
X84833333Y-58180952D01*
X84880952Y-58228571D01*
X84976190Y-58276190D01*
X85357142Y-58276190D01*
X83928571Y-57752380D02*
X84119047Y-57752380D01*
X84214285Y-57800000D01*
X84261904Y-57847619D01*
X84357142Y-57990476D01*
X84404761Y-58180952D01*
X84404761Y-58561904D01*
X84357142Y-58657142D01*
X84309523Y-58704761D01*
X84214285Y-58752380D01*
X84023809Y-58752380D01*
X83928571Y-58704761D01*
X83880952Y-58657142D01*
X83833333Y-58561904D01*
X83833333Y-58323809D01*
X83880952Y-58228571D01*
X83928571Y-58180952D01*
X84023809Y-58133333D01*
X84214285Y-58133333D01*
X84309523Y-58180952D01*
X84357142Y-58228571D01*
X84404761Y-58323809D01*
%TO.C,R3*%
X122966666Y-64552380D02*
X123300000Y-64076190D01*
X123538095Y-64552380D02*
X123538095Y-63552380D01*
X123157142Y-63552380D01*
X123061904Y-63600000D01*
X123014285Y-63647619D01*
X122966666Y-63742857D01*
X122966666Y-63885714D01*
X123014285Y-63980952D01*
X123061904Y-64028571D01*
X123157142Y-64076190D01*
X123538095Y-64076190D01*
X122633333Y-63552380D02*
X122014285Y-63552380D01*
X122347619Y-63933333D01*
X122204761Y-63933333D01*
X122109523Y-63980952D01*
X122061904Y-64028571D01*
X122014285Y-64123809D01*
X122014285Y-64361904D01*
X122061904Y-64457142D01*
X122109523Y-64504761D01*
X122204761Y-64552380D01*
X122490476Y-64552380D01*
X122585714Y-64504761D01*
X122633333Y-64457142D01*
%TO.C,TP8*%
X86161904Y-61052380D02*
X85590476Y-61052380D01*
X85876190Y-62052380D02*
X85876190Y-61052380D01*
X85257142Y-62052380D02*
X85257142Y-61052380D01*
X84876190Y-61052380D01*
X84780952Y-61100000D01*
X84733333Y-61147619D01*
X84685714Y-61242857D01*
X84685714Y-61385714D01*
X84733333Y-61480952D01*
X84780952Y-61528571D01*
X84876190Y-61576190D01*
X85257142Y-61576190D01*
X84114285Y-61480952D02*
X84209523Y-61433333D01*
X84257142Y-61385714D01*
X84304761Y-61290476D01*
X84304761Y-61242857D01*
X84257142Y-61147619D01*
X84209523Y-61100000D01*
X84114285Y-61052380D01*
X83923809Y-61052380D01*
X83828571Y-61100000D01*
X83780952Y-61147619D01*
X83733333Y-61242857D01*
X83733333Y-61290476D01*
X83780952Y-61385714D01*
X83828571Y-61433333D01*
X83923809Y-61480952D01*
X84114285Y-61480952D01*
X84209523Y-61528571D01*
X84257142Y-61576190D01*
X84304761Y-61671428D01*
X84304761Y-61861904D01*
X84257142Y-61957142D01*
X84209523Y-62004761D01*
X84114285Y-62052380D01*
X83923809Y-62052380D01*
X83828571Y-62004761D01*
X83780952Y-61957142D01*
X83733333Y-61861904D01*
X83733333Y-61671428D01*
X83780952Y-61576190D01*
X83828571Y-61528571D01*
X83923809Y-61480952D01*
%TO.C,R48*%
X103742857Y-83652380D02*
X104076190Y-83176190D01*
X104314285Y-83652380D02*
X104314285Y-82652380D01*
X103933333Y-82652380D01*
X103838095Y-82700000D01*
X103790476Y-82747619D01*
X103742857Y-82842857D01*
X103742857Y-82985714D01*
X103790476Y-83080952D01*
X103838095Y-83128571D01*
X103933333Y-83176190D01*
X104314285Y-83176190D01*
X102885714Y-82985714D02*
X102885714Y-83652380D01*
X103123809Y-82604761D02*
X103361904Y-83319047D01*
X102742857Y-83319047D01*
X102219047Y-83080952D02*
X102314285Y-83033333D01*
X102361904Y-82985714D01*
X102409523Y-82890476D01*
X102409523Y-82842857D01*
X102361904Y-82747619D01*
X102314285Y-82700000D01*
X102219047Y-82652380D01*
X102028571Y-82652380D01*
X101933333Y-82700000D01*
X101885714Y-82747619D01*
X101838095Y-82842857D01*
X101838095Y-82890476D01*
X101885714Y-82985714D01*
X101933333Y-83033333D01*
X102028571Y-83080952D01*
X102219047Y-83080952D01*
X102314285Y-83128571D01*
X102361904Y-83176190D01*
X102409523Y-83271428D01*
X102409523Y-83461904D01*
X102361904Y-83557142D01*
X102314285Y-83604761D01*
X102219047Y-83652380D01*
X102028571Y-83652380D01*
X101933333Y-83604761D01*
X101885714Y-83557142D01*
X101838095Y-83461904D01*
X101838095Y-83271428D01*
X101885714Y-83176190D01*
X101933333Y-83128571D01*
X102028571Y-83080952D01*
%TO.C,R47*%
X103742857Y-85252380D02*
X104076190Y-84776190D01*
X104314285Y-85252380D02*
X104314285Y-84252380D01*
X103933333Y-84252380D01*
X103838095Y-84300000D01*
X103790476Y-84347619D01*
X103742857Y-84442857D01*
X103742857Y-84585714D01*
X103790476Y-84680952D01*
X103838095Y-84728571D01*
X103933333Y-84776190D01*
X104314285Y-84776190D01*
X102885714Y-84585714D02*
X102885714Y-85252380D01*
X103123809Y-84204761D02*
X103361904Y-84919047D01*
X102742857Y-84919047D01*
X102457142Y-84252380D02*
X101790476Y-84252380D01*
X102219047Y-85252380D01*
%TO.C,R7*%
X122866666Y-61552380D02*
X123200000Y-61076190D01*
X123438095Y-61552380D02*
X123438095Y-60552380D01*
X123057142Y-60552380D01*
X122961904Y-60600000D01*
X122914285Y-60647619D01*
X122866666Y-60742857D01*
X122866666Y-60885714D01*
X122914285Y-60980952D01*
X122961904Y-61028571D01*
X123057142Y-61076190D01*
X123438095Y-61076190D01*
X122533333Y-60552380D02*
X121866666Y-60552380D01*
X122295238Y-61552380D01*
%TO.C,R8*%
X122966666Y-63052380D02*
X123300000Y-62576190D01*
X123538095Y-63052380D02*
X123538095Y-62052380D01*
X123157142Y-62052380D01*
X123061904Y-62100000D01*
X123014285Y-62147619D01*
X122966666Y-62242857D01*
X122966666Y-62385714D01*
X123014285Y-62480952D01*
X123061904Y-62528571D01*
X123157142Y-62576190D01*
X123538095Y-62576190D01*
X122395238Y-62480952D02*
X122490476Y-62433333D01*
X122538095Y-62385714D01*
X122585714Y-62290476D01*
X122585714Y-62242857D01*
X122538095Y-62147619D01*
X122490476Y-62100000D01*
X122395238Y-62052380D01*
X122204761Y-62052380D01*
X122109523Y-62100000D01*
X122061904Y-62147619D01*
X122014285Y-62242857D01*
X122014285Y-62290476D01*
X122061904Y-62385714D01*
X122109523Y-62433333D01*
X122204761Y-62480952D01*
X122395238Y-62480952D01*
X122490476Y-62528571D01*
X122538095Y-62576190D01*
X122585714Y-62671428D01*
X122585714Y-62861904D01*
X122538095Y-62957142D01*
X122490476Y-63004761D01*
X122395238Y-63052380D01*
X122204761Y-63052380D01*
X122109523Y-63004761D01*
X122061904Y-62957142D01*
X122014285Y-62861904D01*
X122014285Y-62671428D01*
X122061904Y-62576190D01*
X122109523Y-62528571D01*
X122204761Y-62480952D01*
%TO.C,R6*%
X122866666Y-59852380D02*
X123200000Y-59376190D01*
X123438095Y-59852380D02*
X123438095Y-58852380D01*
X123057142Y-58852380D01*
X122961904Y-58900000D01*
X122914285Y-58947619D01*
X122866666Y-59042857D01*
X122866666Y-59185714D01*
X122914285Y-59280952D01*
X122961904Y-59328571D01*
X123057142Y-59376190D01*
X123438095Y-59376190D01*
X122009523Y-58852380D02*
X122200000Y-58852380D01*
X122295238Y-58900000D01*
X122342857Y-58947619D01*
X122438095Y-59090476D01*
X122485714Y-59280952D01*
X122485714Y-59661904D01*
X122438095Y-59757142D01*
X122390476Y-59804761D01*
X122295238Y-59852380D01*
X122104761Y-59852380D01*
X122009523Y-59804761D01*
X121961904Y-59757142D01*
X121914285Y-59661904D01*
X121914285Y-59423809D01*
X121961904Y-59328571D01*
X122009523Y-59280952D01*
X122104761Y-59233333D01*
X122295238Y-59233333D01*
X122390476Y-59280952D01*
X122438095Y-59328571D01*
X122485714Y-59423809D01*
%TO.C,TP13*%
X116138095Y-57152380D02*
X115566666Y-57152380D01*
X115852380Y-58152380D02*
X115852380Y-57152380D01*
X115233333Y-58152380D02*
X115233333Y-57152380D01*
X114852380Y-57152380D01*
X114757142Y-57200000D01*
X114709523Y-57247619D01*
X114661904Y-57342857D01*
X114661904Y-57485714D01*
X114709523Y-57580952D01*
X114757142Y-57628571D01*
X114852380Y-57676190D01*
X115233333Y-57676190D01*
X113709523Y-58152380D02*
X114280952Y-58152380D01*
X113995238Y-58152380D02*
X113995238Y-57152380D01*
X114090476Y-57295238D01*
X114185714Y-57390476D01*
X114280952Y-57438095D01*
X113376190Y-57152380D02*
X112757142Y-57152380D01*
X113090476Y-57533333D01*
X112947619Y-57533333D01*
X112852380Y-57580952D01*
X112804761Y-57628571D01*
X112757142Y-57723809D01*
X112757142Y-57961904D01*
X112804761Y-58057142D01*
X112852380Y-58104761D01*
X112947619Y-58152380D01*
X113233333Y-58152380D01*
X113328571Y-58104761D01*
X113376190Y-58057142D01*
%TO.C,R5*%
X122866666Y-58452380D02*
X123200000Y-57976190D01*
X123438095Y-58452380D02*
X123438095Y-57452380D01*
X123057142Y-57452380D01*
X122961904Y-57500000D01*
X122914285Y-57547619D01*
X122866666Y-57642857D01*
X122866666Y-57785714D01*
X122914285Y-57880952D01*
X122961904Y-57928571D01*
X123057142Y-57976190D01*
X123438095Y-57976190D01*
X121961904Y-57452380D02*
X122438095Y-57452380D01*
X122485714Y-57928571D01*
X122438095Y-57880952D01*
X122342857Y-57833333D01*
X122104761Y-57833333D01*
X122009523Y-57880952D01*
X121961904Y-57928571D01*
X121914285Y-58023809D01*
X121914285Y-58261904D01*
X121961904Y-58357142D01*
X122009523Y-58404761D01*
X122104761Y-58452380D01*
X122342857Y-58452380D01*
X122438095Y-58404761D01*
X122485714Y-58357142D01*
D13*
%TO.C,J5*%
X140182000Y-77400000D02*
G75*
G03*
X140182000Y-77400000I-1000000J0D01*
G01*
X123530000Y-77400000D02*
G75*
G03*
X123530000Y-77400000I-1000000J0D01*
G01*
D14*
%TO.C,TP12*%
X113600000Y-51800000D02*
G75*
G03*
X113600000Y-51800000I-1200000J0D01*
G01*
%TO.C,R46*%
X99954724Y-85777500D02*
X99445276Y-85777500D01*
X99954724Y-86822500D02*
X99445276Y-86822500D01*
%TO.C,R4*%
X120054724Y-66022500D02*
X119545276Y-66022500D01*
X120054724Y-64977500D02*
X119545276Y-64977500D01*
%TO.C,R2*%
X120054724Y-67522500D02*
X119545276Y-67522500D01*
X120054724Y-66477500D02*
X119545276Y-66477500D01*
D15*
%TO.C,U7*%
X128465000Y-114545000D02*
X128465000Y-114545000D01*
X51415000Y-135195000D02*
X115580000Y-135195000D01*
X128465000Y-135195000D02*
X128465000Y-135195000D01*
X64080000Y-114545000D02*
X64080000Y-114545000D01*
X51415000Y-114545000D02*
X60330000Y-114545000D01*
X60330000Y-114545000D02*
X51415000Y-114545000D01*
X51415000Y-135195000D02*
X51415000Y-114545000D01*
X119330000Y-135195000D02*
X119330000Y-135195000D01*
X51415000Y-114545000D02*
X51415000Y-135195000D01*
X51415000Y-135195000D02*
X51415000Y-135195000D01*
X64080000Y-114545000D02*
X128465000Y-114545000D01*
X115580000Y-135195000D02*
X115580000Y-135195000D01*
X128465000Y-135195000D02*
X119330000Y-135195000D01*
D16*
X129740000Y-125120000D02*
X129740000Y-125120000D01*
D15*
X128465000Y-135195000D02*
X128465000Y-135195000D01*
X128465000Y-114545000D02*
X64080000Y-114545000D01*
X128465000Y-114545000D02*
X128465000Y-135195000D01*
X128465000Y-114545000D02*
X128465000Y-114545000D01*
X51415000Y-135195000D02*
X51415000Y-135195000D01*
X51415000Y-114545000D02*
X51415000Y-114545000D01*
X60330000Y-114545000D02*
X60330000Y-114545000D01*
X119330000Y-135195000D02*
X128465000Y-135195000D01*
D16*
X129840000Y-125120000D02*
X129840000Y-125120000D01*
D15*
X115580000Y-135195000D02*
X51415000Y-135195000D01*
X51415000Y-114545000D02*
X51415000Y-114545000D01*
X128465000Y-135195000D02*
X128465000Y-114545000D01*
D16*
X129840000Y-125120000D02*
X129840000Y-125120000D01*
X129740000Y-125120000D02*
G75*
G03*
X129840000Y-125120000I50000J0D01*
G01*
X129840000Y-125120000D02*
G75*
G03*
X129740000Y-125120000I-50000J0D01*
G01*
X129740000Y-125120000D02*
G75*
G03*
X129840000Y-125120000I50000J0D01*
G01*
%TO.C,kibuzzard-63BB0CE1*%
G36*
X57420325Y-123410937D02*
G01*
X62379675Y-123410937D01*
X62379675Y-126189063D01*
X57420325Y-126189063D01*
X57420325Y-124768250D01*
X57618762Y-124768250D01*
X57629169Y-125055764D01*
X57660390Y-125300239D01*
X57712425Y-125501675D01*
X57827122Y-125731466D01*
X57983887Y-125881088D01*
X58190262Y-125963241D01*
X58453787Y-125990625D01*
X58713344Y-125974750D01*
X58792983Y-125958875D01*
X59307862Y-125958875D01*
X59663462Y-125958875D01*
X60158763Y-124276125D01*
X60165113Y-124276125D01*
X60165113Y-125958875D01*
X60514363Y-125958875D01*
X60514363Y-125879500D01*
X60847738Y-125879500D01*
X61017776Y-125941236D01*
X61197693Y-125978278D01*
X61387488Y-125990625D01*
X61573523Y-125971773D01*
X61734753Y-125915219D01*
X61871179Y-125820961D01*
X61982800Y-125689000D01*
X62069616Y-125519336D01*
X62131628Y-125311969D01*
X62168835Y-125066898D01*
X62181238Y-124784125D01*
X62167843Y-124499764D01*
X62127659Y-124256281D01*
X62060687Y-124053677D01*
X61966925Y-123891950D01*
X61800238Y-123734964D01*
X61585925Y-123640772D01*
X61323988Y-123609375D01*
X61121581Y-123626837D01*
X60927113Y-123679225D01*
X60927113Y-123964975D01*
X61129519Y-123907825D01*
X61323988Y-123888775D01*
X61550206Y-123939178D01*
X61708163Y-124090387D01*
X61776954Y-124257075D01*
X61818229Y-124488321D01*
X61831988Y-124784125D01*
X61818935Y-125086808D01*
X61779776Y-125325992D01*
X61714513Y-125501675D01*
X61571638Y-125663600D01*
X61377963Y-125717575D01*
X61187463Y-125679475D01*
X61187463Y-124847625D01*
X61587513Y-124847625D01*
X61587513Y-124577750D01*
X60847738Y-124577750D01*
X60847738Y-125879500D01*
X60514363Y-125879500D01*
X60514363Y-123641125D01*
X60146063Y-123641125D01*
X59650762Y-125323875D01*
X59641237Y-125323875D01*
X59641237Y-123641125D01*
X59307862Y-123641125D01*
X59307862Y-125958875D01*
X58792983Y-125958875D01*
X58952262Y-125927125D01*
X58952262Y-123672875D01*
X58703819Y-123625250D01*
X58453787Y-123609375D01*
X58185147Y-123638126D01*
X57971893Y-123724381D01*
X57814025Y-123868137D01*
X57728598Y-124021430D01*
X57667578Y-124222547D01*
X57630966Y-124471487D01*
X57618762Y-124768250D01*
X57420325Y-124768250D01*
X57420325Y-123410937D01*
G37*
G36*
X58596662Y-123914175D02*
G01*
X58596662Y-125689000D01*
X58453787Y-125717575D01*
X58231934Y-125666775D01*
X58080725Y-125514375D01*
X58016343Y-125341161D01*
X57977714Y-125092453D01*
X57964837Y-124768250D01*
X57977890Y-124474739D01*
X58017049Y-124246139D01*
X58082312Y-124082450D01*
X58233919Y-123934812D01*
X58453787Y-123885600D01*
X58596662Y-123914175D01*
G37*
D14*
%TO.C,C7*%
X127538748Y-57185000D02*
X128061252Y-57185000D01*
X127538748Y-55715000D02*
X128061252Y-55715000D01*
%TO.C,R45*%
X99954724Y-88362500D02*
X99445276Y-88362500D01*
X99954724Y-87317500D02*
X99445276Y-87317500D01*
%TO.C,TP6*%
X88650000Y-57150000D02*
X86750000Y-57150000D01*
X88650000Y-59050000D02*
X88650000Y-57150000D01*
X86750000Y-57150000D02*
X86750000Y-59050000D01*
X86750000Y-59050000D02*
X88650000Y-59050000D01*
%TO.C,R3*%
X120054724Y-64522500D02*
X119545276Y-64522500D01*
X120054724Y-63477500D02*
X119545276Y-63477500D01*
%TO.C,TP8*%
X86700000Y-62400000D02*
X88600000Y-62400000D01*
X88600000Y-60500000D02*
X86700000Y-60500000D01*
X86700000Y-60500000D02*
X86700000Y-62400000D01*
X88600000Y-62400000D02*
X88600000Y-60500000D01*
%TO.C,R48*%
X99954724Y-82577500D02*
X99445276Y-82577500D01*
X99954724Y-83622500D02*
X99445276Y-83622500D01*
%TO.C,R47*%
X99954724Y-84177500D02*
X99445276Y-84177500D01*
X99954724Y-85222500D02*
X99445276Y-85222500D01*
%TO.C,R7*%
X120054724Y-61522500D02*
X119545276Y-61522500D01*
X120054724Y-60477500D02*
X119545276Y-60477500D01*
%TO.C,R8*%
X120054724Y-63022500D02*
X119545276Y-63022500D01*
X120054724Y-61977500D02*
X119545276Y-61977500D01*
%TO.C,R6*%
X120054724Y-58977500D02*
X119545276Y-58977500D01*
X120054724Y-60022500D02*
X119545276Y-60022500D01*
%TO.C,FID3*%
G36*
X142000993Y-85733958D02*
G01*
X141997499Y-85848966D01*
X141990860Y-85951052D01*
X141980408Y-86046295D01*
X141965476Y-86140777D01*
X141945396Y-86240579D01*
X141919501Y-86351783D01*
X141902901Y-86416692D01*
X141821342Y-86674689D01*
X141718188Y-86921529D01*
X141594485Y-87156073D01*
X141451277Y-87377183D01*
X141289612Y-87583718D01*
X141110533Y-87774541D01*
X140915087Y-87948512D01*
X140704320Y-88104491D01*
X140479277Y-88241341D01*
X140241003Y-88357922D01*
X139990544Y-88453095D01*
X139925787Y-88473736D01*
X139792687Y-88511783D01*
X139659697Y-88543227D01*
X139520515Y-88569320D01*
X139368838Y-88591313D01*
X139198366Y-88610459D01*
X139176699Y-88611615D01*
X139131259Y-88612398D01*
X139070133Y-88612465D01*
X138998547Y-88611815D01*
X138921732Y-88610449D01*
X138863844Y-88608692D01*
X138580664Y-88585961D01*
X138307010Y-88539973D01*
X138042929Y-88470744D01*
X137788465Y-88378289D01*
X137543664Y-88262626D01*
X137308571Y-88123770D01*
X137083232Y-87961737D01*
X137024001Y-87913056D01*
X136899861Y-87799258D01*
X136774788Y-87670155D01*
X136653809Y-87531369D01*
X136541951Y-87388520D01*
X136444240Y-87247228D01*
X136340482Y-87069234D01*
X136242014Y-86865049D01*
X136156756Y-86649657D01*
X136086827Y-86429042D01*
X136034346Y-86209191D01*
X136001432Y-85996089D01*
X135991930Y-85908070D01*
X132948492Y-85901682D01*
X132920293Y-86077107D01*
X132894096Y-86219067D01*
X132828205Y-86476394D01*
X132739227Y-86726949D01*
X132626135Y-86973868D01*
X132491180Y-87211206D01*
X132336027Y-87434133D01*
X132161883Y-87641403D01*
X131969904Y-87831867D01*
X131761248Y-88004378D01*
X131537073Y-88157788D01*
X131298534Y-88290949D01*
X131125259Y-88371983D01*
X130897468Y-88460401D01*
X130669254Y-88527366D01*
X130436153Y-88573925D01*
X130193699Y-88601123D01*
X129937425Y-88610009D01*
X129735989Y-88603594D01*
X129463984Y-88573804D01*
X129198819Y-88520101D01*
X128941461Y-88442889D01*
X128692874Y-88342570D01*
X128454024Y-88219550D01*
X128225877Y-88074233D01*
X128009398Y-87907021D01*
X127805552Y-87718319D01*
X127787680Y-87699988D01*
X127740005Y-87649043D01*
X127689486Y-87592677D01*
X127638957Y-87534311D01*
X127591256Y-87477364D01*
X127549218Y-87425259D01*
X127515679Y-87381416D01*
X127493476Y-87349257D01*
X127485445Y-87332202D01*
X127485697Y-87331640D01*
X127498513Y-87320410D01*
X127528459Y-87297618D01*
X127572405Y-87265552D01*
X127627220Y-87226501D01*
X127689777Y-87182754D01*
X127757035Y-87136058D01*
X127821521Y-87091166D01*
X127878610Y-87051308D01*
X127923874Y-87019575D01*
X127952884Y-86999058D01*
X128011660Y-86957029D01*
X128105061Y-87073836D01*
X128208611Y-87194741D01*
X128380737Y-87364161D01*
X128568845Y-87514717D01*
X128771548Y-87645446D01*
X128987461Y-87755388D01*
X129215197Y-87843581D01*
X129431639Y-87903717D01*
X129666569Y-87944490D01*
X129902977Y-87961015D01*
X130139171Y-87953523D01*
X130373460Y-87922247D01*
X130604151Y-87867417D01*
X130829554Y-87789266D01*
X131047975Y-87688025D01*
X131257722Y-87563926D01*
X131306041Y-87531096D01*
X131494638Y-87384399D01*
X131665905Y-87220161D01*
X131819035Y-87039658D01*
X131953224Y-86844164D01*
X132067667Y-86634956D01*
X132161559Y-86413307D01*
X132234095Y-86180493D01*
X132284469Y-85937789D01*
X132285943Y-85928126D01*
X132296722Y-85829384D01*
X132303070Y-85714862D01*
X132304991Y-85592636D01*
X132303513Y-85520720D01*
X136649129Y-85520720D01*
X136653799Y-85769753D01*
X136661969Y-85866157D01*
X136698851Y-86105482D01*
X136757981Y-86334949D01*
X136838311Y-86553511D01*
X136938794Y-86760120D01*
X137058384Y-86953730D01*
X137196035Y-87133294D01*
X137350700Y-87297765D01*
X137521332Y-87446096D01*
X137706886Y-87577241D01*
X137906314Y-87690152D01*
X138118570Y-87783783D01*
X138342608Y-87857086D01*
X138577380Y-87909016D01*
X138821841Y-87938524D01*
X138840374Y-87939841D01*
X138904617Y-87944099D01*
X138959949Y-87947311D01*
X139000981Y-87949184D01*
X139022326Y-87949427D01*
X139038000Y-87948348D01*
X139075609Y-87945769D01*
X139126993Y-87942248D01*
X139185792Y-87938223D01*
X139279571Y-87929924D01*
X139515495Y-87892102D01*
X139744455Y-87831129D01*
X139964783Y-87747901D01*
X140174812Y-87643313D01*
X140372872Y-87518261D01*
X140557296Y-87373641D01*
X140726416Y-87210349D01*
X140878562Y-87029281D01*
X140931549Y-86956040D01*
X141055653Y-86755171D01*
X141157945Y-86542444D01*
X141238088Y-86318899D01*
X141295747Y-86085570D01*
X141330589Y-85843496D01*
X141342277Y-85593713D01*
X141342070Y-85560821D01*
X141327216Y-85315479D01*
X141289438Y-85077652D01*
X141229501Y-84848587D01*
X141148171Y-84629530D01*
X141046216Y-84421731D01*
X140924402Y-84226436D01*
X140783495Y-84044892D01*
X140624261Y-83878348D01*
X140447469Y-83728051D01*
X140253883Y-83595248D01*
X140044271Y-83481188D01*
X139998494Y-83459848D01*
X139776095Y-83372634D01*
X139546074Y-83308252D01*
X139310736Y-83266685D01*
X139072385Y-83247919D01*
X138833323Y-83251938D01*
X138595855Y-83278726D01*
X138362286Y-83328267D01*
X138134917Y-83400547D01*
X137916054Y-83495549D01*
X137762033Y-83579481D01*
X137566236Y-83709996D01*
X137387374Y-83857969D01*
X137226140Y-84022152D01*
X137083224Y-84201300D01*
X136959318Y-84394169D01*
X136855113Y-84599512D01*
X136771300Y-84816084D01*
X136708571Y-85042640D01*
X136667617Y-85277934D01*
X136649129Y-85520720D01*
X132303513Y-85520720D01*
X132302486Y-85470783D01*
X132295559Y-85357379D01*
X132284213Y-85260499D01*
X132274266Y-85201610D01*
X132218438Y-84958680D01*
X132140714Y-84728108D01*
X132041049Y-84509802D01*
X131919395Y-84303671D01*
X131775706Y-84109624D01*
X131609937Y-83927568D01*
X131492211Y-83818148D01*
X131304395Y-83671424D01*
X131103994Y-83545416D01*
X130892717Y-83440642D01*
X130672270Y-83357618D01*
X130444363Y-83296861D01*
X130210705Y-83258889D01*
X129973002Y-83244217D01*
X129732963Y-83253363D01*
X129492297Y-83286844D01*
X129382302Y-83310970D01*
X129166504Y-83376457D01*
X128955345Y-83464029D01*
X128751829Y-83571818D01*
X128558964Y-83697958D01*
X128379754Y-83840579D01*
X128217206Y-83997816D01*
X128074325Y-84167800D01*
X128046877Y-84201697D01*
X128023099Y-84226301D01*
X128008598Y-84235693D01*
X127998696Y-84231092D01*
X127970210Y-84213833D01*
X127926502Y-84185598D01*
X127870515Y-84148325D01*
X127805192Y-84103954D01*
X127733476Y-84054424D01*
X127473068Y-83873156D01*
X127506522Y-83828088D01*
X127601142Y-83706909D01*
X127786734Y-83500249D01*
X127988811Y-83311958D01*
X128206162Y-83142939D01*
X128437580Y-82994094D01*
X128681853Y-82866325D01*
X128937772Y-82760535D01*
X129142878Y-82694910D01*
X129402575Y-82634983D01*
X129665744Y-82598872D01*
X129930622Y-82586333D01*
X130195447Y-82597125D01*
X130458455Y-82631006D01*
X130717883Y-82687732D01*
X130971970Y-82767062D01*
X131218951Y-82868752D01*
X131457065Y-82992562D01*
X131684549Y-83138247D01*
X131881781Y-83290848D01*
X132076752Y-83470883D01*
X132255857Y-83667697D01*
X132417601Y-83879139D01*
X132560485Y-84103058D01*
X132683013Y-84337303D01*
X132783687Y-84579725D01*
X132861010Y-84828171D01*
X132863835Y-84839221D01*
X132878534Y-84901447D01*
X132893815Y-84972678D01*
X132908641Y-85047329D01*
X132921976Y-85119813D01*
X132932783Y-85184545D01*
X132940028Y-85235940D01*
X132942673Y-85268411D01*
X132942673Y-85298218D01*
X135985164Y-85298218D01*
X135991000Y-85269926D01*
X135992012Y-85264603D01*
X135997050Y-85233363D01*
X136003751Y-85187446D01*
X136010949Y-85134753D01*
X136021976Y-85059854D01*
X136073789Y-84813665D01*
X136148516Y-84568592D01*
X136244631Y-84328154D01*
X136360609Y-84095871D01*
X136494923Y-83875264D01*
X136646047Y-83669852D01*
X136665956Y-83645730D01*
X136746233Y-83555405D01*
X136839098Y-83459408D01*
X136938030Y-83364086D01*
X137036506Y-83275786D01*
X137128007Y-83200851D01*
X137320362Y-83065669D01*
X137541406Y-82936974D01*
X137775035Y-82825906D01*
X138016823Y-82734558D01*
X138262345Y-82665019D01*
X138333129Y-82648862D01*
X138436493Y-82627852D01*
X138533585Y-82612124D01*
X138630673Y-82601015D01*
X138734027Y-82593863D01*
X138849914Y-82590009D01*
X138984604Y-82588788D01*
X139012632Y-82588794D01*
X139134078Y-82589800D01*
X139237608Y-82592868D01*
X139329180Y-82598593D01*
X139414751Y-82607575D01*
X139500281Y-82620410D01*
X139591728Y-82637696D01*
X139695049Y-82660030D01*
X139814926Y-82689576D01*
X140073476Y-82771403D01*
X140320432Y-82874713D01*
X140554760Y-82998484D01*
X140775425Y-83141693D01*
X140981395Y-83303316D01*
X141171632Y-83482333D01*
X141345105Y-83677719D01*
X141500777Y-83888452D01*
X141637615Y-84113511D01*
X141754584Y-84351871D01*
X141850651Y-84602510D01*
X141924779Y-84864406D01*
X141946075Y-84958820D01*
X141965845Y-85059131D01*
X141980579Y-85153894D01*
X141990919Y-85249237D01*
X141997509Y-85351286D01*
X142000991Y-85466165D01*
X142001961Y-85593713D01*
X142002008Y-85600000D01*
X142000993Y-85733958D01*
G37*
D17*
X142000993Y-85733958D02*
X141997499Y-85848966D01*
X141990860Y-85951052D01*
X141980408Y-86046295D01*
X141965476Y-86140777D01*
X141945396Y-86240579D01*
X141919501Y-86351783D01*
X141902901Y-86416692D01*
X141821342Y-86674689D01*
X141718188Y-86921529D01*
X141594485Y-87156073D01*
X141451277Y-87377183D01*
X141289612Y-87583718D01*
X141110533Y-87774541D01*
X140915087Y-87948512D01*
X140704320Y-88104491D01*
X140479277Y-88241341D01*
X140241003Y-88357922D01*
X139990544Y-88453095D01*
X139925787Y-88473736D01*
X139792687Y-88511783D01*
X139659697Y-88543227D01*
X139520515Y-88569320D01*
X139368838Y-88591313D01*
X139198366Y-88610459D01*
X139176699Y-88611615D01*
X139131259Y-88612398D01*
X139070133Y-88612465D01*
X138998547Y-88611815D01*
X138921732Y-88610449D01*
X138863844Y-88608692D01*
X138580664Y-88585961D01*
X138307010Y-88539973D01*
X138042929Y-88470744D01*
X137788465Y-88378289D01*
X137543664Y-88262626D01*
X137308571Y-88123770D01*
X137083232Y-87961737D01*
X137024001Y-87913056D01*
X136899861Y-87799258D01*
X136774788Y-87670155D01*
X136653809Y-87531369D01*
X136541951Y-87388520D01*
X136444240Y-87247228D01*
X136340482Y-87069234D01*
X136242014Y-86865049D01*
X136156756Y-86649657D01*
X136086827Y-86429042D01*
X136034346Y-86209191D01*
X136001432Y-85996089D01*
X135991930Y-85908070D01*
X132948492Y-85901682D01*
X132920293Y-86077107D01*
X132894096Y-86219067D01*
X132828205Y-86476394D01*
X132739227Y-86726949D01*
X132626135Y-86973868D01*
X132491180Y-87211206D01*
X132336027Y-87434133D01*
X132161883Y-87641403D01*
X131969904Y-87831867D01*
X131761248Y-88004378D01*
X131537073Y-88157788D01*
X131298534Y-88290949D01*
X131125259Y-88371983D01*
X130897468Y-88460401D01*
X130669254Y-88527366D01*
X130436153Y-88573925D01*
X130193699Y-88601123D01*
X129937425Y-88610009D01*
X129735989Y-88603594D01*
X129463984Y-88573804D01*
X129198819Y-88520101D01*
X128941461Y-88442889D01*
X128692874Y-88342570D01*
X128454024Y-88219550D01*
X128225877Y-88074233D01*
X128009398Y-87907021D01*
X127805552Y-87718319D01*
X127787680Y-87699988D01*
X127740005Y-87649043D01*
X127689486Y-87592677D01*
X127638957Y-87534311D01*
X127591256Y-87477364D01*
X127549218Y-87425259D01*
X127515679Y-87381416D01*
X127493476Y-87349257D01*
X127485445Y-87332202D01*
X127485697Y-87331640D01*
X127498513Y-87320410D01*
X127528459Y-87297618D01*
X127572405Y-87265552D01*
X127627220Y-87226501D01*
X127689777Y-87182754D01*
X127757035Y-87136058D01*
X127821521Y-87091166D01*
X127878610Y-87051308D01*
X127923874Y-87019575D01*
X127952884Y-86999058D01*
X128011660Y-86957029D01*
X128105061Y-87073836D01*
X128208611Y-87194741D01*
X128380737Y-87364161D01*
X128568845Y-87514717D01*
X128771548Y-87645446D01*
X128987461Y-87755388D01*
X129215197Y-87843581D01*
X129431639Y-87903717D01*
X129666569Y-87944490D01*
X129902977Y-87961015D01*
X130139171Y-87953523D01*
X130373460Y-87922247D01*
X130604151Y-87867417D01*
X130829554Y-87789266D01*
X131047975Y-87688025D01*
X131257722Y-87563926D01*
X131306041Y-87531096D01*
X131494638Y-87384399D01*
X131665905Y-87220161D01*
X131819035Y-87039658D01*
X131953224Y-86844164D01*
X132067667Y-86634956D01*
X132161559Y-86413307D01*
X132234095Y-86180493D01*
X132284469Y-85937789D01*
X132285943Y-85928126D01*
X132296722Y-85829384D01*
X132303070Y-85714862D01*
X132304991Y-85592636D01*
X132303513Y-85520720D01*
X136649129Y-85520720D01*
X136653799Y-85769753D01*
X136661969Y-85866157D01*
X136698851Y-86105482D01*
X136757981Y-86334949D01*
X136838311Y-86553511D01*
X136938794Y-86760120D01*
X137058384Y-86953730D01*
X137196035Y-87133294D01*
X137350700Y-87297765D01*
X137521332Y-87446096D01*
X137706886Y-87577241D01*
X137906314Y-87690152D01*
X138118570Y-87783783D01*
X138342608Y-87857086D01*
X138577380Y-87909016D01*
X138821841Y-87938524D01*
X138840374Y-87939841D01*
X138904617Y-87944099D01*
X138959949Y-87947311D01*
X139000981Y-87949184D01*
X139022326Y-87949427D01*
X139038000Y-87948348D01*
X139075609Y-87945769D01*
X139126993Y-87942248D01*
X139185792Y-87938223D01*
X139279571Y-87929924D01*
X139515495Y-87892102D01*
X139744455Y-87831129D01*
X139964783Y-87747901D01*
X140174812Y-87643313D01*
X140372872Y-87518261D01*
X140557296Y-87373641D01*
X140726416Y-87210349D01*
X140878562Y-87029281D01*
X140931549Y-86956040D01*
X141055653Y-86755171D01*
X141157945Y-86542444D01*
X141238088Y-86318899D01*
X141295747Y-86085570D01*
X141330589Y-85843496D01*
X141342277Y-85593713D01*
X141342070Y-85560821D01*
X141327216Y-85315479D01*
X141289438Y-85077652D01*
X141229501Y-84848587D01*
X141148171Y-84629530D01*
X141046216Y-84421731D01*
X140924402Y-84226436D01*
X140783495Y-84044892D01*
X140624261Y-83878348D01*
X140447469Y-83728051D01*
X140253883Y-83595248D01*
X140044271Y-83481188D01*
X139998494Y-83459848D01*
X139776095Y-83372634D01*
X139546074Y-83308252D01*
X139310736Y-83266685D01*
X139072385Y-83247919D01*
X138833323Y-83251938D01*
X138595855Y-83278726D01*
X138362286Y-83328267D01*
X138134917Y-83400547D01*
X137916054Y-83495549D01*
X137762033Y-83579481D01*
X137566236Y-83709996D01*
X137387374Y-83857969D01*
X137226140Y-84022152D01*
X137083224Y-84201300D01*
X136959318Y-84394169D01*
X136855113Y-84599512D01*
X136771300Y-84816084D01*
X136708571Y-85042640D01*
X136667617Y-85277934D01*
X136649129Y-85520720D01*
X132303513Y-85520720D01*
X132302486Y-85470783D01*
X132295559Y-85357379D01*
X132284213Y-85260499D01*
X132274266Y-85201610D01*
X132218438Y-84958680D01*
X132140714Y-84728108D01*
X132041049Y-84509802D01*
X131919395Y-84303671D01*
X131775706Y-84109624D01*
X131609937Y-83927568D01*
X131492211Y-83818148D01*
X131304395Y-83671424D01*
X131103994Y-83545416D01*
X130892717Y-83440642D01*
X130672270Y-83357618D01*
X130444363Y-83296861D01*
X130210705Y-83258889D01*
X129973002Y-83244217D01*
X129732963Y-83253363D01*
X129492297Y-83286844D01*
X129382302Y-83310970D01*
X129166504Y-83376457D01*
X128955345Y-83464029D01*
X128751829Y-83571818D01*
X128558964Y-83697958D01*
X128379754Y-83840579D01*
X128217206Y-83997816D01*
X128074325Y-84167800D01*
X128046877Y-84201697D01*
X128023099Y-84226301D01*
X128008598Y-84235693D01*
X127998696Y-84231092D01*
X127970210Y-84213833D01*
X127926502Y-84185598D01*
X127870515Y-84148325D01*
X127805192Y-84103954D01*
X127733476Y-84054424D01*
X127473068Y-83873156D01*
X127506522Y-83828088D01*
X127601142Y-83706909D01*
X127786734Y-83500249D01*
X127988811Y-83311958D01*
X128206162Y-83142939D01*
X128437580Y-82994094D01*
X128681853Y-82866325D01*
X128937772Y-82760535D01*
X129142878Y-82694910D01*
X129402575Y-82634983D01*
X129665744Y-82598872D01*
X129930622Y-82586333D01*
X130195447Y-82597125D01*
X130458455Y-82631006D01*
X130717883Y-82687732D01*
X130971970Y-82767062D01*
X131218951Y-82868752D01*
X131457065Y-82992562D01*
X131684549Y-83138247D01*
X131881781Y-83290848D01*
X132076752Y-83470883D01*
X132255857Y-83667697D01*
X132417601Y-83879139D01*
X132560485Y-84103058D01*
X132683013Y-84337303D01*
X132783687Y-84579725D01*
X132861010Y-84828171D01*
X132863835Y-84839221D01*
X132878534Y-84901447D01*
X132893815Y-84972678D01*
X132908641Y-85047329D01*
X132921976Y-85119813D01*
X132932783Y-85184545D01*
X132940028Y-85235940D01*
X132942673Y-85268411D01*
X132942673Y-85298218D01*
X135985164Y-85298218D01*
X135991000Y-85269926D01*
X135992012Y-85264603D01*
X135997050Y-85233363D01*
X136003751Y-85187446D01*
X136010949Y-85134753D01*
X136021976Y-85059854D01*
X136073789Y-84813665D01*
X136148516Y-84568592D01*
X136244631Y-84328154D01*
X136360609Y-84095871D01*
X136494923Y-83875264D01*
X136646047Y-83669852D01*
X136665956Y-83645730D01*
X136746233Y-83555405D01*
X136839098Y-83459408D01*
X136938030Y-83364086D01*
X137036506Y-83275786D01*
X137128007Y-83200851D01*
X137320362Y-83065669D01*
X137541406Y-82936974D01*
X137775035Y-82825906D01*
X138016823Y-82734558D01*
X138262345Y-82665019D01*
X138333129Y-82648862D01*
X138436493Y-82627852D01*
X138533585Y-82612124D01*
X138630673Y-82601015D01*
X138734027Y-82593863D01*
X138849914Y-82590009D01*
X138984604Y-82588788D01*
X139012632Y-82588794D01*
X139134078Y-82589800D01*
X139237608Y-82592868D01*
X139329180Y-82598593D01*
X139414751Y-82607575D01*
X139500281Y-82620410D01*
X139591728Y-82637696D01*
X139695049Y-82660030D01*
X139814926Y-82689576D01*
X140073476Y-82771403D01*
X140320432Y-82874713D01*
X140554760Y-82998484D01*
X140775425Y-83141693D01*
X140981395Y-83303316D01*
X141171632Y-83482333D01*
X141345105Y-83677719D01*
X141500777Y-83888452D01*
X141637615Y-84113511D01*
X141754584Y-84351871D01*
X141850651Y-84602510D01*
X141924779Y-84864406D01*
X141946075Y-84958820D01*
X141965845Y-85059131D01*
X141980579Y-85153894D01*
X141990919Y-85249237D01*
X141997509Y-85351286D01*
X142000991Y-85466165D01*
X142001961Y-85593713D01*
X142002008Y-85600000D01*
X142000993Y-85733958D01*
G36*
X131325202Y-85891073D02*
G01*
X131276614Y-86072636D01*
X131245267Y-86156607D01*
X131168275Y-86312292D01*
X131069461Y-86458261D01*
X130947447Y-86596705D01*
X130864555Y-86673625D01*
X130721717Y-86779829D01*
X130568093Y-86865503D01*
X130405977Y-86930650D01*
X130237664Y-86975275D01*
X130065450Y-86999379D01*
X129891628Y-87002966D01*
X129718494Y-86986040D01*
X129548342Y-86948604D01*
X129383467Y-86890661D01*
X129226164Y-86812215D01*
X129078728Y-86713268D01*
X128943453Y-86593825D01*
X128904085Y-86552660D01*
X128817043Y-86448478D01*
X128742807Y-86337391D01*
X128678895Y-86214878D01*
X128622827Y-86076421D01*
X128572120Y-85917500D01*
X128571989Y-85917256D01*
X128565824Y-85915290D01*
X128549974Y-85913486D01*
X128523529Y-85911840D01*
X128485579Y-85910343D01*
X128435215Y-85908992D01*
X128371527Y-85907778D01*
X128293606Y-85906697D01*
X128200541Y-85905742D01*
X128091424Y-85904907D01*
X127965345Y-85904186D01*
X127821394Y-85903573D01*
X127658661Y-85903061D01*
X127476238Y-85902645D01*
X127273214Y-85902318D01*
X127048680Y-85902075D01*
X126801726Y-85901908D01*
X126531443Y-85901813D01*
X126236921Y-85901782D01*
X123906222Y-85901782D01*
X123883583Y-86055817D01*
X123872964Y-86122882D01*
X123818187Y-86379620D01*
X123742489Y-86630547D01*
X123647128Y-86872735D01*
X123533364Y-87103255D01*
X123402453Y-87319178D01*
X123255654Y-87517575D01*
X123247115Y-87527921D01*
X123174593Y-87610595D01*
X123089491Y-87700408D01*
X122998605Y-87790585D01*
X122908737Y-87874354D01*
X122826683Y-87944941D01*
X122698015Y-88043269D01*
X122483696Y-88183096D01*
X122255371Y-88305555D01*
X122016628Y-88409154D01*
X121771053Y-88492397D01*
X121522235Y-88553789D01*
X121273762Y-88591837D01*
X121235549Y-88595854D01*
X121177447Y-88602019D01*
X121128934Y-88607233D01*
X121097722Y-88610670D01*
X121075614Y-88612474D01*
X121017245Y-88614155D01*
X120941993Y-88613745D01*
X120855196Y-88611484D01*
X120762193Y-88607614D01*
X120668322Y-88602373D01*
X120578923Y-88596003D01*
X120499334Y-88588743D01*
X120434893Y-88580834D01*
X120178566Y-88532574D01*
X119914626Y-88459355D01*
X119661925Y-88363787D01*
X119419936Y-88245671D01*
X119188134Y-88104804D01*
X119099580Y-88042980D01*
X118889668Y-87875370D01*
X118697597Y-87690501D01*
X118523998Y-87489311D01*
X118369499Y-87272735D01*
X118234731Y-87041710D01*
X118120324Y-86797173D01*
X118026908Y-86540062D01*
X117955113Y-86271311D01*
X117923050Y-86101257D01*
X117894030Y-85845057D01*
X117885843Y-85582526D01*
X117889333Y-85509030D01*
X118557969Y-85509030D01*
X118558756Y-85633195D01*
X118563747Y-85760418D01*
X118572662Y-85883696D01*
X118585222Y-85996023D01*
X118601147Y-86090396D01*
X118653169Y-86294965D01*
X118733801Y-86522942D01*
X118834672Y-86737342D01*
X118954757Y-86937274D01*
X119093030Y-87121849D01*
X119248466Y-87290176D01*
X119420038Y-87441366D01*
X119606722Y-87574528D01*
X119807491Y-87688772D01*
X120021321Y-87783209D01*
X120247185Y-87856947D01*
X120484058Y-87909097D01*
X120730914Y-87938769D01*
X120745305Y-87939792D01*
X120810183Y-87944021D01*
X120867104Y-87947147D01*
X120910364Y-87948885D01*
X120934257Y-87948950D01*
X120949896Y-87947920D01*
X120989507Y-87945526D01*
X121034851Y-87942962D01*
X121175115Y-87931388D01*
X121413815Y-87893094D01*
X121643907Y-87832520D01*
X121864060Y-87750533D01*
X122072947Y-87648002D01*
X122269239Y-87525794D01*
X122451607Y-87384775D01*
X122618723Y-87225814D01*
X122769258Y-87049778D01*
X122901884Y-86857535D01*
X123015272Y-86649951D01*
X123072306Y-86522297D01*
X123150020Y-86303923D01*
X123204801Y-86079902D01*
X123237239Y-85847590D01*
X123247920Y-85604344D01*
X123247808Y-85577316D01*
X123246343Y-85497106D01*
X123243451Y-85418586D01*
X123239468Y-85349574D01*
X123234730Y-85297888D01*
X123230383Y-85264582D01*
X123185444Y-85024637D01*
X123118388Y-84794701D01*
X123030164Y-84575947D01*
X122921719Y-84369549D01*
X122794004Y-84176681D01*
X122647966Y-83998517D01*
X122484554Y-83836231D01*
X122304717Y-83690996D01*
X122109402Y-83563986D01*
X121899560Y-83456375D01*
X121676138Y-83369337D01*
X121584402Y-83341007D01*
X121357522Y-83288153D01*
X121125863Y-83257274D01*
X120892023Y-83248048D01*
X120658604Y-83260149D01*
X120428205Y-83293255D01*
X120203426Y-83347041D01*
X119986868Y-83421185D01*
X119781130Y-83515361D01*
X119588812Y-83629246D01*
X119505455Y-83687483D01*
X119316451Y-83840288D01*
X119147231Y-84008387D01*
X118998192Y-84191126D01*
X118869734Y-84387853D01*
X118762254Y-84597915D01*
X118676150Y-84820657D01*
X118611821Y-85055427D01*
X118569664Y-85301572D01*
X118561665Y-85394927D01*
X118557969Y-85509030D01*
X117889333Y-85509030D01*
X117898398Y-85318125D01*
X117931602Y-85056313D01*
X117985364Y-84801549D01*
X118048620Y-84587869D01*
X118146532Y-84335623D01*
X118266245Y-84094838D01*
X118406979Y-83866754D01*
X118567957Y-83652612D01*
X118748399Y-83453650D01*
X118947524Y-83271108D01*
X119123370Y-83136007D01*
X119344145Y-82994776D01*
X119578897Y-82872654D01*
X119825379Y-82770554D01*
X120081342Y-82689392D01*
X120344538Y-82630082D01*
X120612719Y-82593539D01*
X120665976Y-82589561D01*
X120775143Y-82585352D01*
X120896698Y-82584620D01*
X121023160Y-82587175D01*
X121147047Y-82592824D01*
X121260876Y-82601374D01*
X121357164Y-82612635D01*
X121509995Y-82638973D01*
X121777007Y-82703888D01*
X122033427Y-82790724D01*
X122278217Y-82898674D01*
X122510335Y-83026930D01*
X122728741Y-83174686D01*
X122932397Y-83341134D01*
X123120261Y-83525468D01*
X123291293Y-83726879D01*
X123444454Y-83944560D01*
X123578703Y-84177705D01*
X123693000Y-84425507D01*
X123741629Y-84555810D01*
X123793245Y-84720886D01*
X123837672Y-84892647D01*
X123872577Y-85061944D01*
X123895623Y-85219629D01*
X123904251Y-85298218D01*
X126274243Y-85298218D01*
X126565719Y-85298179D01*
X126833070Y-85298076D01*
X127077206Y-85297900D01*
X127299035Y-85297647D01*
X127499467Y-85297310D01*
X127679412Y-85296882D01*
X127839778Y-85296359D01*
X127981476Y-85295733D01*
X128105415Y-85294998D01*
X128212504Y-85294150D01*
X128303652Y-85293180D01*
X128379769Y-85292084D01*
X128441764Y-85290854D01*
X128490547Y-85289486D01*
X128527026Y-85287973D01*
X128552112Y-85286308D01*
X128566714Y-85284486D01*
X128571741Y-85282500D01*
X128620266Y-85122432D01*
X128683459Y-84967868D01*
X128759704Y-84829455D01*
X128851129Y-84703370D01*
X128959865Y-84585791D01*
X128992527Y-84555030D01*
X129046063Y-84507642D01*
X129097436Y-84465287D01*
X129138960Y-84434461D01*
X129277302Y-84352631D01*
X129444004Y-84279728D01*
X129617628Y-84228637D01*
X129795638Y-84199292D01*
X129975498Y-84191630D01*
X130154671Y-84205588D01*
X130330623Y-84241103D01*
X130500818Y-84298111D01*
X130662718Y-84376549D01*
X130813789Y-84476353D01*
X130925555Y-84571826D01*
X131046295Y-84703563D01*
X131148068Y-84849108D01*
X131230244Y-85006296D01*
X131292196Y-85172961D01*
X131333295Y-85346936D01*
X131352915Y-85526057D01*
X131351845Y-85604344D01*
X131350427Y-85708158D01*
X131325202Y-85891073D01*
G37*
X131325202Y-85891073D02*
X131276614Y-86072636D01*
X131245267Y-86156607D01*
X131168275Y-86312292D01*
X131069461Y-86458261D01*
X130947447Y-86596705D01*
X130864555Y-86673625D01*
X130721717Y-86779829D01*
X130568093Y-86865503D01*
X130405977Y-86930650D01*
X130237664Y-86975275D01*
X130065450Y-86999379D01*
X129891628Y-87002966D01*
X129718494Y-86986040D01*
X129548342Y-86948604D01*
X129383467Y-86890661D01*
X129226164Y-86812215D01*
X129078728Y-86713268D01*
X128943453Y-86593825D01*
X128904085Y-86552660D01*
X128817043Y-86448478D01*
X128742807Y-86337391D01*
X128678895Y-86214878D01*
X128622827Y-86076421D01*
X128572120Y-85917500D01*
X128571989Y-85917256D01*
X128565824Y-85915290D01*
X128549974Y-85913486D01*
X128523529Y-85911840D01*
X128485579Y-85910343D01*
X128435215Y-85908992D01*
X128371527Y-85907778D01*
X128293606Y-85906697D01*
X128200541Y-85905742D01*
X128091424Y-85904907D01*
X127965345Y-85904186D01*
X127821394Y-85903573D01*
X127658661Y-85903061D01*
X127476238Y-85902645D01*
X127273214Y-85902318D01*
X127048680Y-85902075D01*
X126801726Y-85901908D01*
X126531443Y-85901813D01*
X126236921Y-85901782D01*
X123906222Y-85901782D01*
X123883583Y-86055817D01*
X123872964Y-86122882D01*
X123818187Y-86379620D01*
X123742489Y-86630547D01*
X123647128Y-86872735D01*
X123533364Y-87103255D01*
X123402453Y-87319178D01*
X123255654Y-87517575D01*
X123247115Y-87527921D01*
X123174593Y-87610595D01*
X123089491Y-87700408D01*
X122998605Y-87790585D01*
X122908737Y-87874354D01*
X122826683Y-87944941D01*
X122698015Y-88043269D01*
X122483696Y-88183096D01*
X122255371Y-88305555D01*
X122016628Y-88409154D01*
X121771053Y-88492397D01*
X121522235Y-88553789D01*
X121273762Y-88591837D01*
X121235549Y-88595854D01*
X121177447Y-88602019D01*
X121128934Y-88607233D01*
X121097722Y-88610670D01*
X121075614Y-88612474D01*
X121017245Y-88614155D01*
X120941993Y-88613745D01*
X120855196Y-88611484D01*
X120762193Y-88607614D01*
X120668322Y-88602373D01*
X120578923Y-88596003D01*
X120499334Y-88588743D01*
X120434893Y-88580834D01*
X120178566Y-88532574D01*
X119914626Y-88459355D01*
X119661925Y-88363787D01*
X119419936Y-88245671D01*
X119188134Y-88104804D01*
X119099580Y-88042980D01*
X118889668Y-87875370D01*
X118697597Y-87690501D01*
X118523998Y-87489311D01*
X118369499Y-87272735D01*
X118234731Y-87041710D01*
X118120324Y-86797173D01*
X118026908Y-86540062D01*
X117955113Y-86271311D01*
X117923050Y-86101257D01*
X117894030Y-85845057D01*
X117885843Y-85582526D01*
X117889333Y-85509030D01*
X118557969Y-85509030D01*
X118558756Y-85633195D01*
X118563747Y-85760418D01*
X118572662Y-85883696D01*
X118585222Y-85996023D01*
X118601147Y-86090396D01*
X118653169Y-86294965D01*
X118733801Y-86522942D01*
X118834672Y-86737342D01*
X118954757Y-86937274D01*
X119093030Y-87121849D01*
X119248466Y-87290176D01*
X119420038Y-87441366D01*
X119606722Y-87574528D01*
X119807491Y-87688772D01*
X120021321Y-87783209D01*
X120247185Y-87856947D01*
X120484058Y-87909097D01*
X120730914Y-87938769D01*
X120745305Y-87939792D01*
X120810183Y-87944021D01*
X120867104Y-87947147D01*
X120910364Y-87948885D01*
X120934257Y-87948950D01*
X120949896Y-87947920D01*
X120989507Y-87945526D01*
X121034851Y-87942962D01*
X121175115Y-87931388D01*
X121413815Y-87893094D01*
X121643907Y-87832520D01*
X121864060Y-87750533D01*
X122072947Y-87648002D01*
X122269239Y-87525794D01*
X122451607Y-87384775D01*
X122618723Y-87225814D01*
X122769258Y-87049778D01*
X122901884Y-86857535D01*
X123015272Y-86649951D01*
X123072306Y-86522297D01*
X123150020Y-86303923D01*
X123204801Y-86079902D01*
X123237239Y-85847590D01*
X123247920Y-85604344D01*
X123247808Y-85577316D01*
X123246343Y-85497106D01*
X123243451Y-85418586D01*
X123239468Y-85349574D01*
X123234730Y-85297888D01*
X123230383Y-85264582D01*
X123185444Y-85024637D01*
X123118388Y-84794701D01*
X123030164Y-84575947D01*
X122921719Y-84369549D01*
X122794004Y-84176681D01*
X122647966Y-83998517D01*
X122484554Y-83836231D01*
X122304717Y-83690996D01*
X122109402Y-83563986D01*
X121899560Y-83456375D01*
X121676138Y-83369337D01*
X121584402Y-83341007D01*
X121357522Y-83288153D01*
X121125863Y-83257274D01*
X120892023Y-83248048D01*
X120658604Y-83260149D01*
X120428205Y-83293255D01*
X120203426Y-83347041D01*
X119986868Y-83421185D01*
X119781130Y-83515361D01*
X119588812Y-83629246D01*
X119505455Y-83687483D01*
X119316451Y-83840288D01*
X119147231Y-84008387D01*
X118998192Y-84191126D01*
X118869734Y-84387853D01*
X118762254Y-84597915D01*
X118676150Y-84820657D01*
X118611821Y-85055427D01*
X118569664Y-85301572D01*
X118561665Y-85394927D01*
X118557969Y-85509030D01*
X117889333Y-85509030D01*
X117898398Y-85318125D01*
X117931602Y-85056313D01*
X117985364Y-84801549D01*
X118048620Y-84587869D01*
X118146532Y-84335623D01*
X118266245Y-84094838D01*
X118406979Y-83866754D01*
X118567957Y-83652612D01*
X118748399Y-83453650D01*
X118947524Y-83271108D01*
X119123370Y-83136007D01*
X119344145Y-82994776D01*
X119578897Y-82872654D01*
X119825379Y-82770554D01*
X120081342Y-82689392D01*
X120344538Y-82630082D01*
X120612719Y-82593539D01*
X120665976Y-82589561D01*
X120775143Y-82585352D01*
X120896698Y-82584620D01*
X121023160Y-82587175D01*
X121147047Y-82592824D01*
X121260876Y-82601374D01*
X121357164Y-82612635D01*
X121509995Y-82638973D01*
X121777007Y-82703888D01*
X122033427Y-82790724D01*
X122278217Y-82898674D01*
X122510335Y-83026930D01*
X122728741Y-83174686D01*
X122932397Y-83341134D01*
X123120261Y-83525468D01*
X123291293Y-83726879D01*
X123444454Y-83944560D01*
X123578703Y-84177705D01*
X123693000Y-84425507D01*
X123741629Y-84555810D01*
X123793245Y-84720886D01*
X123837672Y-84892647D01*
X123872577Y-85061944D01*
X123895623Y-85219629D01*
X123904251Y-85298218D01*
X126274243Y-85298218D01*
X126565719Y-85298179D01*
X126833070Y-85298076D01*
X127077206Y-85297900D01*
X127299035Y-85297647D01*
X127499467Y-85297310D01*
X127679412Y-85296882D01*
X127839778Y-85296359D01*
X127981476Y-85295733D01*
X128105415Y-85294998D01*
X128212504Y-85294150D01*
X128303652Y-85293180D01*
X128379769Y-85292084D01*
X128441764Y-85290854D01*
X128490547Y-85289486D01*
X128527026Y-85287973D01*
X128552112Y-85286308D01*
X128566714Y-85284486D01*
X128571741Y-85282500D01*
X128620266Y-85122432D01*
X128683459Y-84967868D01*
X128759704Y-84829455D01*
X128851129Y-84703370D01*
X128959865Y-84585791D01*
X128992527Y-84555030D01*
X129046063Y-84507642D01*
X129097436Y-84465287D01*
X129138960Y-84434461D01*
X129277302Y-84352631D01*
X129444004Y-84279728D01*
X129617628Y-84228637D01*
X129795638Y-84199292D01*
X129975498Y-84191630D01*
X130154671Y-84205588D01*
X130330623Y-84241103D01*
X130500818Y-84298111D01*
X130662718Y-84376549D01*
X130813789Y-84476353D01*
X130925555Y-84571826D01*
X131046295Y-84703563D01*
X131148068Y-84849108D01*
X131230244Y-85006296D01*
X131292196Y-85172961D01*
X131333295Y-85346936D01*
X131352915Y-85526057D01*
X131351845Y-85604344D01*
X131350427Y-85708158D01*
X131325202Y-85891073D01*
G36*
X121201338Y-84691510D02*
G01*
X121204604Y-85291931D01*
X121805024Y-85295196D01*
X122405445Y-85298462D01*
X122405445Y-85901782D01*
X121198316Y-85901782D01*
X121198316Y-87108911D01*
X120594752Y-87108911D01*
X120594752Y-85901782D01*
X119387623Y-85901782D01*
X119387623Y-85298218D01*
X120594752Y-85298218D01*
X120594752Y-84091089D01*
X121198073Y-84091089D01*
X121201338Y-84691510D01*
G37*
X121201338Y-84691510D02*
X121204604Y-85291931D01*
X121805024Y-85295196D01*
X122405445Y-85298462D01*
X122405445Y-85901782D01*
X121198316Y-85901782D01*
X121198316Y-87108911D01*
X120594752Y-87108911D01*
X120594752Y-85901782D01*
X119387623Y-85901782D01*
X119387623Y-85298218D01*
X120594752Y-85298218D01*
X120594752Y-84091089D01*
X121198073Y-84091089D01*
X121201338Y-84691510D01*
G36*
X140499802Y-85901782D02*
G01*
X137481980Y-85901782D01*
X137481980Y-85298218D01*
X140499802Y-85298218D01*
X140499802Y-85901782D01*
G37*
X140499802Y-85901782D02*
X137481980Y-85901782D01*
X137481980Y-85298218D01*
X140499802Y-85298218D01*
X140499802Y-85901782D01*
D14*
%TO.C,TP13*%
X115600000Y-55000000D02*
G75*
G03*
X115600000Y-55000000I-1200000J0D01*
G01*
%TO.C,R5*%
X120054724Y-57477500D02*
X119545276Y-57477500D01*
X120054724Y-58522500D02*
X119545276Y-58522500D01*
%TD*%
%LPC*%
D18*
%TO.C,J12*%
X145350420Y-97200010D03*
D19*
X145350420Y-102198730D03*
X145350420Y-107199990D03*
%TD*%
D20*
%TO.C,J16*%
X55100000Y-101900000D03*
D21*
X55100000Y-104440000D03*
X55100000Y-106980000D03*
X55100000Y-109520000D03*
%TD*%
D20*
%TO.C,J14*%
X84800000Y-144100000D03*
D21*
X84800000Y-146640000D03*
X82260000Y-144100000D03*
X82260000Y-146640000D03*
X79720000Y-144100000D03*
X79720000Y-146640000D03*
X77180000Y-144100000D03*
X77180000Y-146640000D03*
X74640000Y-144100000D03*
X74640000Y-146640000D03*
X72100000Y-144100000D03*
X72100000Y-146640000D03*
X69560000Y-144100000D03*
X69560000Y-146640000D03*
X67020000Y-144100000D03*
X67020000Y-146640000D03*
X64480000Y-144100000D03*
X64480000Y-146640000D03*
X61940000Y-144100000D03*
X61940000Y-146640000D03*
%TD*%
D22*
%TO.C,J10*%
X136600000Y-124860000D03*
D23*
X136600000Y-129940000D03*
%TD*%
D20*
%TO.C,J13*%
X144000000Y-112925000D03*
D21*
X144000000Y-115465000D03*
%TD*%
D24*
%TO.C,J5*%
X133086000Y-73352000D03*
D25*
X128260000Y-78940000D03*
X125974000Y-75892000D03*
%TD*%
D26*
%TO.C,S1*%
X95200000Y-99700000D03*
X87580000Y-99700000D03*
X95200000Y-97160000D03*
X87580000Y-97160000D03*
X95200000Y-94620000D03*
X87580000Y-94620000D03*
X95200000Y-92080000D03*
X87580000Y-92080000D03*
X95200000Y-89540000D03*
X87580000Y-89540000D03*
X95200000Y-87000000D03*
X87580000Y-87000000D03*
X95200000Y-84460000D03*
X87580000Y-84460000D03*
X95200000Y-81920000D03*
X87580000Y-81920000D03*
%TD*%
D18*
%TO.C,J9*%
X145350420Y-80600010D03*
D19*
X145350420Y-85598730D03*
X145350420Y-90599990D03*
%TD*%
D27*
%TO.C,J7*%
X135850000Y-65200000D03*
D28*
X141650000Y-65200000D03*
D29*
X138850000Y-60400000D03*
%TD*%
D30*
%TO.C,J11*%
X141840000Y-133900000D03*
D31*
X141840000Y-131400000D03*
X141840000Y-129400000D03*
X141840000Y-126900000D03*
D32*
X144550000Y-136970000D03*
X144550000Y-123830000D03*
%TD*%
D33*
%TO.C,J3*%
X71800000Y-60600000D03*
D31*
X69300000Y-60600000D03*
X67300000Y-60600000D03*
X64800000Y-60600000D03*
D32*
X74870000Y-57890000D03*
X61730000Y-57890000D03*
%TD*%
D34*
%TO.C,H4*%
X55000000Y-145000000D03*
%TD*%
D20*
%TO.C,JP1*%
X114075000Y-147000000D03*
D21*
X116615000Y-147000000D03*
X119155000Y-147000000D03*
%TD*%
D35*
%TO.C,U3*%
X66615000Y-83450000D03*
X66615000Y-96150000D03*
D36*
X68266000Y-91832000D03*
X68266000Y-87768000D03*
D37*
X80585000Y-82180000D03*
X80585000Y-84720000D03*
X80585000Y-97420000D03*
X80585000Y-94880000D03*
X80585000Y-92340000D03*
X80585000Y-89800000D03*
X80585000Y-87260000D03*
%TD*%
D38*
%TO.C,S2*%
X96400000Y-140452500D03*
X100400000Y-140452500D03*
X104400000Y-140452500D03*
D39*
X94400000Y-144702500D03*
X94400000Y-138702500D03*
X106400000Y-138702500D03*
X106400000Y-144702500D03*
%TD*%
D34*
%TO.C,H3*%
X145000000Y-145000000D03*
%TD*%
D33*
%TO.C,J8*%
X127900000Y-140840000D03*
D31*
X130400000Y-140840000D03*
X132400000Y-140840000D03*
X134900000Y-140840000D03*
D32*
X137970000Y-143550000D03*
X124830000Y-143550000D03*
%TD*%
D20*
%TO.C,J4*%
X93250000Y-75900000D03*
D21*
X95790000Y-75900000D03*
X98330000Y-75900000D03*
X100870000Y-75900000D03*
X103410000Y-75900000D03*
X105950000Y-75900000D03*
%TD*%
D40*
%TO.C,RV1*%
X139500000Y-119000000D03*
X136960000Y-113920000D03*
X134420000Y-119000000D03*
%TD*%
D41*
%TO.C,J1*%
X55050000Y-89800000D03*
D42*
X60050000Y-84800000D03*
X60050000Y-87300000D03*
X60050000Y-92300000D03*
X60050000Y-94800000D03*
D43*
X55050000Y-84800000D03*
X55050000Y-94800000D03*
X60050000Y-89800000D03*
%TD*%
D34*
%TO.C,H2*%
X145000000Y-55000000D03*
%TD*%
D44*
%TO.C,TP11*%
X113800000Y-69800000D03*
%TD*%
D34*
%TO.C,H1*%
X55000000Y-55000000D03*
%TD*%
D20*
%TO.C,J15*%
X58800000Y-101900000D03*
D21*
X58800000Y-104440000D03*
X58800000Y-106980000D03*
X58800000Y-109520000D03*
%TD*%
D45*
%TO.C,J6*%
X114260000Y-142400000D03*
D23*
X119340000Y-142400000D03*
%TD*%
D46*
%TO.C,D7*%
X116787500Y-110070500D03*
D47*
X121867500Y-110070500D03*
%TD*%
D44*
%TO.C,TP12*%
X112400000Y-51800000D03*
%TD*%
D48*
%TO.C,R46*%
X100612500Y-86300000D03*
X98787500Y-86300000D03*
%TD*%
%TO.C,R4*%
X120712500Y-65500000D03*
X118887500Y-65500000D03*
%TD*%
%TO.C,R2*%
X120712500Y-67000000D03*
X118887500Y-67000000D03*
%TD*%
D49*
%TO.C,U7*%
X126040000Y-124870000D03*
X53840000Y-124870000D03*
D50*
X117400000Y-132740000D03*
D51*
X53840000Y-132740000D03*
D50*
X62200000Y-117000000D03*
%TD*%
D52*
%TO.C,C7*%
X126850000Y-56450000D03*
X128750000Y-56450000D03*
%TD*%
D48*
%TO.C,R45*%
X100612500Y-87840000D03*
X98787500Y-87840000D03*
%TD*%
D53*
%TO.C,TP6*%
X87700000Y-58100000D03*
%TD*%
D48*
%TO.C,R3*%
X120712500Y-64000000D03*
X118887500Y-64000000D03*
%TD*%
D53*
%TO.C,TP8*%
X87650000Y-61450000D03*
%TD*%
D48*
%TO.C,R48*%
X100612500Y-83100000D03*
X98787500Y-83100000D03*
%TD*%
%TO.C,R47*%
X100612500Y-84700000D03*
X98787500Y-84700000D03*
%TD*%
%TO.C,R7*%
X120712500Y-61000000D03*
X118887500Y-61000000D03*
%TD*%
%TO.C,R8*%
X120712500Y-62500000D03*
X118887500Y-62500000D03*
%TD*%
%TO.C,R6*%
X120712500Y-59500000D03*
X118887500Y-59500000D03*
%TD*%
D44*
%TO.C,TP13*%
X114400000Y-55000000D03*
%TD*%
D48*
%TO.C,R5*%
X120712500Y-58000000D03*
X118887500Y-58000000D03*
%TD*%
M02*
