%TF.GenerationSoftware,KiCad,Pcbnew,(6.0.9)*%
%TF.CreationDate,2023-01-14T14:27:18+02:00*%
%TF.ProjectId,ESP32_power_meter_MP3_player_WIFI_radio_V2,45535033-325f-4706-9f77-65725f6d6574,rev?*%
%TF.SameCoordinates,Original*%
%TF.FileFunction,Soldermask,Bot*%
%TF.FilePolarity,Negative*%
%FSLAX46Y46*%
G04 Gerber Fmt 4.6, Leading zero omitted, Abs format (unit mm)*
G04 Created by KiCad (PCBNEW (6.0.9)) date 2023-01-14 14:27:18*
%MOMM*%
%LPD*%
G01*
G04 APERTURE LIST*
G04 Aperture macros list*
%AMRoundRect*
0 Rectangle with rounded corners*
0 $1 Rounding radius*
0 $2 $3 $4 $5 $6 $7 $8 $9 X,Y pos of 4 corners*
0 Add a 4 corners polygon primitive as box body*
4,1,4,$2,$3,$4,$5,$6,$7,$8,$9,$2,$3,0*
0 Add four circle primitives for the rounded corners*
1,1,$1+$1,$2,$3*
1,1,$1+$1,$4,$5*
1,1,$1+$1,$6,$7*
1,1,$1+$1,$8,$9*
0 Add four rect primitives between the rounded corners*
20,1,$1+$1,$2,$3,$4,$5,0*
20,1,$1+$1,$4,$5,$6,$7,0*
20,1,$1+$1,$6,$7,$8,$9,0*
20,1,$1+$1,$8,$9,$2,$3,0*%
G04 Aperture macros list end*
%TA.AperFunction,Profile*%
%ADD10C,0.100000*%
%TD*%
%TA.AperFunction,Profile*%
%ADD11C,0.120000*%
%TD*%
%ADD12RoundRect,0.101600X-1.206500X1.206500X-1.206500X-1.206500X1.206500X-1.206500X1.206500X1.206500X0*%
%ADD13C,2.616200*%
%ADD14R,1.700000X1.700000*%
%ADD15O,1.700000X1.700000*%
%ADD16RoundRect,0.650000X-0.650000X0.650000X-0.650000X-0.650000X0.650000X-0.650000X0.650000X0.650000X0*%
%ADD17C,2.600000*%
%ADD18R,5.500000X2.000000*%
%ADD19R,1.800000X5.000000*%
%ADD20C,1.500000*%
%ADD21R,1.800000X4.400000*%
%ADD22O,1.800000X4.000000*%
%ADD23O,4.000000X1.800000*%
%ADD24R,1.500000X1.600000*%
%ADD25C,1.600000*%
%ADD26C,3.000000*%
%ADD27R,1.600000X1.500000*%
%ADD28C,3.200000*%
%ADD29C,3.810000*%
%ADD30C,2.700000*%
%ADD31C,1.524000*%
%ADD32C,1.300000*%
%ADD33C,1.710000*%
%ADD34C,1.440000*%
%ADD35R,1.950000X1.950000*%
%ADD36C,1.950000*%
%ADD37C,2.400000*%
%ADD38C,2.000000*%
%ADD39RoundRect,0.650000X-0.650000X-0.650000X0.650000X-0.650000X0.650000X0.650000X-0.650000X0.650000X0*%
%ADD40R,2.400000X2.400000*%
%ADD41O,2.400000X2.400000*%
%ADD42RoundRect,0.237500X0.250000X0.237500X-0.250000X0.237500X-0.250000X-0.237500X0.250000X-0.237500X0*%
%ADD43C,1.980000*%
%ADD44C,5.325000*%
%ADD45C,3.585000*%
%ADD46RoundRect,0.250000X-0.250000X-0.475000X0.250000X-0.475000X0.250000X0.475000X-0.250000X0.475000X0*%
%ADD47R,1.500000X1.500000*%
G04 APERTURE END LIST*
D10*
X149961600Y-145105552D02*
X149961600Y-54944997D01*
X54944997Y-50017244D02*
G75*
G03*
X50016884Y-54944848I-257J-4927856D01*
G01*
X149961593Y-54944997D02*
G75*
G03*
X145105552Y-50016884I-4856293J71297D01*
G01*
X145034000Y-149961584D02*
G75*
G03*
X149961600Y-145105552I70800J4856284D01*
G01*
X50038000Y-145054603D02*
X50016884Y-54944848D01*
X50038007Y-145054603D02*
G75*
G03*
X54894048Y-149982716I4856293J-71297D01*
G01*
X145034000Y-149961600D02*
X54894048Y-149982716D01*
X54944997Y-50017243D02*
X145105552Y-50016884D01*
D11*
%TO.C,J5*%
X140182000Y-77400000D02*
G75*
G03*
X140182000Y-77400000I-1000000J0D01*
G01*
X123530000Y-77400000D02*
G75*
G03*
X123530000Y-77400000I-1000000J0D01*
G01*
%TD*%
D12*
%TO.C,J12*%
X145350420Y-97200010D03*
D13*
X145350420Y-102198730D03*
X145350420Y-107199990D03*
%TD*%
D14*
%TO.C,J16*%
X55100000Y-101900000D03*
D15*
X55100000Y-104440000D03*
X55100000Y-106980000D03*
X55100000Y-109520000D03*
%TD*%
D14*
%TO.C,J14*%
X84800000Y-144100000D03*
D15*
X84800000Y-146640000D03*
X82260000Y-144100000D03*
X82260000Y-146640000D03*
X79720000Y-144100000D03*
X79720000Y-146640000D03*
X77180000Y-144100000D03*
X77180000Y-146640000D03*
X74640000Y-144100000D03*
X74640000Y-146640000D03*
X72100000Y-144100000D03*
X72100000Y-146640000D03*
X69560000Y-144100000D03*
X69560000Y-146640000D03*
X67020000Y-144100000D03*
X67020000Y-146640000D03*
X64480000Y-144100000D03*
X64480000Y-146640000D03*
X61940000Y-144100000D03*
X61940000Y-146640000D03*
%TD*%
D16*
%TO.C,J10*%
X136600000Y-124860000D03*
D17*
X136600000Y-129940000D03*
%TD*%
D14*
%TO.C,J13*%
X144000000Y-112925000D03*
D15*
X144000000Y-115465000D03*
%TD*%
D18*
%TO.C,J5*%
X133086000Y-73352000D03*
D19*
X128260000Y-78940000D03*
X125974000Y-75892000D03*
%TD*%
D20*
%TO.C,S1*%
X95200000Y-99700000D03*
X87580000Y-99700000D03*
X95200000Y-97160000D03*
X87580000Y-97160000D03*
X95200000Y-94620000D03*
X87580000Y-94620000D03*
X95200000Y-92080000D03*
X87580000Y-92080000D03*
X95200000Y-89540000D03*
X87580000Y-89540000D03*
X95200000Y-87000000D03*
X87580000Y-87000000D03*
X95200000Y-84460000D03*
X87580000Y-84460000D03*
X95200000Y-81920000D03*
X87580000Y-81920000D03*
%TD*%
D12*
%TO.C,J9*%
X145350420Y-80600010D03*
D13*
X145350420Y-85598730D03*
X145350420Y-90599990D03*
%TD*%
D21*
%TO.C,J7*%
X135850000Y-65200000D03*
D22*
X141650000Y-65200000D03*
D23*
X138850000Y-60400000D03*
%TD*%
D24*
%TO.C,J11*%
X141840000Y-133900000D03*
D25*
X141840000Y-131400000D03*
X141840000Y-129400000D03*
X141840000Y-126900000D03*
D26*
X144550000Y-136970000D03*
X144550000Y-123830000D03*
%TD*%
D27*
%TO.C,J3*%
X71800000Y-60600000D03*
D25*
X69300000Y-60600000D03*
X67300000Y-60600000D03*
X64800000Y-60600000D03*
D26*
X74870000Y-57890000D03*
X61730000Y-57890000D03*
%TD*%
D28*
%TO.C,H4*%
X55000000Y-145000000D03*
%TD*%
D14*
%TO.C,JP1*%
X114075000Y-147000000D03*
D15*
X116615000Y-147000000D03*
X119155000Y-147000000D03*
%TD*%
D29*
%TO.C,U3*%
X66615000Y-83450000D03*
X66615000Y-96150000D03*
D30*
X68266000Y-91832000D03*
X68266000Y-87768000D03*
D31*
X80585000Y-82180000D03*
X80585000Y-84720000D03*
X80585000Y-97420000D03*
X80585000Y-94880000D03*
X80585000Y-92340000D03*
X80585000Y-89800000D03*
X80585000Y-87260000D03*
%TD*%
D32*
%TO.C,S2*%
X96400000Y-140452500D03*
X100400000Y-140452500D03*
X104400000Y-140452500D03*
D33*
X94400000Y-144702500D03*
X94400000Y-138702500D03*
X106400000Y-138702500D03*
X106400000Y-144702500D03*
%TD*%
D28*
%TO.C,H3*%
X145000000Y-145000000D03*
%TD*%
D27*
%TO.C,J8*%
X127900000Y-140840000D03*
D25*
X130400000Y-140840000D03*
X132400000Y-140840000D03*
X134900000Y-140840000D03*
D26*
X137970000Y-143550000D03*
X124830000Y-143550000D03*
%TD*%
D14*
%TO.C,J4*%
X93250000Y-75900000D03*
D15*
X95790000Y-75900000D03*
X98330000Y-75900000D03*
X100870000Y-75900000D03*
X103410000Y-75900000D03*
X105950000Y-75900000D03*
%TD*%
D34*
%TO.C,RV1*%
X139500000Y-119000000D03*
X136960000Y-113920000D03*
X134420000Y-119000000D03*
%TD*%
D35*
%TO.C,J1*%
X55050000Y-89800000D03*
D36*
X60050000Y-84800000D03*
X60050000Y-87300000D03*
X60050000Y-92300000D03*
X60050000Y-94800000D03*
D37*
X55050000Y-84800000D03*
X55050000Y-94800000D03*
X60050000Y-89800000D03*
%TD*%
D28*
%TO.C,H2*%
X145000000Y-55000000D03*
%TD*%
D38*
%TO.C,TP11*%
X113800000Y-69800000D03*
%TD*%
D28*
%TO.C,H1*%
X55000000Y-55000000D03*
%TD*%
D14*
%TO.C,J15*%
X58800000Y-101900000D03*
D15*
X58800000Y-104440000D03*
X58800000Y-106980000D03*
X58800000Y-109520000D03*
%TD*%
D39*
%TO.C,J6*%
X114260000Y-142400000D03*
D17*
X119340000Y-142400000D03*
%TD*%
D40*
%TO.C,D7*%
X116787500Y-110070500D03*
D41*
X121867500Y-110070500D03*
%TD*%
D38*
%TO.C,TP12*%
X112400000Y-51800000D03*
%TD*%
D42*
%TO.C,R46*%
X100612500Y-86300000D03*
X98787500Y-86300000D03*
%TD*%
%TO.C,R4*%
X120712500Y-65500000D03*
X118887500Y-65500000D03*
%TD*%
%TO.C,R2*%
X120712500Y-67000000D03*
X118887500Y-67000000D03*
%TD*%
D43*
%TO.C,U7*%
X126040000Y-124870000D03*
X53840000Y-124870000D03*
D44*
X117400000Y-132740000D03*
D45*
X53840000Y-132740000D03*
D44*
X62200000Y-117000000D03*
%TD*%
D46*
%TO.C,C7*%
X126850000Y-56450000D03*
X128750000Y-56450000D03*
%TD*%
D42*
%TO.C,R45*%
X100612500Y-87840000D03*
X98787500Y-87840000D03*
%TD*%
D47*
%TO.C,TP6*%
X87700000Y-58100000D03*
%TD*%
D42*
%TO.C,R3*%
X120712500Y-64000000D03*
X118887500Y-64000000D03*
%TD*%
D47*
%TO.C,TP8*%
X87650000Y-61450000D03*
%TD*%
D42*
%TO.C,R48*%
X100612500Y-83100000D03*
X98787500Y-83100000D03*
%TD*%
%TO.C,R47*%
X100612500Y-84700000D03*
X98787500Y-84700000D03*
%TD*%
%TO.C,R7*%
X120712500Y-61000000D03*
X118887500Y-61000000D03*
%TD*%
%TO.C,R8*%
X120712500Y-62500000D03*
X118887500Y-62500000D03*
%TD*%
%TO.C,R6*%
X120712500Y-59500000D03*
X118887500Y-59500000D03*
%TD*%
D38*
%TO.C,TP13*%
X114400000Y-55000000D03*
%TD*%
D42*
%TO.C,R5*%
X120712500Y-58000000D03*
X118887500Y-58000000D03*
%TD*%
M02*
