M48
; DRILL file {KiCad (6.0.9)} date Sat Jan 14 14:27:24 2023
; FORMAT={-:-/ absolute / metric / decimal}
; #@! TF.CreationDate,2023-01-14T14:27:24+02:00
; #@! TF.GenerationSoftware,Kicad,Pcbnew,(6.0.9)
; #@! TF.FileFunction,Plated,1,2,PTH
FMAT,2
METRIC
; #@! TA.AperFunction,Plated,PTH,ViaDrill
T1C0.400
; #@! TA.AperFunction,Plated,PTH,ComponentDrill
T2C0.762
; #@! TA.AperFunction,Plated,PTH,ComponentDrill
T3C0.800
; #@! TA.AperFunction,Plated,PTH,ComponentDrill
T4C0.950
; #@! TA.AperFunction,Plated,PTH,ComponentDrill
T5C1.000
; #@! TA.AperFunction,Plated,PTH,ComponentDrill
T6C1.140
; #@! TA.AperFunction,Plated,PTH,ComponentDrill
T7C1.200
; #@! TA.AperFunction,Plated,PTH,ComponentDrill
T8C1.298
; #@! TA.AperFunction,Plated,PTH,ComponentDrill
T9C1.300
; #@! TA.AperFunction,Plated,PTH,ComponentDrill
T10C1.320
; #@! TA.AperFunction,Plated,PTH,ComponentDrill
T11C1.524
; #@! TA.AperFunction,Plated,PTH,ComponentDrill
T12C1.600
; #@! TA.AperFunction,Plated,PTH,ComponentDrill
T13C2.300
; #@! TA.AperFunction,Plated,PTH,ComponentDrill
T14C2.390
; #@! TA.AperFunction,Plated,PTH,ComponentDrill
T15C3.550
%
G90
G05
T1
X51.963Y-52.784
X51.963Y-54.284
X51.963Y-55.784
X51.963Y-57.284
X51.963Y-58.784
X51.963Y-60.284
X51.963Y-61.784
X51.963Y-63.284
X51.963Y-64.784
X51.963Y-66.284
X51.963Y-67.784
X51.963Y-69.284
X51.963Y-70.784
X51.963Y-72.284
X51.963Y-73.784
X51.963Y-75.284
X51.963Y-76.784
X51.963Y-78.284
X51.963Y-79.784
X51.963Y-81.284
X51.963Y-82.784
X51.963Y-84.284
X51.963Y-85.784
X51.963Y-87.284
X51.963Y-88.784
X51.963Y-90.284
X51.963Y-91.784
X51.963Y-93.284
X51.963Y-94.784
X51.963Y-96.284
X51.963Y-97.784
X51.963Y-99.284
X51.963Y-100.784
X51.963Y-102.284
X51.963Y-103.784
X51.963Y-105.284
X51.963Y-106.784
X51.963Y-108.284
X51.963Y-109.784
X51.963Y-111.284
X51.963Y-112.784
X51.963Y-114.284
X51.963Y-115.784
X51.963Y-117.284
X51.963Y-118.784
X51.963Y-120.284
X51.963Y-121.784
X51.963Y-123.284
X51.963Y-124.784
X51.963Y-126.284
X51.963Y-127.784
X51.963Y-129.284
X51.963Y-130.784
X51.963Y-135.284
X51.963Y-136.784
X51.963Y-138.284
X51.963Y-139.784
X51.963Y-141.284
X51.963Y-142.784
X51.963Y-144.284
X51.963Y-145.784
X51.963Y-147.284
X53.463Y-51.284
X53.463Y-52.784
X53.463Y-57.284
X53.463Y-58.784
X53.463Y-60.284
X53.463Y-61.784
X53.463Y-63.284
X53.463Y-64.784
X53.463Y-66.284
X53.463Y-67.784
X53.463Y-69.284
X53.463Y-70.784
X53.463Y-72.284
X53.463Y-73.784
X53.463Y-75.284
X53.463Y-76.784
X53.463Y-78.284
X53.463Y-79.784
X53.463Y-81.284
X53.463Y-82.784
X53.463Y-87.284
X53.463Y-88.784
X53.463Y-90.284
X53.463Y-91.784
X53.463Y-93.284
X53.463Y-96.284
X53.463Y-97.784
X53.463Y-99.284
X53.463Y-100.784
X53.463Y-102.284
X53.463Y-103.784
X53.463Y-105.284
X53.463Y-106.784
X53.463Y-108.284
X53.463Y-109.784
X53.463Y-111.284
X53.463Y-112.784
X53.463Y-114.284
X53.463Y-115.784
X53.463Y-117.284
X53.463Y-118.784
X53.463Y-120.284
X53.463Y-121.784
X53.463Y-123.284
X53.463Y-127.784
X53.463Y-129.284
X53.463Y-135.284
X53.463Y-136.784
X53.463Y-138.284
X53.463Y-139.784
X53.463Y-141.284
X53.463Y-142.784
X53.463Y-147.284
X53.463Y-148.784
X54.963Y-51.284
X54.963Y-52.784
X54.963Y-57.284
X54.963Y-58.784
X54.963Y-60.284
X54.963Y-61.784
X54.963Y-63.284
X54.963Y-64.784
X54.963Y-66.284
X54.963Y-67.784
X54.963Y-69.284
X54.963Y-70.784
X54.963Y-72.284
X54.963Y-73.784
X54.963Y-75.284
X54.963Y-76.784
X54.963Y-78.284
X54.963Y-79.784
X54.963Y-81.284
X54.963Y-82.784
X54.963Y-87.284
X54.963Y-91.784
X54.963Y-97.784
X54.963Y-99.284
X54.963Y-111.284
X54.963Y-112.784
X54.963Y-114.284
X54.963Y-115.784
X54.963Y-117.284
X54.963Y-118.784
X54.963Y-120.284
X54.963Y-121.784
X54.963Y-123.284
X54.963Y-126.284
X54.963Y-127.784
X54.963Y-129.284
X54.963Y-135.284
X54.963Y-136.784
X54.963Y-138.284
X54.963Y-139.784
X54.963Y-141.284
X54.963Y-142.784
X54.963Y-147.284
X54.963Y-148.784
X56.463Y-51.284
X56.463Y-52.784
X56.463Y-57.284
X56.463Y-58.784
X56.463Y-60.284
X56.463Y-61.784
X56.463Y-63.284
X56.463Y-64.784
X56.463Y-66.284
X56.463Y-67.784
X56.463Y-69.284
X56.463Y-70.784
X56.463Y-72.284
X56.463Y-73.784
X56.463Y-75.284
X56.463Y-76.784
X56.463Y-78.284
X56.463Y-79.784
X56.463Y-81.284
X56.463Y-82.784
X56.463Y-87.284
X56.463Y-91.784
X56.463Y-93.284
X56.463Y-96.284
X56.463Y-97.784
X56.463Y-99.284
X56.463Y-108.284
X56.463Y-111.284
X56.463Y-112.784
X56.463Y-114.284
X56.463Y-115.784
X56.463Y-117.284
X56.463Y-118.784
X56.463Y-120.284
X56.463Y-121.784
X56.463Y-123.284
X56.463Y-124.784
X56.463Y-126.284
X56.463Y-127.784
X56.463Y-129.284
X56.463Y-130.784
X56.463Y-132.284
X56.463Y-133.784
X56.463Y-135.284
X56.463Y-136.784
X56.463Y-138.284
X56.463Y-139.784
X56.463Y-141.284
X56.463Y-142.784
X56.463Y-147.284
X56.463Y-148.784
X57.963Y-51.284
X57.963Y-52.784
X57.963Y-54.284
X57.963Y-55.784
X57.963Y-57.284
X57.963Y-58.784
X57.963Y-60.284
X57.963Y-61.784
X57.963Y-63.284
X57.963Y-64.784
X57.963Y-66.284
X57.963Y-67.784
X57.963Y-69.284
X57.963Y-70.784
X57.963Y-72.284
X57.963Y-73.784
X57.963Y-75.284
X57.963Y-76.784
X57.963Y-78.284
X57.963Y-79.784
X57.963Y-81.284
X57.963Y-82.784
X57.963Y-84.284
X57.963Y-85.784
X57.963Y-87.284
X57.963Y-88.784
X57.963Y-90.284
X57.963Y-91.784
X57.963Y-93.284
X57.963Y-94.784
X57.963Y-96.284
X57.963Y-97.784
X57.963Y-99.284
X57.963Y-111.284
X57.963Y-112.784
X57.963Y-114.284
X57.963Y-115.784
X57.963Y-117.284
X57.963Y-118.784
X57.963Y-120.284
X57.963Y-121.784
X57.963Y-124.784
X57.963Y-127.784
X57.963Y-129.284
X57.963Y-130.784
X57.963Y-132.284
X57.963Y-133.784
X57.963Y-135.284
X57.963Y-136.784
X57.963Y-138.284
X57.963Y-139.784
X57.963Y-141.284
X57.963Y-142.784
X57.963Y-144.284
X57.963Y-145.784
X57.963Y-147.284
X57.963Y-148.784
X59.463Y-51.284
X59.463Y-52.784
X59.463Y-54.284
X59.463Y-55.784
X59.463Y-57.284
X59.463Y-58.784
X59.463Y-60.284
X59.463Y-61.784
X59.463Y-63.284
X59.463Y-64.784
X59.463Y-66.284
X59.463Y-67.784
X59.463Y-69.284
X59.463Y-70.784
X59.463Y-72.284
X59.463Y-73.784
X59.463Y-75.284
X59.463Y-76.784
X59.463Y-78.284
X59.463Y-79.784
X59.463Y-81.284
X59.463Y-82.784
X59.463Y-97.784
X59.463Y-99.284
X59.463Y-111.284
X59.463Y-112.784
X59.463Y-114.284
X59.463Y-120.284
X59.463Y-121.784
X59.463Y-124.784
X59.463Y-127.784
X59.463Y-129.284
X59.463Y-130.784
X59.463Y-132.284
X59.463Y-133.784
X59.463Y-135.284
X59.463Y-136.784
X59.463Y-138.284
X59.463Y-139.784
X59.463Y-141.284
X59.463Y-142.784
X59.463Y-144.284
X59.463Y-145.784
X59.463Y-147.284
X59.463Y-148.784
X60.963Y-51.284
X60.963Y-52.784
X60.963Y-54.284
X60.963Y-55.784
X60.963Y-60.284
X60.963Y-61.784
X60.963Y-63.284
X60.963Y-64.784
X60.963Y-66.284
X60.963Y-67.784
X60.963Y-69.284
X60.963Y-70.784
X60.963Y-72.284
X60.963Y-73.784
X60.963Y-75.284
X60.963Y-76.784
X60.963Y-78.284
X60.963Y-79.784
X60.963Y-81.284
X60.963Y-82.784
X60.963Y-96.284
X60.963Y-97.784
X60.963Y-99.284
X60.963Y-100.784
X60.963Y-102.284
X60.963Y-103.784
X60.963Y-105.284
X60.963Y-108.284
X60.963Y-111.284
X60.963Y-112.784
X60.963Y-120.284
X60.963Y-121.784
X60.963Y-124.784
X60.963Y-127.784
X60.963Y-129.284
X60.963Y-130.784
X60.963Y-132.284
X60.963Y-133.784
X60.963Y-135.284
X60.963Y-136.784
X60.963Y-138.284
X60.963Y-139.784
X60.963Y-141.284
X60.963Y-148.784
X62.463Y-51.284
X62.463Y-52.784
X62.463Y-54.284
X62.463Y-55.784
X62.463Y-66.284
X62.463Y-67.784
X62.463Y-69.284
X62.463Y-70.784
X62.463Y-72.284
X62.463Y-73.784
X62.463Y-75.284
X62.463Y-76.784
X62.463Y-78.284
X62.463Y-79.784
X62.463Y-81.284
X62.463Y-82.784
X62.463Y-84.284
X62.463Y-94.784
X62.463Y-96.284
X62.463Y-97.784
X62.463Y-99.284
X62.463Y-100.784
X62.463Y-102.284
X62.463Y-103.784
X62.463Y-105.284
X62.463Y-108.284
X62.463Y-111.284
X62.463Y-112.784
X62.463Y-120.284
X62.463Y-121.784
X62.463Y-124.784
X62.463Y-127.784
X62.463Y-129.284
X62.463Y-130.784
X62.463Y-132.284
X62.463Y-133.784
X62.463Y-135.284
X62.463Y-136.784
X62.463Y-148.784
X62.625Y-60.475
X63.963Y-51.284
X63.963Y-52.784
X63.963Y-54.284
X63.963Y-55.784
X63.963Y-63.284
X63.963Y-67.784
X63.963Y-69.284
X63.963Y-70.784
X63.963Y-72.284
X63.963Y-73.784
X63.963Y-75.284
X63.963Y-76.784
X63.963Y-78.284
X63.963Y-79.784
X63.963Y-81.284
X63.963Y-82.784
X63.963Y-84.284
X63.963Y-85.784
X63.963Y-87.284
X63.963Y-88.784
X63.963Y-90.284
X63.963Y-93.284
X63.963Y-94.784
X63.963Y-96.284
X63.963Y-97.784
X63.963Y-99.284
X63.963Y-100.784
X63.963Y-102.284
X63.963Y-103.784
X63.963Y-108.284
X63.963Y-111.284
X63.963Y-112.784
X63.963Y-120.284
X63.963Y-121.784
X63.963Y-127.784
X63.963Y-129.284
X63.963Y-130.784
X63.963Y-132.284
X63.963Y-133.784
X63.963Y-135.284
X63.963Y-148.784
X64.4Y-125.5
X65.463Y-51.284
X65.463Y-52.784
X65.463Y-54.284
X65.463Y-55.784
X65.463Y-63.284
X65.463Y-67.784
X65.463Y-69.284
X65.463Y-70.784
X65.463Y-72.284
X65.463Y-73.784
X65.463Y-75.284
X65.463Y-76.784
X65.463Y-78.284
X65.463Y-79.784
X65.463Y-87.284
X65.463Y-88.784
X65.463Y-90.284
X65.463Y-93.284
X65.463Y-99.284
X65.463Y-100.784
X65.463Y-102.284
X65.463Y-103.784
X65.463Y-111.284
X65.463Y-112.784
X65.463Y-114.284
X65.463Y-115.784
X65.463Y-127.784
X65.463Y-129.284
X65.463Y-130.784
X65.463Y-132.284
X65.463Y-133.784
X65.463Y-141.284
X65.463Y-148.784
X65.6Y-137.45
X66.1Y-120.4
X66.5Y-123.2
X66.963Y-51.284
X66.963Y-52.784
X66.963Y-54.284
X66.963Y-55.784
X66.963Y-67.784
X66.963Y-69.284
X66.963Y-70.784
X66.963Y-72.284
X66.963Y-73.784
X66.963Y-75.284
X66.963Y-76.784
X66.963Y-78.284
X66.963Y-79.784
X66.963Y-99.284
X66.963Y-100.784
X66.963Y-102.284
X66.963Y-103.784
X66.963Y-132.284
X66.963Y-139.784
X66.963Y-148.784
X67.3Y-120.5
X67.45Y-63.525
X67.5Y-111.3
X67.6Y-107.2
X68.45Y-138.05
X68.463Y-51.284
X68.463Y-52.784
X68.463Y-54.284
X68.463Y-55.784
X68.463Y-67.784
X68.463Y-69.284
X68.463Y-70.784
X68.463Y-72.284
X68.463Y-73.784
X68.463Y-75.284
X68.463Y-76.784
X68.463Y-78.284
X68.463Y-79.784
X68.463Y-81.284
X68.463Y-85.784
X68.463Y-99.284
X68.463Y-100.784
X68.463Y-148.784
X68.6Y-118.6
X68.924Y-107.3
X69.575Y-115.4
X69.6Y-140.4
X69.963Y-51.284
X69.963Y-52.784
X69.963Y-54.284
X69.963Y-55.784
X69.963Y-67.784
X69.963Y-69.284
X69.963Y-70.784
X69.963Y-72.284
X69.963Y-73.784
X69.963Y-75.284
X69.963Y-76.784
X69.963Y-78.284
X69.963Y-79.784
X69.963Y-81.284
X69.963Y-82.784
X69.963Y-84.284
X69.963Y-85.784
X69.963Y-90.284
X69.963Y-93.284
X69.963Y-94.784
X69.963Y-96.284
X69.963Y-97.784
X69.963Y-99.284
X69.963Y-103.784
X69.963Y-105.284
X69.963Y-109.784
X69.963Y-111.284
X69.963Y-112.784
X69.963Y-148.784
X70.009Y-119.809
X70.1Y-63.525
X70.25Y-118.65
X70.5Y-65.5
X70.8Y-120.7
X71.463Y-51.284
X71.463Y-52.784
X71.463Y-54.284
X71.463Y-55.784
X71.463Y-58.784
X71.463Y-67.784
X71.463Y-69.284
X71.463Y-70.784
X71.463Y-72.284
X71.463Y-73.784
X71.463Y-75.284
X71.463Y-76.784
X71.463Y-78.284
X71.463Y-79.784
X71.463Y-81.284
X71.463Y-82.784
X71.463Y-84.284
X71.463Y-85.784
X71.463Y-87.284
X71.463Y-88.784
X71.463Y-90.284
X71.463Y-91.784
X71.463Y-93.284
X71.463Y-94.784
X71.463Y-96.284
X71.463Y-97.784
X71.463Y-102.284
X71.463Y-103.784
X71.463Y-105.284
X71.463Y-106.784
X71.463Y-108.284
X71.463Y-109.784
X71.463Y-111.284
X71.463Y-112.784
X71.463Y-148.784
X72.7Y-121.2
X72.825Y-119.625
X72.963Y-51.284
X72.963Y-52.784
X72.963Y-54.284
X72.963Y-55.784
X72.963Y-66.284
X72.963Y-67.784
X72.963Y-69.284
X72.963Y-70.784
X72.963Y-72.284
X72.963Y-73.784
X72.963Y-75.284
X72.963Y-76.784
X72.963Y-100.784
X72.963Y-102.284
X72.963Y-103.784
X72.963Y-105.284
X72.963Y-106.784
X72.963Y-108.284
X72.963Y-109.784
X72.963Y-111.284
X72.963Y-112.784
X72.963Y-148.784
X73.99Y-79.962
X74.124Y-119.8
X74.127Y-79.073
X74.15Y-140.05
X74.463Y-51.284
X74.463Y-52.784
X74.463Y-54.284
X74.463Y-55.784
X74.463Y-66.284
X74.463Y-67.784
X74.463Y-69.284
X74.463Y-70.784
X74.463Y-72.284
X74.463Y-73.784
X74.463Y-99.284
X74.463Y-100.784
X74.463Y-102.284
X74.463Y-103.784
X74.463Y-105.284
X74.463Y-106.784
X74.463Y-108.284
X74.463Y-109.784
X74.463Y-111.284
X74.463Y-112.784
X74.463Y-148.784
X74.8Y-121.6
X75.35Y-136.75
X75.5Y-123.0
X75.9Y-117.8
X75.963Y-52.784
X75.963Y-54.284
X75.963Y-55.784
X75.963Y-66.284
X75.963Y-70.784
X75.963Y-72.284
X75.963Y-100.784
X75.963Y-102.284
X75.963Y-103.784
X75.963Y-105.284
X75.963Y-106.784
X75.963Y-108.284
X75.963Y-109.784
X75.963Y-111.284
X75.963Y-115.784
X75.963Y-148.784
X76.0Y-139.7
X76.2Y-67.8
X76.359Y-138.041
X76.6Y-79.0
X76.6Y-79.9
X76.7Y-114.0
X77.212Y-51.2
X77.463Y-52.784
X77.463Y-55.784
X77.463Y-58.784
X77.463Y-60.284
X77.463Y-70.784
X77.463Y-76.784
X77.463Y-81.284
X77.463Y-85.784
X77.463Y-87.284
X77.463Y-88.784
X77.463Y-90.284
X77.463Y-91.784
X77.463Y-93.284
X77.463Y-94.784
X77.463Y-102.284
X77.463Y-103.784
X77.463Y-105.284
X77.463Y-106.784
X77.463Y-108.284
X77.463Y-109.784
X77.463Y-111.284
X77.463Y-115.784
X77.463Y-118.784
X77.463Y-120.284
X77.463Y-121.784
X77.463Y-123.284
X77.463Y-124.784
X77.463Y-126.284
X77.463Y-127.784
X77.463Y-129.284
X77.463Y-130.784
X77.463Y-132.284
X77.463Y-133.784
X77.463Y-135.284
X77.463Y-136.784
X77.463Y-148.784
X78.712Y-57.8
X78.963Y-55.784
X78.963Y-60.284
X78.963Y-61.784
X78.963Y-75.284
X78.963Y-76.784
X78.963Y-78.284
X78.963Y-81.284
X78.963Y-85.784
X78.963Y-87.284
X78.963Y-88.784
X78.963Y-90.284
X78.963Y-91.784
X78.963Y-93.284
X78.963Y-94.784
X78.963Y-96.284
X78.963Y-103.784
X78.963Y-105.284
X78.963Y-106.784
X78.963Y-108.284
X78.963Y-109.784
X78.963Y-111.284
X78.963Y-112.784
X78.963Y-114.284
X78.963Y-115.784
X78.963Y-118.784
X78.963Y-120.284
X78.963Y-121.784
X78.963Y-123.284
X78.963Y-124.784
X78.963Y-126.284
X78.963Y-127.784
X78.963Y-148.784
X80.463Y-55.784
X80.463Y-60.284
X80.463Y-73.784
X80.463Y-75.284
X80.463Y-76.784
X80.463Y-78.284
X80.463Y-105.284
X80.463Y-106.784
X80.463Y-108.284
X80.463Y-109.784
X80.463Y-111.284
X80.463Y-112.784
X80.463Y-114.284
X80.463Y-115.784
X80.463Y-118.784
X80.463Y-120.284
X80.463Y-121.784
X80.463Y-123.284
X80.463Y-124.784
X80.463Y-126.284
X80.463Y-130.784
X80.463Y-132.284
X80.463Y-133.784
X80.463Y-135.284
X80.463Y-148.784
X81.45Y-137.55
X81.963Y-51.284
X81.963Y-52.784
X81.963Y-55.784
X81.963Y-60.284
X81.963Y-72.284
X81.963Y-73.784
X81.963Y-75.284
X81.963Y-76.784
X81.963Y-81.284
X81.963Y-82.784
X81.963Y-84.284
X81.963Y-85.784
X81.963Y-88.784
X81.963Y-93.284
X81.963Y-96.284
X81.963Y-106.784
X81.963Y-108.284
X81.963Y-109.784
X81.963Y-111.284
X81.963Y-112.784
X81.963Y-114.284
X81.963Y-115.784
X81.963Y-118.784
X81.963Y-120.284
X81.963Y-121.784
X81.963Y-123.284
X81.963Y-124.784
X81.963Y-126.284
X81.963Y-129.284
X81.963Y-141.284
X81.963Y-148.784
X83.463Y-69.284
X83.463Y-70.784
X83.463Y-72.284
X83.463Y-73.784
X83.463Y-75.284
X83.463Y-79.784
X83.463Y-94.784
X83.463Y-100.784
X83.463Y-108.284
X83.463Y-109.784
X83.463Y-111.284
X83.463Y-112.784
X83.463Y-114.284
X83.463Y-115.784
X83.463Y-118.784
X83.463Y-120.284
X83.463Y-121.784
X83.463Y-123.284
X83.463Y-124.784
X83.463Y-126.284
X83.463Y-129.284
X83.463Y-141.284
X83.463Y-148.784
X83.6Y-91.4
X84.4Y-57.7
X84.4Y-92.6
X84.963Y-52.784
X84.963Y-69.284
X84.963Y-70.784
X84.963Y-72.284
X84.963Y-73.784
X84.963Y-78.284
X84.963Y-97.784
X84.963Y-100.784
X84.963Y-103.784
X84.963Y-108.284
X84.963Y-109.784
X84.963Y-111.284
X84.963Y-112.784
X84.963Y-114.284
X84.963Y-115.784
X84.963Y-118.784
X84.963Y-120.284
X84.963Y-121.784
X84.963Y-123.284
X84.963Y-124.784
X84.963Y-126.284
X84.963Y-129.284
X84.963Y-133.784
X84.963Y-141.284
X84.963Y-148.784
X85.521Y-137.421
X85.6Y-92.6
X85.6Y-94.1
X86.1Y-51.3
X86.463Y-63.284
X86.463Y-69.284
X86.463Y-70.784
X86.463Y-72.284
X86.463Y-76.784
X86.463Y-85.784
X86.463Y-103.784
X86.463Y-105.284
X86.463Y-108.284
X86.463Y-109.784
X86.463Y-111.284
X86.463Y-112.784
X86.463Y-114.284
X86.463Y-115.784
X86.463Y-118.784
X86.463Y-120.284
X86.463Y-121.784
X86.463Y-123.284
X86.463Y-124.784
X86.463Y-126.284
X86.463Y-129.284
X86.463Y-142.784
X86.463Y-144.284
X86.463Y-148.784
X86.75Y-134.95
X87.5Y-140.5
X87.694Y-136.493
X87.9Y-75.6
X87.963Y-63.284
X87.963Y-64.784
X87.963Y-69.284
X87.963Y-70.784
X87.963Y-79.784
X87.963Y-103.784
X87.963Y-105.284
X87.963Y-108.284
X87.963Y-109.784
X87.963Y-111.284
X87.963Y-112.784
X87.963Y-114.284
X87.963Y-115.784
X87.963Y-118.784
X87.963Y-120.284
X87.963Y-121.784
X87.963Y-123.284
X87.963Y-124.784
X87.963Y-126.284
X87.963Y-129.284
X87.963Y-142.784
X87.963Y-144.284
X87.963Y-145.784
X87.963Y-148.784
X89.175Y-50.525
X89.2Y-55.1
X89.463Y-64.784
X89.463Y-73.784
X89.463Y-82.784
X89.463Y-90.284
X89.463Y-91.784
X89.463Y-94.784
X89.463Y-96.284
X89.463Y-97.784
X89.463Y-99.284
X89.463Y-100.784
X89.463Y-103.784
X89.463Y-109.784
X89.463Y-111.284
X89.463Y-112.784
X89.463Y-114.284
X89.463Y-115.784
X89.463Y-120.284
X89.463Y-121.784
X89.463Y-123.284
X89.463Y-124.784
X89.463Y-126.284
X89.463Y-129.284
X89.463Y-130.784
X89.463Y-142.784
X89.463Y-144.284
X89.463Y-145.784
X89.463Y-148.784
X89.7Y-59.3
X89.7Y-62.1
X89.7Y-117.8
X89.95Y-77.5
X89.95Y-80.0
X90.2Y-134.8
X90.5Y-70.3
X90.7Y-105.0
X90.7Y-107.9
X90.963Y-90.284
X90.963Y-91.784
X90.963Y-94.784
X90.963Y-96.284
X90.963Y-97.784
X90.963Y-99.284
X90.963Y-100.784
X90.963Y-141.284
X90.963Y-142.784
X90.963Y-144.284
X90.963Y-145.784
X90.963Y-148.784
X91.2Y-133.1
X91.225Y-50.875
X91.373Y-70.518
X91.6Y-118.9
X91.6Y-136.0
X91.8Y-130.5
X91.9Y-117.8
X92.463Y-78.284
X92.463Y-81.284
X92.463Y-82.784
X92.463Y-84.284
X92.463Y-85.784
X92.463Y-87.284
X92.463Y-88.784
X92.463Y-90.284
X92.463Y-91.784
X92.463Y-94.784
X92.463Y-96.284
X92.463Y-97.784
X92.463Y-99.284
X92.463Y-100.784
X92.463Y-103.784
X92.463Y-105.284
X92.463Y-108.284
X92.463Y-141.284
X92.463Y-142.784
X92.463Y-144.284
X92.463Y-145.784
X92.463Y-148.784
X92.475Y-51.775
X92.5Y-80.0
X92.751Y-66.9
X92.8Y-128.1
X93.4Y-68.1
X93.7Y-130.5
X93.963Y-51.284
X93.963Y-52.784
X93.963Y-78.284
X93.963Y-79.784
X93.963Y-82.784
X93.963Y-85.784
X93.963Y-96.284
X93.963Y-100.784
X93.963Y-103.784
X93.963Y-111.284
X93.963Y-112.784
X93.963Y-114.284
X93.963Y-115.784
X93.963Y-121.784
X93.963Y-126.284
X93.963Y-133.784
X93.963Y-135.284
X93.963Y-136.784
X93.963Y-141.284
X93.963Y-142.784
X93.963Y-148.784
X94.1Y-55.1
X94.1Y-57.5
X94.1Y-66.1
X94.15Y-67.4
X94.251Y-60.2
X94.251Y-61.4
X94.251Y-62.6
X94.3Y-105.2
X94.3Y-108.3
X94.4Y-132.5
X95.463Y-51.284
X95.463Y-52.784
X95.463Y-54.284
X95.463Y-78.284
X95.463Y-79.784
X95.463Y-103.784
X95.463Y-109.784
X95.463Y-126.284
X95.463Y-135.284
X95.463Y-136.784
X95.463Y-142.784
X95.463Y-148.784
X95.8Y-105.5
X96.1Y-58.2
X96.963Y-51.284
X96.963Y-52.784
X96.963Y-54.284
X96.963Y-63.284
X96.963Y-64.784
X96.963Y-66.284
X96.963Y-78.284
X96.963Y-79.784
X96.963Y-85.784
X96.963Y-90.284
X96.963Y-93.284
X96.963Y-96.284
X96.963Y-100.784
X96.963Y-103.784
X96.963Y-108.284
X96.963Y-114.284
X96.963Y-115.784
X96.963Y-121.784
X96.963Y-126.284
X96.963Y-136.784
X96.963Y-138.284
X96.963Y-142.784
X96.963Y-144.284
X96.963Y-148.784
X97.1Y-62.0
X98.4Y-66.2
X98.4Y-80.3
X98.463Y-51.284
X98.463Y-52.784
X98.463Y-54.284
X98.463Y-63.284
X98.463Y-78.284
X98.463Y-90.284
X98.463Y-112.784
X98.463Y-121.784
X98.463Y-123.284
X98.463Y-124.784
X98.463Y-126.284
X98.463Y-127.784
X98.463Y-130.784
X98.463Y-133.784
X98.463Y-138.284
X98.463Y-139.784
X98.463Y-141.284
X98.463Y-142.784
X98.463Y-147.284
X98.463Y-148.784
X98.7Y-67.1
X98.8Y-101.6
X99.15Y-103.5
X99.3Y-115.8
X99.35Y-65.85
X99.8Y-107.8
X99.9Y-57.2
X99.963Y-51.284
X99.963Y-52.784
X99.963Y-54.284
X99.963Y-63.284
X99.963Y-78.284
X99.963Y-91.784
X99.963Y-93.284
X99.963Y-94.784
X99.963Y-96.284
X99.963Y-97.784
X99.963Y-112.784
X99.963Y-123.284
X99.963Y-124.784
X99.963Y-126.284
X99.963Y-127.784
X99.963Y-130.784
X99.963Y-133.784
X99.963Y-135.284
X99.963Y-145.784
X99.963Y-147.284
X99.963Y-148.784
X100.0Y-111.0
X100.45Y-109.95
X100.491Y-103.491
X100.6Y-89.4
X100.6Y-100.6
X100.8Y-61.0
X101.041Y-110.759
X101.463Y-51.284
X101.463Y-52.784
X101.463Y-54.284
X101.463Y-57.284
X101.463Y-58.784
X101.463Y-91.784
X101.463Y-93.284
X101.463Y-94.784
X101.463Y-96.284
X101.463Y-97.784
X101.463Y-123.284
X101.463Y-124.784
X101.463Y-126.284
X101.463Y-127.784
X101.463Y-130.784
X101.463Y-133.784
X101.463Y-135.284
X101.463Y-136.784
X101.463Y-138.284
X101.463Y-142.784
X101.463Y-144.284
X101.463Y-145.784
X101.463Y-147.284
X101.463Y-148.784
X101.9Y-105.5
X102.0Y-107.7
X102.2Y-68.2
X102.312Y-67.307
X102.5Y-81.7
X102.9Y-113.7
X102.963Y-51.284
X102.963Y-52.784
X102.963Y-54.284
X102.963Y-63.284
X102.963Y-64.784
X102.963Y-91.784
X102.963Y-93.284
X102.963Y-94.784
X102.963Y-96.284
X102.963Y-97.784
X102.963Y-123.284
X102.963Y-124.784
X102.963Y-126.284
X102.963Y-127.784
X102.963Y-130.784
X102.963Y-135.284
X102.963Y-136.784
X102.963Y-138.284
X102.963Y-139.784
X102.963Y-141.284
X102.963Y-142.784
X102.963Y-144.284
X102.963Y-145.784
X102.963Y-147.284
X102.963Y-148.784
X103.1Y-67.9
X103.3Y-133.0
X103.4Y-117.2
X103.8Y-58.4
X103.8Y-104.0
X104.1Y-81.8
X104.3Y-111.6
X104.463Y-51.284
X104.463Y-52.784
X104.463Y-54.284
X104.463Y-61.784
X104.463Y-63.284
X104.463Y-64.784
X104.463Y-66.284
X104.463Y-78.284
X104.463Y-79.784
X104.463Y-84.284
X104.463Y-85.784
X104.463Y-87.284
X104.463Y-88.784
X104.463Y-90.284
X104.463Y-91.784
X104.463Y-93.284
X104.463Y-94.784
X104.463Y-96.284
X104.463Y-97.784
X104.463Y-126.284
X104.463Y-127.784
X104.463Y-130.784
X104.463Y-142.784
X104.463Y-144.284
X104.463Y-145.784
X104.463Y-147.284
X104.463Y-148.784
X105.4Y-124.0
X105.5Y-59.85
X105.5Y-107.7
X105.963Y-51.284
X105.963Y-52.784
X105.963Y-61.784
X105.963Y-63.284
X105.963Y-64.784
X105.963Y-66.284
X105.963Y-78.284
X105.963Y-79.784
X105.963Y-88.784
X105.963Y-90.284
X105.963Y-91.784
X105.963Y-93.284
X105.963Y-94.784
X105.963Y-96.284
X105.963Y-97.784
X105.963Y-136.784
X105.963Y-141.284
X105.963Y-142.784
X105.963Y-147.284
X105.963Y-148.784
X106.2Y-100.001
X106.3Y-103.6
X106.3Y-110.1
X106.4Y-102.4
X107.1Y-54.9
X107.1Y-107.7
X107.4Y-51.9
X107.463Y-75.284
X107.463Y-136.784
X107.463Y-141.284
X107.463Y-142.784
X107.463Y-147.284
X107.463Y-148.784
X107.512Y-124.3
X107.6Y-121.0
X107.925Y-77.875
X108.0Y-105.1
X108.0Y-110.2
X108.0Y-117.5
X108.1Y-103.6
X108.1Y-130.8
X108.2Y-99.8
X108.4Y-116.2
X108.6Y-104.4
X108.6Y-125.9
X108.7Y-50.8
X108.9Y-107.7
X108.963Y-70.784
X108.963Y-79.784
X108.963Y-81.284
X108.963Y-82.784
X108.963Y-94.784
X108.963Y-96.284
X108.963Y-136.784
X108.963Y-138.284
X108.963Y-139.784
X108.963Y-141.284
X108.963Y-142.784
X108.963Y-144.284
X108.963Y-145.784
X108.963Y-147.284
X108.963Y-148.784
X109.0Y-85.1
X109.062Y-86.75
X109.1Y-93.1
X109.3Y-130.8
X109.4Y-88.6
X109.6Y-99.8
X109.7Y-127.2
X109.95Y-116.2
X110.2Y-51.9
X110.463Y-58.784
X110.463Y-66.284
X110.463Y-67.784
X110.463Y-69.284
X110.463Y-70.784
X110.463Y-72.284
X110.463Y-96.284
X110.463Y-103.784
X110.463Y-105.284
X110.463Y-136.784
X110.463Y-138.284
X110.463Y-139.784
X110.463Y-141.284
X110.463Y-142.784
X110.463Y-144.284
X110.463Y-145.784
X110.463Y-147.284
X110.463Y-148.784
X110.6Y-56.8
X110.987Y-101.992
X111.8Y-111.6
X111.9Y-107.7
X111.963Y-58.784
X111.963Y-66.284
X111.963Y-69.284
X111.963Y-70.784
X111.963Y-78.284
X111.963Y-79.784
X111.963Y-93.284
X111.963Y-96.284
X111.963Y-103.784
X111.963Y-130.784
X111.963Y-132.284
X111.963Y-133.784
X111.963Y-135.284
X111.963Y-136.784
X111.963Y-147.284
X111.963Y-148.784
X112.012Y-124.1
X112.4Y-73.0
X112.4Y-127.1
X112.65Y-118.9
X112.7Y-105.2
X112.7Y-110.1
X113.1Y-81.3
X113.3Y-127.0
X113.463Y-58.784
X113.463Y-66.284
X113.463Y-67.784
X113.463Y-76.784
X113.463Y-78.284
X113.463Y-79.784
X113.463Y-112.784
X113.463Y-114.284
X113.463Y-139.784
X113.463Y-144.284
X113.463Y-148.784
X113.5Y-107.7
X113.6Y-105.4
X113.95Y-118.8
X114.4Y-88.7
X114.6Y-82.4
X114.963Y-51.284
X114.963Y-52.784
X114.963Y-66.284
X114.963Y-67.784
X114.963Y-75.284
X114.963Y-76.784
X114.963Y-78.284
X114.963Y-79.784
X114.963Y-84.284
X114.963Y-85.784
X114.963Y-87.284
X114.963Y-90.284
X114.963Y-91.784
X114.963Y-96.284
X114.963Y-105.284
X114.963Y-111.284
X114.963Y-112.784
X114.963Y-114.284
X114.963Y-135.284
X114.963Y-136.784
X114.963Y-138.284
X114.963Y-139.784
X114.963Y-144.284
X114.963Y-148.784
X115.4Y-129.3
X115.7Y-58.8
X115.7Y-61.3
X115.7Y-63.8
X115.831Y-100.331
X115.9Y-93.5
X116.4Y-116.5
X116.463Y-51.284
X116.463Y-54.284
X116.463Y-55.784
X116.463Y-67.784
X116.463Y-69.284
X116.463Y-73.784
X116.463Y-75.284
X116.463Y-76.784
X116.463Y-78.284
X116.463Y-79.784
X116.463Y-81.284
X116.463Y-82.784
X116.463Y-103.784
X116.463Y-105.284
X116.463Y-120.284
X116.463Y-121.784
X116.463Y-136.784
X116.463Y-138.284
X116.463Y-139.784
X116.463Y-148.784
X116.6Y-102.4
X116.7Y-65.5
X117.3Y-62.919
X117.3Y-101.8
X117.3Y-115.5
X117.32Y-62.02
X117.405Y-59.48
X117.6Y-52.65
X117.7Y-57.8
X117.7Y-96.0
X117.849Y-64.787
X117.9Y-60.4
X117.963Y-54.284
X117.963Y-55.784
X117.963Y-72.284
X117.963Y-73.784
X117.963Y-75.284
X117.963Y-76.784
X117.963Y-78.284
X117.963Y-79.784
X117.963Y-81.284
X117.963Y-103.784
X117.963Y-105.284
X117.963Y-108.284
X117.963Y-112.784
X117.963Y-118.784
X117.963Y-120.284
X117.963Y-136.784
X117.963Y-138.284
X117.963Y-144.284
X117.963Y-145.784
X117.963Y-148.784
X118.1Y-114.9
X118.4Y-122.9
X118.591Y-98.491
X118.7Y-116.9
X119.463Y-54.284
X119.463Y-70.784
X119.463Y-72.284
X119.463Y-73.784
X119.463Y-75.284
X119.463Y-76.784
X119.463Y-78.284
X119.463Y-79.784
X119.463Y-100.784
X119.463Y-103.784
X119.463Y-105.284
X119.463Y-109.784
X119.463Y-111.284
X119.463Y-112.784
X119.463Y-136.784
X119.463Y-148.784
X119.875Y-52.675
X119.95Y-98.5
X120.192Y-116.992
X120.6Y-56.8
X120.963Y-51.284
X120.963Y-54.284
X120.963Y-69.284
X120.963Y-70.784
X120.963Y-72.284
X120.963Y-73.784
X120.963Y-75.284
X120.963Y-79.784
X120.963Y-85.784
X120.963Y-100.784
X120.963Y-103.784
X120.963Y-105.284
X120.963Y-106.784
X120.963Y-118.784
X120.963Y-120.284
X120.963Y-133.784
X120.963Y-135.284
X120.963Y-136.784
X120.963Y-144.284
X120.963Y-145.784
X120.963Y-147.284
X120.963Y-148.784
X121.4Y-81.9
X122.463Y-51.284
X122.463Y-52.784
X122.463Y-54.284
X122.463Y-55.784
X122.463Y-69.284
X122.463Y-70.784
X122.463Y-72.284
X122.463Y-73.784
X122.463Y-75.284
X122.463Y-79.784
X122.463Y-85.784
X122.463Y-93.284
X122.463Y-94.784
X122.463Y-96.284
X122.463Y-97.784
X122.463Y-99.284
X122.463Y-100.784
X122.463Y-103.784
X122.463Y-105.284
X122.463Y-106.784
X122.463Y-115.784
X122.463Y-117.284
X122.463Y-118.784
X122.463Y-120.284
X122.463Y-133.784
X122.463Y-142.784
X122.463Y-144.284
X122.463Y-145.784
X122.463Y-147.284
X122.463Y-148.784
X122.6Y-89.8
X123.5Y-108.4
X123.6Y-66.775
X123.9Y-126.5
X123.963Y-51.284
X123.963Y-52.784
X123.963Y-54.284
X123.963Y-69.284
X123.963Y-70.784
X123.963Y-72.284
X123.963Y-73.784
X123.963Y-75.284
X123.963Y-79.784
X123.963Y-81.284
X123.963Y-82.784
X123.963Y-85.784
X123.963Y-90.284
X123.963Y-94.784
X123.963Y-96.284
X123.963Y-97.784
X123.963Y-99.284
X123.963Y-100.784
X123.963Y-103.784
X123.963Y-105.284
X123.963Y-114.284
X123.963Y-133.784
X123.963Y-145.784
X123.963Y-147.284
X123.963Y-148.784
X124.0Y-116.5
X124.1Y-122.8
X124.3Y-112.6
X124.4Y-109.0
X124.4Y-111.4
X124.5Y-107.8
X125.0Y-122.0
X125.463Y-51.284
X125.463Y-52.784
X125.463Y-54.284
X125.463Y-64.784
X125.463Y-69.284
X125.463Y-70.784
X125.463Y-72.284
X125.463Y-79.784
X125.463Y-81.284
X125.463Y-82.784
X125.463Y-85.784
X125.463Y-87.284
X125.463Y-91.784
X125.463Y-96.284
X125.463Y-103.784
X125.463Y-133.784
X125.463Y-145.784
X125.463Y-147.284
X125.463Y-148.784
X125.7Y-66.8
X125.7Y-118.8
X125.9Y-108.3
X126.825Y-54.725
X126.934Y-120.266
X126.963Y-51.284
X126.963Y-52.784
X126.963Y-63.284
X126.963Y-64.784
X126.963Y-66.284
X126.963Y-67.784
X126.963Y-69.284
X126.963Y-70.784
X126.963Y-72.284
X126.963Y-82.784
X126.963Y-85.784
X126.963Y-87.284
X126.963Y-88.784
X126.963Y-93.284
X126.963Y-106.784
X126.963Y-130.784
X126.963Y-133.784
X126.963Y-135.284
X126.963Y-136.784
X126.963Y-145.784
X126.963Y-147.284
X126.963Y-148.784
X127.191Y-102.691
X127.8Y-95.2
X127.8Y-97.2
X128.137Y-129.088
X128.4Y-101.0
X128.459Y-103.959
X128.463Y-51.284
X128.463Y-52.784
X128.463Y-61.784
X128.463Y-63.284
X128.463Y-64.784
X128.463Y-69.284
X128.463Y-70.784
X128.463Y-72.284
X128.463Y-73.784
X128.463Y-75.284
X128.463Y-82.784
X128.463Y-85.784
X128.463Y-87.284
X128.463Y-88.784
X128.463Y-90.284
X128.463Y-105.284
X128.463Y-106.784
X128.463Y-108.284
X128.463Y-115.784
X128.463Y-124.784
X128.463Y-126.284
X128.463Y-132.284
X128.463Y-133.784
X128.463Y-135.284
X128.463Y-136.784
X128.463Y-142.784
X128.463Y-144.284
X128.463Y-145.784
X128.463Y-147.284
X128.463Y-148.784
X128.6Y-95.85
X129.0Y-54.575
X129.2Y-109.6
X129.4Y-103.5
X129.5Y-95.4
X129.5Y-97.2
X129.5Y-101.3
X129.963Y-51.284
X129.963Y-60.284
X129.963Y-61.784
X129.963Y-63.284
X129.963Y-69.284
X129.963Y-70.784
X129.963Y-75.284
X129.963Y-76.784
X129.963Y-78.284
X129.963Y-79.784
X129.963Y-81.284
X129.963Y-82.784
X129.963Y-84.284
X129.963Y-105.284
X129.963Y-106.784
X129.963Y-108.284
X129.963Y-121.784
X129.963Y-123.284
X129.963Y-124.784
X129.963Y-126.284
X129.963Y-127.784
X129.963Y-129.284
X129.963Y-135.284
X129.963Y-142.784
X129.963Y-144.284
X129.963Y-145.784
X129.963Y-147.284
X129.963Y-148.784
X130.375Y-65.7
X130.375Y-67.9
X130.4Y-133.2
X130.6Y-95.85
X130.6Y-119.2
X130.925Y-53.675
X131.463Y-51.284
X131.463Y-58.784
X131.463Y-60.284
X131.463Y-61.784
X131.463Y-63.284
X131.463Y-69.284
X131.463Y-70.784
X131.463Y-75.284
X131.463Y-76.784
X131.463Y-78.284
X131.463Y-79.784
X131.463Y-81.284
X131.463Y-82.784
X131.463Y-84.284
X131.463Y-85.784
X131.463Y-87.284
X131.463Y-88.784
X131.463Y-90.284
X131.463Y-91.784
X131.463Y-93.284
X131.463Y-108.284
X131.463Y-109.784
X131.463Y-111.284
X131.463Y-112.784
X131.463Y-114.284
X131.463Y-115.784
X131.463Y-117.284
X131.463Y-121.784
X131.463Y-123.284
X131.463Y-124.784
X131.463Y-126.284
X131.463Y-127.784
X131.463Y-129.284
X131.463Y-142.784
X131.463Y-144.284
X131.463Y-145.784
X131.463Y-147.284
X131.463Y-148.784
X131.5Y-101.6
X131.6Y-95.5
X132.3Y-105.9
X132.6Y-101.6
X132.963Y-51.284
X132.963Y-55.784
X132.963Y-57.284
X132.963Y-58.784
X132.963Y-60.284
X132.963Y-61.784
X132.963Y-63.284
X132.963Y-64.784
X132.963Y-66.284
X132.963Y-67.784
X132.963Y-69.284
X132.963Y-70.784
X132.963Y-75.284
X132.963Y-76.784
X132.963Y-78.284
X132.963Y-79.784
X132.963Y-81.284
X132.963Y-82.784
X132.963Y-84.284
X132.963Y-85.784
X132.963Y-87.284
X132.963Y-88.784
X132.963Y-90.284
X132.963Y-91.784
X132.963Y-93.284
X132.963Y-108.284
X132.963Y-109.784
X132.963Y-111.284
X132.963Y-112.784
X132.963Y-114.284
X132.963Y-115.784
X132.963Y-117.284
X132.963Y-118.784
X132.963Y-142.784
X132.963Y-144.284
X132.963Y-145.784
X132.963Y-147.284
X132.963Y-148.784
X133.1Y-106.0
X133.9Y-100.2
X134.1Y-98.4
X134.463Y-51.284
X134.463Y-52.784
X134.463Y-54.284
X134.463Y-55.784
X134.463Y-57.284
X134.463Y-58.784
X134.463Y-60.284
X134.463Y-61.784
X134.463Y-69.284
X134.463Y-75.284
X134.463Y-76.784
X134.463Y-78.284
X134.463Y-79.784
X134.463Y-81.284
X134.463Y-82.784
X134.463Y-84.284
X134.463Y-85.784
X134.463Y-87.284
X134.463Y-88.784
X134.463Y-90.284
X134.463Y-91.784
X134.463Y-93.284
X134.463Y-123.284
X134.463Y-124.784
X134.463Y-126.284
X134.463Y-127.784
X134.463Y-129.284
X134.463Y-130.784
X134.463Y-132.284
X134.463Y-138.284
X134.463Y-142.784
X134.463Y-144.284
X134.463Y-145.784
X134.463Y-147.284
X134.463Y-148.784
X134.618Y-104.019
X135.254Y-97.348
X135.609Y-102.109
X135.963Y-51.284
X135.963Y-52.784
X135.963Y-54.284
X135.963Y-55.784
X135.963Y-57.284
X135.963Y-58.784
X135.963Y-60.284
X135.963Y-61.784
X135.963Y-75.284
X135.963Y-76.784
X135.963Y-78.284
X135.963Y-79.784
X135.963Y-81.284
X135.963Y-82.784
X135.963Y-84.284
X135.963Y-85.784
X135.963Y-87.284
X135.963Y-88.784
X135.963Y-90.284
X135.963Y-91.784
X135.963Y-93.284
X135.963Y-103.784
X135.963Y-105.284
X135.963Y-106.784
X135.963Y-108.284
X135.963Y-109.784
X135.963Y-111.284
X135.963Y-112.784
X135.963Y-115.784
X135.963Y-121.784
X135.963Y-127.784
X135.963Y-136.784
X135.963Y-138.284
X135.963Y-145.784
X135.963Y-147.284
X135.963Y-148.784
X136.3Y-94.8
X136.45Y-99.2
X137.463Y-51.284
X137.463Y-52.784
X137.463Y-54.284
X137.463Y-57.284
X137.463Y-58.784
X137.463Y-63.284
X137.463Y-64.784
X137.463Y-66.284
X137.463Y-67.784
X137.463Y-69.284
X137.463Y-70.784
X137.463Y-72.284
X137.463Y-75.284
X137.463Y-78.284
X137.463Y-79.784
X137.463Y-81.284
X137.463Y-82.784
X137.463Y-84.284
X137.463Y-85.784
X137.463Y-100.784
X137.463Y-102.284
X137.463Y-103.784
X137.463Y-105.284
X137.463Y-106.784
X137.463Y-108.284
X137.463Y-109.784
X137.463Y-111.284
X137.463Y-115.784
X137.463Y-117.284
X137.463Y-118.784
X137.463Y-120.284
X137.463Y-121.784
X137.463Y-136.784
X137.463Y-138.284
X137.463Y-139.784
X137.463Y-141.284
X137.463Y-145.784
X137.463Y-147.284
X137.463Y-148.784
X138.963Y-51.284
X138.963Y-52.784
X138.963Y-54.284
X138.963Y-57.284
X138.963Y-58.784
X138.963Y-63.284
X138.963Y-64.784
X138.963Y-66.284
X138.963Y-67.784
X138.963Y-69.284
X138.963Y-70.784
X138.963Y-72.284
X138.963Y-79.784
X138.963Y-81.284
X138.963Y-82.784
X138.963Y-84.284
X138.963Y-102.284
X138.963Y-103.784
X138.963Y-105.284
X138.963Y-106.784
X138.963Y-108.284
X138.963Y-109.784
X138.963Y-111.284
X138.963Y-112.784
X138.963Y-114.284
X138.963Y-115.784
X138.963Y-117.284
X138.963Y-120.284
X138.963Y-121.784
X138.963Y-123.284
X138.963Y-124.784
X138.963Y-129.284
X138.963Y-133.784
X138.963Y-135.284
X138.963Y-136.784
X138.963Y-138.284
X138.963Y-139.784
X138.963Y-141.284
X138.963Y-145.784
X138.963Y-147.284
X138.963Y-148.784
X140.463Y-51.284
X140.463Y-52.784
X140.463Y-54.284
X140.463Y-55.784
X140.463Y-57.284
X140.463Y-58.784
X140.463Y-67.784
X140.463Y-69.284
X140.463Y-70.784
X140.463Y-72.284
X140.463Y-79.784
X140.463Y-81.284
X140.463Y-82.784
X140.463Y-88.784
X140.463Y-90.284
X140.463Y-91.784
X140.463Y-93.284
X140.463Y-94.784
X140.463Y-102.284
X140.463Y-103.784
X140.463Y-105.284
X140.463Y-106.784
X140.463Y-108.284
X140.463Y-109.784
X140.463Y-111.284
X140.463Y-112.784
X140.463Y-114.284
X140.463Y-115.784
X140.463Y-117.284
X140.463Y-120.284
X140.463Y-121.784
X140.463Y-123.284
X140.463Y-127.784
X140.463Y-133.784
X140.463Y-135.284
X140.463Y-136.784
X140.463Y-138.284
X140.463Y-139.784
X140.463Y-141.284
X140.463Y-142.784
X140.463Y-144.284
X140.463Y-145.784
X140.463Y-147.284
X140.463Y-148.784
X141.963Y-51.284
X141.963Y-52.784
X141.963Y-54.284
X141.963Y-55.784
X141.963Y-57.284
X141.963Y-58.784
X141.963Y-60.284
X141.963Y-61.784
X141.963Y-67.784
X141.963Y-69.284
X141.963Y-70.784
X141.963Y-72.284
X141.963Y-73.784
X141.963Y-79.784
X141.963Y-81.284
X141.963Y-87.284
X141.963Y-88.784
X141.963Y-90.284
X141.963Y-91.784
X141.963Y-93.284
X141.963Y-94.784
X141.963Y-96.284
X141.963Y-97.784
X141.963Y-102.284
X141.963Y-103.784
X141.963Y-105.284
X141.963Y-106.784
X141.963Y-108.284
X141.963Y-109.784
X141.963Y-111.284
X141.963Y-112.784
X141.963Y-114.284
X141.963Y-115.784
X141.963Y-120.284
X141.963Y-121.784
X141.963Y-123.284
X141.963Y-135.284
X141.963Y-136.784
X141.963Y-138.284
X141.963Y-139.784
X141.963Y-141.284
X141.963Y-142.784
X141.963Y-144.284
X141.963Y-145.784
X141.963Y-147.284
X141.963Y-148.784
X143.463Y-51.284
X143.463Y-52.784
X143.463Y-57.284
X143.463Y-58.784
X143.463Y-60.284
X143.463Y-61.784
X143.463Y-63.284
X143.463Y-64.784
X143.463Y-66.284
X143.463Y-67.784
X143.463Y-69.284
X143.463Y-70.784
X143.463Y-72.284
X143.463Y-73.784
X143.463Y-75.284
X143.463Y-85.784
X143.463Y-87.284
X143.463Y-88.784
X143.463Y-90.284
X143.463Y-91.784
X143.463Y-93.284
X143.463Y-94.784
X143.463Y-96.284
X143.463Y-102.284
X143.463Y-103.784
X143.463Y-105.284
X143.463Y-106.784
X143.463Y-108.284
X143.463Y-109.784
X143.463Y-111.284
X143.463Y-118.784
X143.463Y-120.284
X143.463Y-139.784
X143.463Y-141.284
X143.463Y-142.784
X143.463Y-147.284
X143.463Y-148.784
X144.963Y-51.284
X144.963Y-52.784
X144.963Y-57.284
X144.963Y-58.784
X144.963Y-60.284
X144.963Y-61.784
X144.963Y-63.284
X144.963Y-64.784
X144.963Y-66.284
X144.963Y-67.784
X144.963Y-69.284
X144.963Y-70.784
X144.963Y-72.284
X144.963Y-73.784
X144.963Y-75.284
X144.963Y-76.784
X144.963Y-88.784
X144.963Y-93.284
X144.963Y-94.784
X144.963Y-105.284
X144.963Y-109.784
X144.963Y-111.284
X144.963Y-117.284
X144.963Y-126.284
X144.963Y-127.784
X144.963Y-129.284
X144.963Y-130.784
X144.963Y-132.284
X144.963Y-133.784
X144.963Y-139.784
X144.963Y-141.284
X144.963Y-142.784
X144.963Y-147.284
X144.963Y-148.784
X146.463Y-51.284
X146.463Y-52.784
X146.463Y-57.284
X146.463Y-58.784
X146.463Y-60.284
X146.463Y-61.784
X146.463Y-63.284
X146.463Y-64.784
X146.463Y-66.284
X146.463Y-67.784
X146.463Y-69.284
X146.463Y-70.784
X146.463Y-72.284
X146.463Y-73.784
X146.463Y-75.284
X146.463Y-76.784
X146.463Y-78.284
X146.463Y-82.784
X146.463Y-87.284
X146.463Y-88.784
X146.463Y-93.284
X146.463Y-94.784
X146.463Y-99.284
X146.463Y-105.284
X146.463Y-109.784
X146.463Y-111.284
X146.463Y-112.784
X146.463Y-114.284
X146.463Y-115.784
X146.463Y-117.284
X146.463Y-121.784
X146.463Y-127.784
X146.463Y-129.284
X146.463Y-130.784
X146.463Y-132.284
X146.463Y-138.284
X146.463Y-139.784
X146.463Y-141.284
X146.463Y-142.784
X146.463Y-147.284
X146.463Y-148.784
X147.6Y-119.6
X147.963Y-52.784
X147.963Y-54.284
X147.963Y-55.784
X147.963Y-57.284
X147.963Y-58.784
X147.963Y-60.284
X147.963Y-61.784
X147.963Y-63.284
X147.963Y-64.784
X147.963Y-66.284
X147.963Y-67.784
X147.963Y-69.284
X147.963Y-70.784
X147.963Y-72.284
X147.963Y-73.784
X147.963Y-75.284
X147.963Y-76.784
X147.963Y-78.284
X147.963Y-79.784
X147.963Y-81.284
X147.963Y-82.784
X147.963Y-84.284
X147.963Y-85.784
X147.963Y-87.284
X147.963Y-88.784
X147.963Y-90.284
X147.963Y-91.784
X147.963Y-93.284
X147.963Y-94.784
X147.963Y-96.284
X147.963Y-97.784
X147.963Y-99.284
X147.963Y-100.784
X147.963Y-102.284
X147.963Y-103.784
X147.963Y-105.284
X147.963Y-106.784
X147.963Y-108.284
X147.963Y-109.784
X147.963Y-111.284
X147.963Y-112.784
X147.963Y-114.284
X147.963Y-115.784
X147.963Y-117.284
X147.963Y-121.784
X147.963Y-123.284
X147.963Y-124.784
X147.963Y-135.284
X147.963Y-136.784
X147.963Y-138.284
X147.963Y-139.784
X147.963Y-141.284
X147.963Y-142.784
X147.963Y-144.284
X147.963Y-145.784
X147.963Y-147.284
T2
X80.585Y-82.18
X80.585Y-84.72
X80.585Y-87.26
X80.585Y-89.8
X80.585Y-92.34
X80.585Y-94.88
X80.585Y-97.42
T3
X96.4Y-140.452
X100.4Y-140.452
X104.4Y-140.452
X134.42Y-119.0
X136.96Y-113.92
X139.5Y-119.0
T4
X64.8Y-60.6
X67.3Y-60.6
X69.3Y-60.6
X71.8Y-60.6
X127.9Y-140.84
X130.4Y-140.84
X132.4Y-140.84
X134.9Y-140.84
X141.84Y-126.9
X141.84Y-129.4
X141.84Y-131.4
X141.84Y-133.9
T5
X55.1Y-101.9
X55.1Y-104.44
X55.1Y-106.98
X55.1Y-109.52
X58.8Y-101.9
X58.8Y-104.44
X58.8Y-106.98
X58.8Y-109.52
X61.94Y-144.1
X61.94Y-146.64
X64.48Y-144.1
X64.48Y-146.64
X67.02Y-144.1
X67.02Y-146.64
X69.56Y-144.1
X69.56Y-146.64
X72.1Y-144.1
X72.1Y-146.64
X74.64Y-144.1
X74.64Y-146.64
X77.18Y-144.1
X77.18Y-146.64
X79.72Y-144.1
X79.72Y-146.64
X82.26Y-144.1
X82.26Y-146.64
X84.8Y-144.1
X84.8Y-146.64
X87.58Y-81.92
X87.58Y-84.46
X87.58Y-87.0
X87.58Y-89.54
X87.58Y-92.08
X87.58Y-94.62
X87.58Y-97.16
X87.58Y-99.7
X93.25Y-75.9
X95.2Y-81.92
X95.2Y-84.46
X95.2Y-87.0
X95.2Y-89.54
X95.2Y-92.08
X95.2Y-94.62
X95.2Y-97.16
X95.2Y-99.7
X95.79Y-75.9
X98.33Y-75.9
X100.87Y-75.9
X103.41Y-75.9
X105.95Y-75.9
X112.4Y-51.8
X113.8Y-69.8
X114.075Y-147.0
X114.4Y-55.0
X116.615Y-147.0
X119.155Y-147.0
X144.0Y-112.925
X144.0Y-115.465
T6
X94.4Y-138.702
X94.4Y-144.702
X106.4Y-138.702
X106.4Y-144.702
T7
X116.787Y-110.07
X121.867Y-110.07
T8
X145.35Y-80.6
X145.35Y-85.599
X145.35Y-90.6
X145.35Y-97.2
X145.35Y-102.199
X145.35Y-107.2
T9
X55.05Y-89.8
X60.05Y-84.8
X60.05Y-87.3
X60.05Y-92.3
X60.05Y-94.8
X114.26Y-142.4
X119.34Y-142.4
X136.6Y-124.86
X136.6Y-129.94
T10
X53.84Y-124.87
X126.04Y-124.87
T11
X68.266Y-87.768
X68.266Y-91.832
T12
X55.05Y-84.8
X55.05Y-94.8
X60.05Y-89.8
T13
X61.73Y-57.89
X74.87Y-57.89
X124.83Y-143.55
X137.97Y-143.55
X144.55Y-123.83
X144.55Y-136.97
T14
X53.84Y-132.74
T15
X62.2Y-117.0
X117.4Y-132.74
T2
G00X125.974Y-74.523
M15
G01X125.974Y-77.261
M16
G05
G00X128.26Y-77.571
M15
G01X128.26Y-80.309
M16
G05
G00X134.705Y-73.352
M15
G01X131.467Y-73.352
M16
G05
T3
G00X135.85Y-66.5
M15
G01X135.85Y-63.9
M16
G05
G00X139.95Y-60.4
M15
G01X137.75Y-60.4
M16
G05
G00X141.65Y-66.3
M15
G01X141.65Y-64.1
M16
G05
T0
M30
