%TF.GenerationSoftware,KiCad,Pcbnew,(6.0.9)*%
%TF.CreationDate,2023-04-07T16:32:21+03:00*%
%TF.ProjectId,ESP32_power_meter_MP3_player_WIFI_radio_V2,45535033-325f-4706-9f77-65725f6d6574,rev?*%
%TF.SameCoordinates,Original*%
%TF.FileFunction,Soldermask,Top*%
%TF.FilePolarity,Negative*%
%FSLAX46Y46*%
G04 Gerber Fmt 4.6, Leading zero omitted, Abs format (unit mm)*
G04 Created by KiCad (PCBNEW (6.0.9)) date 2023-04-07 16:32:21*
%MOMM*%
%LPD*%
G01*
G04 APERTURE LIST*
G04 Aperture macros list*
%AMRoundRect*
0 Rectangle with rounded corners*
0 $1 Rounding radius*
0 $2 $3 $4 $5 $6 $7 $8 $9 X,Y pos of 4 corners*
0 Add a 4 corners polygon primitive as box body*
4,1,4,$2,$3,$4,$5,$6,$7,$8,$9,$2,$3,0*
0 Add four circle primitives for the rounded corners*
1,1,$1+$1,$2,$3*
1,1,$1+$1,$4,$5*
1,1,$1+$1,$6,$7*
1,1,$1+$1,$8,$9*
0 Add four rect primitives between the rounded corners*
20,1,$1+$1,$2,$3,$4,$5,0*
20,1,$1+$1,$4,$5,$6,$7,0*
20,1,$1+$1,$6,$7,$8,$9,0*
20,1,$1+$1,$8,$9,$2,$3,0*%
G04 Aperture macros list end*
%ADD10C,0.487311*%
%ADD11C,1.980000*%
%ADD12C,5.325000*%
%ADD13C,3.585000*%
%ADD14C,1.300000*%
%ADD15C,1.710000*%
%ADD16C,1.500000*%
%ADD17R,0.650000X1.500000*%
%ADD18R,2.700000X0.800000*%
%ADD19R,0.800000X1.500000*%
%ADD20R,1.300000X1.400000*%
%ADD21R,1.000000X0.950000*%
%ADD22R,1.400000X1.900000*%
%ADD23R,1.950000X1.950000*%
%ADD24C,1.950000*%
%ADD25C,2.400000*%
%ADD26R,0.300000X1.400000*%
%ADD27R,0.450000X1.500000*%
%ADD28R,1.200000X1.850000*%
%ADD29RoundRect,0.150000X0.150000X-0.512500X0.150000X0.512500X-0.150000X0.512500X-0.150000X-0.512500X0*%
%ADD30RoundRect,0.237500X-0.237500X0.250000X-0.237500X-0.250000X0.237500X-0.250000X0.237500X0.250000X0*%
%ADD31R,0.700000X1.000000*%
%ADD32RoundRect,0.237500X-0.250000X-0.237500X0.250000X-0.237500X0.250000X0.237500X-0.250000X0.237500X0*%
%ADD33RoundRect,0.150000X-0.150000X0.825000X-0.150000X-0.825000X0.150000X-0.825000X0.150000X0.825000X0*%
%ADD34RoundRect,0.250000X-0.450000X0.350000X-0.450000X-0.350000X0.450000X-0.350000X0.450000X0.350000X0*%
%ADD35RoundRect,0.200000X-0.275000X0.200000X-0.275000X-0.200000X0.275000X-0.200000X0.275000X0.200000X0*%
%ADD36RoundRect,0.237500X-0.300000X-0.237500X0.300000X-0.237500X0.300000X0.237500X-0.300000X0.237500X0*%
%ADD37RoundRect,0.237500X-0.237500X0.300000X-0.237500X-0.300000X0.237500X-0.300000X0.237500X0.300000X0*%
%ADD38R,1.500000X1.500000*%
%ADD39RoundRect,0.250000X0.475000X-0.337500X0.475000X0.337500X-0.475000X0.337500X-0.475000X-0.337500X0*%
%ADD40R,1.700000X1.700000*%
%ADD41O,1.700000X1.700000*%
%ADD42RoundRect,0.237500X0.287500X0.237500X-0.287500X0.237500X-0.287500X-0.237500X0.287500X-0.237500X0*%
%ADD43RoundRect,0.150000X0.150000X-0.587500X0.150000X0.587500X-0.150000X0.587500X-0.150000X-0.587500X0*%
%ADD44RoundRect,0.237500X-0.237500X0.287500X-0.237500X-0.287500X0.237500X-0.287500X0.237500X0.287500X0*%
%ADD45RoundRect,0.150000X0.587500X0.150000X-0.587500X0.150000X-0.587500X-0.150000X0.587500X-0.150000X0*%
%ADD46RoundRect,0.650000X-0.650000X0.650000X-0.650000X-0.650000X0.650000X-0.650000X0.650000X0.650000X0*%
%ADD47C,2.600000*%
%ADD48R,0.650000X1.560000*%
%ADD49R,1.500000X0.900000*%
%ADD50R,0.900000X1.500000*%
%ADD51R,0.900000X0.900000*%
%ADD52RoundRect,0.237500X0.237500X-0.300000X0.237500X0.300000X-0.237500X0.300000X-0.237500X-0.300000X0*%
%ADD53RoundRect,0.200000X0.200000X0.275000X-0.200000X0.275000X-0.200000X-0.275000X0.200000X-0.275000X0*%
%ADD54R,5.500000X2.000000*%
%ADD55R,1.800000X5.000000*%
%ADD56RoundRect,0.250000X-1.450000X0.312500X-1.450000X-0.312500X1.450000X-0.312500X1.450000X0.312500X0*%
%ADD57RoundRect,0.250000X0.262500X0.450000X-0.262500X0.450000X-0.262500X-0.450000X0.262500X-0.450000X0*%
%ADD58RoundRect,0.200000X-0.200000X-0.275000X0.200000X-0.275000X0.200000X0.275000X-0.200000X0.275000X0*%
%ADD59R,1.800000X4.400000*%
%ADD60O,1.800000X4.000000*%
%ADD61O,4.000000X1.800000*%
%ADD62R,1.500000X1.600000*%
%ADD63C,1.600000*%
%ADD64C,3.000000*%
%ADD65RoundRect,0.200000X0.275000X-0.200000X0.275000X0.200000X-0.275000X0.200000X-0.275000X-0.200000X0*%
%ADD66RoundRect,0.237500X0.250000X0.237500X-0.250000X0.237500X-0.250000X-0.237500X0.250000X-0.237500X0*%
%ADD67RoundRect,0.250000X-0.275000X-0.700000X0.275000X-0.700000X0.275000X0.700000X-0.275000X0.700000X0*%
%ADD68RoundRect,0.225000X-0.225000X-0.250000X0.225000X-0.250000X0.225000X0.250000X-0.225000X0.250000X0*%
%ADD69RoundRect,0.250000X-0.337500X-0.475000X0.337500X-0.475000X0.337500X0.475000X-0.337500X0.475000X0*%
%ADD70R,1.000000X0.700000*%
%ADD71R,1.600000X1.500000*%
%ADD72RoundRect,0.250000X-1.450000X0.337500X-1.450000X-0.337500X1.450000X-0.337500X1.450000X0.337500X0*%
%ADD73RoundRect,0.237500X0.300000X0.237500X-0.300000X0.237500X-0.300000X-0.237500X0.300000X-0.237500X0*%
%ADD74C,3.200000*%
%ADD75C,3.810000*%
%ADD76C,2.700000*%
%ADD77C,1.524000*%
%ADD78RoundRect,0.250000X-0.475000X0.250000X-0.475000X-0.250000X0.475000X-0.250000X0.475000X0.250000X0*%
%ADD79RoundRect,0.250000X0.475000X-0.250000X0.475000X0.250000X-0.475000X0.250000X-0.475000X-0.250000X0*%
%ADD80RoundRect,0.237500X0.237500X-0.287500X0.237500X0.287500X-0.237500X0.287500X-0.237500X-0.287500X0*%
%ADD81C,1.440000*%
%ADD82RoundRect,0.237500X0.237500X-0.250000X0.237500X0.250000X-0.237500X0.250000X-0.237500X-0.250000X0*%
%ADD83C,1.000000*%
%ADD84RoundRect,0.150000X0.825000X0.150000X-0.825000X0.150000X-0.825000X-0.150000X0.825000X-0.150000X0*%
%ADD85RoundRect,0.250000X-0.250000X-0.475000X0.250000X-0.475000X0.250000X0.475000X-0.250000X0.475000X0*%
%ADD86C,2.000000*%
%ADD87RoundRect,0.650000X-0.650000X-0.650000X0.650000X-0.650000X0.650000X0.650000X-0.650000X0.650000X0*%
%ADD88R,2.400000X2.400000*%
%ADD89O,2.400000X2.400000*%
%ADD90RoundRect,0.101600X-1.206500X1.206500X-1.206500X-1.206500X1.206500X-1.206500X1.206500X1.206500X0*%
%ADD91C,2.616200*%
G04 APERTURE END LIST*
D10*
X112643655Y-73000000D02*
G75*
G03*
X112643655Y-73000000I-243655J0D01*
G01*
X112255966Y-124100000D02*
G75*
G03*
X112255966Y-124100000I-243655J0D01*
G01*
X78955966Y-57800000D02*
G75*
G03*
X78955966Y-57800000I-243655J0D01*
G01*
X107755966Y-124300000D02*
G75*
G03*
X107755966Y-124300000I-243655J0D01*
G01*
X77455966Y-51200000D02*
G75*
G03*
X77455966Y-51200000I-243655J0D01*
G01*
D11*
%TO.C,U7*%
X126040000Y-124870000D03*
X53840000Y-124870000D03*
D12*
X117400000Y-132740000D03*
D13*
X53840000Y-132740000D03*
D12*
X62200000Y-117000000D03*
%TD*%
D14*
%TO.C,S2*%
X96400000Y-140452500D03*
X100400000Y-140452500D03*
X104400000Y-140452500D03*
D15*
X94400000Y-144702500D03*
X94400000Y-138702500D03*
X106400000Y-138702500D03*
X106400000Y-144702500D03*
%TD*%
D16*
%TO.C,S1*%
X95200000Y-99700000D03*
X87580000Y-99700000D03*
X95200000Y-97160000D03*
X87580000Y-97160000D03*
X95200000Y-94620000D03*
X87580000Y-94620000D03*
X95200000Y-92080000D03*
X87580000Y-92080000D03*
X95200000Y-89540000D03*
X87580000Y-89540000D03*
X95200000Y-87000000D03*
X87580000Y-87000000D03*
X95200000Y-84460000D03*
X87580000Y-84460000D03*
X95200000Y-81920000D03*
X87580000Y-81920000D03*
%TD*%
D17*
%TO.C,Q2*%
X126005000Y-130300000D03*
X124735000Y-130300000D03*
X123465000Y-130300000D03*
X122195000Y-130300000D03*
X122195000Y-135700000D03*
X123465000Y-135700000D03*
X124735000Y-135700000D03*
X126005000Y-135700000D03*
%TD*%
D18*
%TO.C,L1*%
X83050000Y-133762500D03*
X83050000Y-131562500D03*
%TD*%
D19*
%TO.C,J2*%
X123485000Y-55939000D03*
X124585000Y-56339000D03*
X125685000Y-55939000D03*
X126785000Y-55739000D03*
X127885000Y-55939000D03*
X128985000Y-55739000D03*
X130085000Y-55939000D03*
X131185000Y-55939000D03*
D20*
X130375000Y-66799000D03*
D21*
X128985000Y-67025000D03*
D20*
X124675000Y-66799000D03*
D22*
X131975000Y-53650000D03*
X118825000Y-52650000D03*
%TD*%
D23*
%TO.C,J1*%
X55050000Y-89800000D03*
D24*
X60050000Y-84800000D03*
X60050000Y-87300000D03*
X60050000Y-92300000D03*
X60050000Y-94800000D03*
D25*
X55050000Y-84800000D03*
X55050000Y-94800000D03*
X60050000Y-89800000D03*
%TD*%
D26*
%TO.C,IC4*%
X127800000Y-117600000D03*
X127300000Y-117600000D03*
X126800000Y-117600000D03*
X126300000Y-117600000D03*
X125800000Y-117600000D03*
X125800000Y-122000000D03*
X126300000Y-122000000D03*
X126800000Y-122000000D03*
X127300000Y-122000000D03*
X127800000Y-122000000D03*
%TD*%
D17*
%TO.C,IC3*%
X106795000Y-134900000D03*
X108065000Y-134900000D03*
X109335000Y-134900000D03*
X110605000Y-134900000D03*
X110605000Y-129500000D03*
X109335000Y-129500000D03*
X108065000Y-129500000D03*
X106795000Y-129500000D03*
%TD*%
D26*
%TO.C,IC2*%
X131100000Y-104600000D03*
X131600000Y-104600000D03*
X132100000Y-104600000D03*
X132600000Y-104600000D03*
X133100000Y-104600000D03*
X133100000Y-100200000D03*
X132600000Y-100200000D03*
X132100000Y-100200000D03*
X131600000Y-100200000D03*
X131100000Y-100200000D03*
%TD*%
D27*
%TO.C,IC1*%
X67625000Y-122950000D03*
X68275000Y-122950000D03*
X68925000Y-122950000D03*
X69575000Y-122950000D03*
X70225000Y-122950000D03*
X70875000Y-122950000D03*
X71525000Y-122950000D03*
X72175000Y-122950000D03*
X72825000Y-122950000D03*
X73475000Y-122950000D03*
X74125000Y-122950000D03*
X74775000Y-122950000D03*
X74775000Y-117050000D03*
X74125000Y-117050000D03*
X73475000Y-117050000D03*
X72825000Y-117050000D03*
X72175000Y-117050000D03*
X71525000Y-117050000D03*
X70875000Y-117050000D03*
X70225000Y-117050000D03*
X69575000Y-117050000D03*
X68925000Y-117050000D03*
X68275000Y-117050000D03*
X67625000Y-117050000D03*
%TD*%
D28*
%TO.C,FB1*%
X76650000Y-61950000D03*
X80950000Y-61950000D03*
%TD*%
D29*
%TO.C,U5*%
X72400000Y-66937500D03*
X73350000Y-66937500D03*
X74300000Y-66937500D03*
X74300000Y-64662500D03*
X73350000Y-64662500D03*
X72400000Y-64662500D03*
%TD*%
D30*
%TO.C,R41*%
X125800000Y-113687500D03*
X125800000Y-115512500D03*
%TD*%
%TO.C,R39*%
X127400000Y-113687500D03*
X127400000Y-115512500D03*
%TD*%
%TO.C,R9*%
X130300000Y-113107500D03*
X130300000Y-114932500D03*
%TD*%
D31*
%TO.C,SW3*%
X113700000Y-73425000D03*
X113700000Y-79425000D03*
X117400000Y-79425000D03*
X117400000Y-73425000D03*
%TD*%
D32*
%TO.C,FB2*%
X78937500Y-139462500D03*
X80762500Y-139462500D03*
%TD*%
D33*
%TO.C,U6*%
X111810000Y-114125000D03*
X110540000Y-114125000D03*
X109270000Y-114125000D03*
X108000000Y-114125000D03*
X106730000Y-114125000D03*
X105460000Y-114125000D03*
X104190000Y-114125000D03*
X104190000Y-119075000D03*
X105460000Y-119075000D03*
X106730000Y-119075000D03*
X108000000Y-119075000D03*
X109270000Y-119075000D03*
X110540000Y-119075000D03*
X111810000Y-119075000D03*
%TD*%
D34*
%TO.C,RR1*%
X88650000Y-135462500D03*
X88650000Y-137462500D03*
%TD*%
D35*
%TO.C,R24*%
X65000000Y-105575000D03*
X65000000Y-107225000D03*
%TD*%
D36*
%TO.C,C15*%
X144937500Y-118800000D03*
X146662500Y-118800000D03*
%TD*%
D37*
%TO.C,C13*%
X117700000Y-93137500D03*
X117700000Y-94862500D03*
%TD*%
D38*
%TO.C,TP4*%
X100600000Y-72800000D03*
%TD*%
D39*
%TO.C,C23*%
X104800000Y-135137500D03*
X104800000Y-133062500D03*
%TD*%
D40*
%TO.C,J16*%
X55100000Y-101900000D03*
D41*
X55100000Y-104440000D03*
X55100000Y-106980000D03*
X55100000Y-109520000D03*
%TD*%
D42*
%TO.C,D3*%
X75475000Y-114000000D03*
X73725000Y-114000000D03*
%TD*%
D43*
%TO.C,U8*%
X121250000Y-126537500D03*
X123150000Y-126537500D03*
X122200000Y-124662500D03*
%TD*%
D44*
%TO.C,D1*%
X130300000Y-109675000D03*
X130300000Y-111425000D03*
%TD*%
D45*
%TO.C,U1*%
X110737500Y-90550000D03*
X110737500Y-88650000D03*
X108862500Y-89600000D03*
%TD*%
D40*
%TO.C,J14*%
X84800000Y-144100000D03*
D41*
X84800000Y-146640000D03*
X82260000Y-144100000D03*
X82260000Y-146640000D03*
X79720000Y-144100000D03*
X79720000Y-146640000D03*
X77180000Y-144100000D03*
X77180000Y-146640000D03*
X74640000Y-144100000D03*
X74640000Y-146640000D03*
X72100000Y-144100000D03*
X72100000Y-146640000D03*
X69560000Y-144100000D03*
X69560000Y-146640000D03*
X67020000Y-144100000D03*
X67020000Y-146640000D03*
X64480000Y-144100000D03*
X64480000Y-146640000D03*
X61940000Y-144100000D03*
X61940000Y-146640000D03*
%TD*%
D46*
%TO.C,J10*%
X136600000Y-124860000D03*
D47*
X136600000Y-129940000D03*
%TD*%
D48*
%TO.C,U9*%
X86600000Y-136312500D03*
X85650000Y-136312500D03*
X84700000Y-136312500D03*
X84700000Y-139012500D03*
X85650000Y-139012500D03*
X86600000Y-139012500D03*
%TD*%
D37*
%TO.C,C27*%
X90650000Y-137600000D03*
X90650000Y-139325000D03*
%TD*%
D49*
%TO.C,U4*%
X91250000Y-51860000D03*
X91250000Y-53130000D03*
X91250000Y-54400000D03*
X91250000Y-55670000D03*
X91250000Y-56940000D03*
X91250000Y-58210000D03*
X91250000Y-59480000D03*
X91250000Y-60750000D03*
X91250000Y-62020000D03*
X91250000Y-63290000D03*
X91250000Y-64560000D03*
X91250000Y-65830000D03*
X91250000Y-67100000D03*
X91250000Y-68370000D03*
D50*
X93015000Y-69620000D03*
X94285000Y-69620000D03*
X95555000Y-69620000D03*
X96825000Y-69620000D03*
X98095000Y-69620000D03*
X99365000Y-69620000D03*
X100635000Y-69620000D03*
X101905000Y-69620000D03*
X103175000Y-69620000D03*
X104445000Y-69620000D03*
X105715000Y-69620000D03*
X106985000Y-69620000D03*
D49*
X108750000Y-68370000D03*
X108750000Y-67100000D03*
X108750000Y-65830000D03*
X108750000Y-64560000D03*
X108750000Y-63290000D03*
X108750000Y-62020000D03*
X108750000Y-60750000D03*
X108750000Y-59480000D03*
X108750000Y-58210000D03*
X108750000Y-56940000D03*
X108750000Y-55670000D03*
X108750000Y-54400000D03*
X108750000Y-53130000D03*
X108750000Y-51860000D03*
D51*
X98500000Y-59580000D03*
X97100000Y-59580000D03*
X97100000Y-58180000D03*
X99900000Y-58180000D03*
X98500000Y-60980000D03*
X99900000Y-59580000D03*
X99900000Y-60980000D03*
X98500000Y-58180000D03*
X97100000Y-60980000D03*
%TD*%
D40*
%TO.C,J13*%
X144000000Y-112925000D03*
D41*
X144000000Y-115465000D03*
%TD*%
D52*
%TO.C,C8*%
X66100000Y-119162500D03*
X66100000Y-117437500D03*
%TD*%
D53*
%TO.C,R45*%
X117275000Y-122750000D03*
X115625000Y-122750000D03*
%TD*%
D54*
%TO.C,J5*%
X133086000Y-73352000D03*
D55*
X128260000Y-78940000D03*
X125974000Y-75892000D03*
%TD*%
D56*
%TO.C,F1*%
X80950000Y-64362500D03*
X80950000Y-68637500D03*
%TD*%
D52*
%TO.C,C17*%
X129500000Y-100062500D03*
X129500000Y-98337500D03*
%TD*%
D57*
%TO.C,R29*%
X133912500Y-134200000D03*
X132087500Y-134200000D03*
%TD*%
D52*
%TO.C,C6*%
X89200000Y-53232500D03*
X89200000Y-51507500D03*
%TD*%
D31*
%TO.C,SW2*%
X103350000Y-89300000D03*
X103350000Y-83300000D03*
X99650000Y-83300000D03*
X99650000Y-89300000D03*
%TD*%
D58*
%TO.C,R13*%
X66850000Y-128000000D03*
X68500000Y-128000000D03*
%TD*%
D36*
%TO.C,C3*%
X109137500Y-92200000D03*
X110862500Y-92200000D03*
%TD*%
D59*
%TO.C,J7*%
X135850000Y-65200000D03*
D60*
X141650000Y-65200000D03*
D61*
X138850000Y-60400000D03*
%TD*%
D42*
%TO.C,D2*%
X127775000Y-98400000D03*
X126025000Y-98400000D03*
%TD*%
D36*
%TO.C,C11*%
X106150000Y-86750000D03*
X107875000Y-86750000D03*
%TD*%
D38*
%TO.C,TP7*%
X81600000Y-57900000D03*
%TD*%
D35*
%TO.C,R23*%
X66700000Y-106475000D03*
X66700000Y-108125000D03*
%TD*%
D30*
%TO.C,R12*%
X84400000Y-62300000D03*
X84400000Y-64125000D03*
%TD*%
D62*
%TO.C,J11*%
X141840000Y-133900000D03*
D63*
X141840000Y-131400000D03*
X141840000Y-129400000D03*
X141840000Y-126900000D03*
D64*
X144550000Y-123830000D03*
X144550000Y-136970000D03*
%TD*%
D65*
%TO.C,R38*%
X120800000Y-92075000D03*
X120800000Y-90425000D03*
%TD*%
D66*
%TO.C,R30*%
X146712500Y-120400000D03*
X144887500Y-120400000D03*
%TD*%
D67*
%TO.C,L2*%
X110725000Y-97250000D03*
X113875000Y-97250000D03*
%TD*%
D68*
%TO.C,C30*%
X88675000Y-133862500D03*
X90225000Y-133862500D03*
%TD*%
D69*
%TO.C,C22*%
X106462500Y-127300000D03*
X108537500Y-127300000D03*
%TD*%
D38*
%TO.C,TP1*%
X109050000Y-122900000D03*
%TD*%
D35*
%TO.C,R27*%
X130150000Y-130425000D03*
X130150000Y-132075000D03*
%TD*%
D70*
%TO.C,SW1*%
X64400000Y-122750000D03*
X58400000Y-122750000D03*
X58400000Y-126450000D03*
X64400000Y-126450000D03*
%TD*%
D58*
%TO.C,R43*%
X115625000Y-125950000D03*
X117275000Y-125950000D03*
%TD*%
D53*
%TO.C,R40*%
X101775000Y-117950000D03*
X100125000Y-117950000D03*
%TD*%
D71*
%TO.C,J3*%
X71800000Y-60600000D03*
D63*
X69300000Y-60600000D03*
X67300000Y-60600000D03*
X64800000Y-60600000D03*
D64*
X61730000Y-57890000D03*
X74870000Y-57890000D03*
%TD*%
D36*
%TO.C,C20*%
X105475000Y-111600000D03*
X107200000Y-111600000D03*
%TD*%
D32*
%TO.C,R26*%
X133387500Y-96400000D03*
X135212500Y-96400000D03*
%TD*%
D65*
%TO.C,R33*%
X132000000Y-132075000D03*
X132000000Y-130425000D03*
%TD*%
D38*
%TO.C,TP9*%
X83500000Y-51800000D03*
%TD*%
D72*
%TO.C,R42*%
X95600000Y-117662500D03*
X95600000Y-119337500D03*
%TD*%
D73*
%TO.C,C2*%
X114862500Y-92950000D03*
X113137500Y-92950000D03*
%TD*%
D74*
%TO.C,H4*%
X55000000Y-145000000D03*
%TD*%
D30*
%TO.C,R16*%
X98800000Y-95687500D03*
X98800000Y-97512500D03*
%TD*%
D40*
%TO.C,JP1*%
X114075000Y-147000000D03*
D41*
X116615000Y-147000000D03*
X119155000Y-147000000D03*
%TD*%
D75*
%TO.C,U3*%
X66615000Y-83450000D03*
X66615000Y-96150000D03*
D76*
X68266000Y-91832000D03*
X68266000Y-87768000D03*
D77*
X80585000Y-82180000D03*
X80585000Y-84720000D03*
X80585000Y-97420000D03*
X80585000Y-94880000D03*
X80585000Y-92340000D03*
X80585000Y-89800000D03*
X80585000Y-87260000D03*
%TD*%
D30*
%TO.C,R17*%
X98800000Y-92287500D03*
X98800000Y-94112500D03*
%TD*%
D44*
%TO.C,D4*%
X84400000Y-58887500D03*
X84400000Y-60637500D03*
%TD*%
D65*
%TO.C,R14*%
X67150000Y-126425000D03*
X67150000Y-124775000D03*
%TD*%
D74*
%TO.C,H3*%
X145000000Y-145000000D03*
%TD*%
D58*
%TO.C,R25*%
X106325000Y-81650000D03*
X107975000Y-81650000D03*
%TD*%
D73*
%TO.C,C10*%
X101312500Y-80300000D03*
X99587500Y-80300000D03*
%TD*%
D78*
%TO.C,C28*%
X86650000Y-131912500D03*
X86650000Y-133812500D03*
%TD*%
D79*
%TO.C,C26*%
X82650000Y-139412500D03*
X82650000Y-137512500D03*
%TD*%
D36*
%TO.C,C19*%
X108875000Y-111600000D03*
X110600000Y-111600000D03*
%TD*%
D32*
%TO.C,R32*%
X100175000Y-119550000D03*
X102000000Y-119550000D03*
%TD*%
D38*
%TO.C,TP3*%
X111900000Y-121800000D03*
%TD*%
D37*
%TO.C,C24*%
X129600000Y-117537500D03*
X129600000Y-119262500D03*
%TD*%
D65*
%TO.C,R35*%
X119250000Y-94975000D03*
X119250000Y-93325000D03*
%TD*%
D36*
%TO.C,C14*%
X120837500Y-88750000D03*
X122562500Y-88750000D03*
%TD*%
D58*
%TO.C,R48*%
X121325000Y-122650000D03*
X122975000Y-122650000D03*
%TD*%
D38*
%TO.C,TP2*%
X114600000Y-116800000D03*
%TD*%
D80*
%TO.C,D5*%
X127400000Y-112075000D03*
X127400000Y-110325000D03*
%TD*%
D71*
%TO.C,J8*%
X127900000Y-140840000D03*
D63*
X130400000Y-140840000D03*
X132400000Y-140840000D03*
X134900000Y-140840000D03*
D64*
X137970000Y-143550000D03*
X124830000Y-143550000D03*
%TD*%
D35*
%TO.C,R37*%
X118100000Y-118275000D03*
X118100000Y-119925000D03*
%TD*%
D58*
%TO.C,R44*%
X115625000Y-124400000D03*
X117275000Y-124400000D03*
%TD*%
D40*
%TO.C,J4*%
X93250000Y-75900000D03*
D41*
X95790000Y-75900000D03*
X98330000Y-75900000D03*
X100870000Y-75900000D03*
X103410000Y-75900000D03*
X105950000Y-75900000D03*
%TD*%
D32*
%TO.C,R50*%
X85787500Y-66890000D03*
X87612500Y-66890000D03*
%TD*%
D81*
%TO.C,RV1*%
X139500000Y-119000000D03*
X136960000Y-113920000D03*
X134420000Y-119000000D03*
%TD*%
D69*
%TO.C,C25*%
X126062500Y-127600000D03*
X128137500Y-127600000D03*
%TD*%
D32*
%TO.C,R10*%
X125982500Y-100030000D03*
X127807500Y-100030000D03*
%TD*%
D36*
%TO.C,C12*%
X106150000Y-85100000D03*
X107875000Y-85100000D03*
%TD*%
D82*
%TO.C,R36*%
X105400000Y-123012500D03*
X105400000Y-121187500D03*
%TD*%
D35*
%TO.C,R46*%
X124050000Y-117625000D03*
X124050000Y-119275000D03*
%TD*%
D34*
%TO.C,RR2*%
X88650000Y-139262500D03*
X88650000Y-141262500D03*
%TD*%
D73*
%TO.C,C18*%
X101937500Y-116350000D03*
X100212500Y-116350000D03*
%TD*%
D79*
%TO.C,C4*%
X78100000Y-84350000D03*
X78100000Y-82450000D03*
%TD*%
D74*
%TO.C,H2*%
X145000000Y-55000000D03*
%TD*%
D32*
%TO.C,R31*%
X100175000Y-121150000D03*
X102000000Y-121150000D03*
%TD*%
D73*
%TO.C,C9*%
X77912500Y-68750000D03*
X76187500Y-68750000D03*
%TD*%
D66*
%TO.C,R49*%
X87612500Y-68400000D03*
X85787500Y-68400000D03*
%TD*%
D83*
%TO.C,FID1*%
X138200000Y-55400000D03*
%TD*%
D84*
%TO.C,U2*%
X118075000Y-91245000D03*
X118075000Y-89975000D03*
X118075000Y-88705000D03*
X118075000Y-87435000D03*
X118075000Y-86165000D03*
X118075000Y-84895000D03*
X118075000Y-83625000D03*
X118075000Y-82355000D03*
X113125000Y-82355000D03*
X113125000Y-83625000D03*
X113125000Y-84895000D03*
X113125000Y-86165000D03*
X113125000Y-87435000D03*
X113125000Y-88705000D03*
X113125000Y-89975000D03*
X113125000Y-91245000D03*
%TD*%
D85*
%TO.C,C29*%
X88450000Y-132062500D03*
X90350000Y-132062500D03*
%TD*%
D86*
%TO.C,TP11*%
X113800000Y-69800000D03*
%TD*%
D66*
%TO.C,R11*%
X72092500Y-114060000D03*
X70267500Y-114060000D03*
%TD*%
%TO.C,R1*%
X112212500Y-94550000D03*
X110387500Y-94550000D03*
%TD*%
D56*
%TO.C,F2*%
X95700000Y-123762500D03*
X95700000Y-128037500D03*
%TD*%
D38*
%TO.C,TP10*%
X80000000Y-51500000D03*
%TD*%
D72*
%TO.C,R28*%
X138500000Y-96125000D03*
X138500000Y-97800000D03*
%TD*%
D74*
%TO.C,H1*%
X55000000Y-55000000D03*
%TD*%
D66*
%TO.C,R20*%
X107925000Y-83400000D03*
X106100000Y-83400000D03*
%TD*%
D85*
%TO.C,C1*%
X114000000Y-94800000D03*
X115900000Y-94800000D03*
%TD*%
D32*
%TO.C,R34*%
X100187500Y-114750000D03*
X102012500Y-114750000D03*
%TD*%
D39*
%TO.C,C5*%
X87400000Y-53407500D03*
X87400000Y-51332500D03*
%TD*%
D58*
%TO.C,R15*%
X98725000Y-99200000D03*
X100375000Y-99200000D03*
%TD*%
D40*
%TO.C,J15*%
X58800000Y-101900000D03*
D41*
X58800000Y-104440000D03*
X58800000Y-106980000D03*
X58800000Y-109520000D03*
%TD*%
D80*
%TO.C,D6*%
X125800000Y-112075000D03*
X125800000Y-110325000D03*
%TD*%
D38*
%TO.C,TP5*%
X77400000Y-54100000D03*
%TD*%
D87*
%TO.C,J6*%
X114260000Y-142400000D03*
D47*
X119340000Y-142400000D03*
%TD*%
D88*
%TO.C,D7*%
X116787500Y-110070500D03*
D89*
X121867500Y-110070500D03*
%TD*%
D52*
%TO.C,C21*%
X120350000Y-83662500D03*
X120350000Y-81937500D03*
%TD*%
D53*
%TO.C,R51*%
X114175000Y-125000000D03*
X112525000Y-125000000D03*
%TD*%
D36*
%TO.C,C16*%
X131237500Y-98400000D03*
X132962500Y-98400000D03*
%TD*%
D86*
%TO.C,TP12*%
X112400000Y-51800000D03*
%TD*%
%TO.C,TP13*%
X114400000Y-55000000D03*
%TD*%
D90*
%TO.C,J12*%
X145350420Y-97200010D03*
D91*
X145350420Y-102198730D03*
X145350420Y-107199990D03*
%TD*%
D90*
%TO.C,J9*%
X145350420Y-80600010D03*
D91*
X145350420Y-85598730D03*
X145350420Y-90599990D03*
%TD*%
M02*
