M48
; DRILL file {KiCad (6.0.9)} date Fri Apr  7 16:32:21 2023
; FORMAT={-:-/ absolute / inch / decimal}
; #@! TF.CreationDate,2023-04-07T16:32:21+03:00
; #@! TF.GenerationSoftware,Kicad,Pcbnew,(6.0.9)
; #@! TF.FileFunction,Plated,1,2,PTH
FMAT,2
INCH
; #@! TA.AperFunction,Plated,PTH,ViaDrill
T1C0.0157
; #@! TA.AperFunction,Plated,PTH,ComponentDrill
T2C0.0300
; #@! TA.AperFunction,Plated,PTH,ComponentDrill
T3C0.0315
; #@! TA.AperFunction,Plated,PTH,ComponentDrill
T4C0.0374
; #@! TA.AperFunction,Plated,PTH,ComponentDrill
T5C0.0394
; #@! TA.AperFunction,Plated,PTH,ComponentDrill
T6C0.0449
; #@! TA.AperFunction,Plated,PTH,ComponentDrill
T7C0.0472
; #@! TA.AperFunction,Plated,PTH,ComponentDrill
T8C0.0511
; #@! TA.AperFunction,Plated,PTH,ComponentDrill
T9C0.0512
; #@! TA.AperFunction,Plated,PTH,ComponentDrill
T10C0.0520
; #@! TA.AperFunction,Plated,PTH,ComponentDrill
T11C0.0600
; #@! TA.AperFunction,Plated,PTH,ComponentDrill
T12C0.0630
; #@! TA.AperFunction,Plated,PTH,ComponentDrill
T13C0.0906
; #@! TA.AperFunction,Plated,PTH,ComponentDrill
T14C0.0941
; #@! TA.AperFunction,Plated,PTH,ComponentDrill
T15C0.1398
%
G90
G05
T1
X2.0458Y-2.0978
X2.0458Y-2.1962
X2.0458Y-2.2946
X2.0458Y-2.3931
X2.0458Y-2.4915
X2.0458Y-2.5899
X2.0458Y-2.6883
X2.0458Y-2.7868
X2.0458Y-2.8852
X2.0458Y-2.9836
X2.0458Y-3.082
X2.0458Y-3.1805
X2.0458Y-3.2789
X2.0458Y-3.3773
X2.0458Y-3.4757
X2.0458Y-3.5742
X2.0458Y-3.6726
X2.0458Y-3.771
X2.0458Y-3.8694
X2.0458Y-3.9679
X2.0458Y-4.0663
X2.0458Y-4.1647
X2.0458Y-4.2631
X2.0458Y-4.3616
X2.0458Y-4.46
X2.0458Y-4.5584
X2.0458Y-4.6569
X2.0458Y-4.7553
X2.0458Y-4.8537
X2.0458Y-4.9521
X2.0458Y-5.0506
X2.0458Y-5.149
X2.0458Y-5.3458
X2.0458Y-5.4443
X2.0458Y-5.5427
X2.0458Y-5.6411
X2.0458Y-5.7395
X2.1442Y-2.2946
X2.1442Y-2.3931
X2.1442Y-2.4915
X2.1442Y-2.5899
X2.1442Y-2.6883
X2.1442Y-2.7868
X2.1442Y-2.8852
X2.1442Y-2.9836
X2.1442Y-3.082
X2.1442Y-3.1805
X2.1442Y-3.8694
X2.1442Y-4.46
X2.1442Y-4.5584
X2.1442Y-4.6569
X2.1442Y-4.7553
X2.1442Y-4.8537
X2.1442Y-5.0506
X2.1442Y-5.3458
X2.1442Y-5.4443
X2.1442Y-5.5427
X2.1442Y-5.838
X2.2426Y-2.0978
X2.2426Y-2.2946
X2.2426Y-2.3931
X2.2426Y-2.4915
X2.2426Y-2.5899
X2.2426Y-2.6883
X2.2426Y-2.7868
X2.2426Y-2.8852
X2.2426Y-2.9836
X2.2426Y-3.082
X2.2426Y-3.1805
X2.2426Y-3.2789
X2.2426Y-3.3773
X2.2426Y-3.4757
X2.2426Y-3.5742
X2.2426Y-3.6726
X2.2426Y-3.771
X2.2426Y-3.8694
X2.2426Y-3.9679
X2.2426Y-4.0663
X2.2426Y-4.1647
X2.2426Y-4.2631
X2.2426Y-4.3616
X2.2426Y-4.46
X2.2426Y-4.5584
X2.2426Y-4.6569
X2.2426Y-4.7553
X2.2426Y-4.8537
X2.2426Y-4.9521
X2.2426Y-5.0506
X2.2426Y-5.149
X2.2426Y-5.2474
X2.2426Y-5.3458
X2.2426Y-5.4443
X2.2426Y-5.5427
X2.2426Y-5.6411
X2.2426Y-5.838
X2.3411Y-2.0978
X2.3411Y-2.1962
X2.3411Y-2.2946
X2.3411Y-2.3931
X2.3411Y-2.4915
X2.3411Y-2.5899
X2.3411Y-2.6883
X2.3411Y-2.7868
X2.3411Y-2.8852
X2.3411Y-2.9836
X2.3411Y-3.082
X2.3411Y-3.1805
X2.3411Y-3.8694
X2.3411Y-4.46
X2.3411Y-4.7553
X2.3411Y-4.9521
X2.3411Y-5.0506
X2.3411Y-5.149
X2.3411Y-5.2474
X2.3411Y-5.3458
X2.3411Y-5.4443
X2.3411Y-5.5427
X2.3411Y-5.6411
X2.3411Y-5.7395
X2.3411Y-5.838
X2.4395Y-2.0978
X2.4395Y-2.1962
X2.4395Y-2.4915
X2.4395Y-2.5899
X2.4395Y-2.6883
X2.4395Y-2.7868
X2.4395Y-2.8852
X2.4395Y-2.9836
X2.4395Y-3.082
X2.4395Y-3.1805
X2.4395Y-3.2789
X2.4395Y-3.4757
X2.4395Y-3.5742
X2.4395Y-3.771
X2.4395Y-3.8694
X2.4395Y-3.9679
X2.4395Y-4.0663
X2.4395Y-4.1647
X2.4395Y-4.2631
X2.4395Y-4.3616
X2.4395Y-4.46
X2.4395Y-4.7553
X2.4395Y-4.9521
X2.4395Y-5.0506
X2.4395Y-5.149
X2.4395Y-5.2474
X2.4395Y-5.3458
X2.4395Y-5.4443
X2.4395Y-5.838
X2.5354Y-4.9409
X2.5379Y-2.0978
X2.5379Y-2.1962
X2.5379Y-2.4915
X2.5379Y-2.6883
X2.5379Y-2.7868
X2.5379Y-2.8852
X2.5379Y-2.9836
X2.5379Y-3.082
X2.5379Y-3.1805
X2.5379Y-3.3773
X2.5379Y-3.4757
X2.5379Y-3.5742
X2.5379Y-3.6726
X2.5379Y-3.8694
X2.5379Y-3.9679
X2.5379Y-4.0663
X2.5379Y-4.3616
X2.5379Y-4.46
X2.5379Y-4.7553
X2.5379Y-5.0506
X2.5379Y-5.149
X2.5379Y-5.2474
X2.5379Y-5.3458
X2.5379Y-5.838
X2.5827Y-5.4114
X2.6024Y-4.7402
X2.6181Y-4.8504
X2.6363Y-2.0978
X2.6363Y-2.1962
X2.6363Y-2.6883
X2.6363Y-2.7868
X2.6363Y-2.8852
X2.6363Y-2.9836
X2.6363Y-3.082
X2.6363Y-3.1805
X2.6363Y-3.9679
X2.6363Y-4.0663
X2.6363Y-5.149
X2.6363Y-5.2474
X2.6363Y-5.838
X2.6496Y-4.7441
X2.6575Y-4.3819
X2.6614Y-4.2205
X2.6949Y-5.435
X2.7008Y-4.6693
X2.7136Y-4.2244
X2.7348Y-2.0978
X2.7348Y-2.1962
X2.7348Y-2.6883
X2.7348Y-2.7868
X2.7348Y-2.8852
X2.7348Y-2.9836
X2.7348Y-3.082
X2.7348Y-3.1805
X2.7348Y-3.2789
X2.7348Y-3.3773
X2.7348Y-3.771
X2.7348Y-3.8694
X2.7348Y-5.838
X2.7392Y-4.5433
X2.7402Y-5.5276
X2.7563Y-4.7169
X2.7657Y-4.6713
X2.7874Y-4.752
X2.8332Y-2.0978
X2.8332Y-2.1962
X2.8332Y-2.4915
X2.8332Y-2.6883
X2.8332Y-2.7868
X2.8332Y-2.8852
X2.8332Y-2.9836
X2.8332Y-3.082
X2.8332Y-3.1805
X2.8332Y-3.2789
X2.8332Y-3.3773
X2.8332Y-3.4757
X2.8332Y-3.5742
X2.8332Y-3.6726
X2.8332Y-3.771
X2.8332Y-4.0663
X2.8332Y-4.1647
X2.8332Y-4.2631
X2.8332Y-4.3616
X2.8332Y-5.838
X2.8622Y-4.7717
X2.8671Y-4.7096
X2.9114Y-2.7028
X2.913Y-3.1481
X2.9163Y-3.065
X2.9183Y-4.7165
X2.9184Y-3.1131
X2.9193Y-5.5138
X2.9316Y-2.0978
X2.9316Y-2.1962
X2.9316Y-2.4915
X2.9316Y-2.7868
X2.9316Y-2.8852
X2.9316Y-3.8694
X2.9316Y-3.9679
X2.9316Y-4.0663
X2.9316Y-4.1647
X2.9316Y-4.2631
X2.9316Y-4.3616
X2.9316Y-5.838
X2.9449Y-4.7874
X2.9665Y-5.3839
X2.9724Y-4.8425
X2.9882Y-4.6378
X2.9921Y-5.5
X3.0Y-2.6693
X3.0063Y-5.4347
X3.0148Y-3.065
X3.0157Y-3.1102
X3.0157Y-3.1457
X3.0197Y-4.4882
X3.03Y-2.1962
X3.03Y-2.2946
X3.03Y-2.7868
X3.03Y-3.9679
X3.03Y-4.0663
X3.03Y-4.1647
X3.03Y-4.2631
X3.03Y-4.3616
X3.03Y-4.5584
X3.03Y-4.7553
X3.03Y-4.8537
X3.03Y-4.9521
X3.03Y-5.0506
X3.03Y-5.149
X3.03Y-5.2474
X3.03Y-5.3458
X3.03Y-5.838
X3.0399Y-2.0157
X3.0989Y-2.2756
X3.1285Y-2.1962
X3.1285Y-2.3931
X3.1285Y-2.5899
X3.1285Y-2.9836
X3.1285Y-3.082
X3.1285Y-3.1805
X3.1285Y-3.3773
X3.1285Y-4.0663
X3.1285Y-4.1647
X3.1285Y-4.2631
X3.1285Y-4.3616
X3.1285Y-4.46
X3.1285Y-4.5584
X3.1285Y-4.7553
X3.1285Y-4.8537
X3.1285Y-4.9521
X3.1285Y-5.0506
X3.1285Y-5.838
X3.2067Y-5.4154
X3.2269Y-2.1962
X3.2269Y-2.5899
X3.2269Y-2.8852
X3.2269Y-2.9836
X3.2269Y-3.1805
X3.2269Y-3.2789
X3.2269Y-3.3773
X3.2269Y-3.4757
X3.2269Y-3.6726
X3.2269Y-3.771
X3.2269Y-4.1647
X3.2269Y-4.2631
X3.2269Y-4.3616
X3.2269Y-4.46
X3.2269Y-4.5584
X3.2269Y-4.7553
X3.2269Y-4.8537
X3.2269Y-4.9521
X3.2269Y-5.5427
X3.2269Y-5.838
X3.2913Y-3.5984
X3.3228Y-2.2717
X3.3228Y-3.6457
X3.3253Y-2.5899
X3.3253Y-2.7868
X3.3253Y-2.8852
X3.3253Y-3.082
X3.3253Y-3.8694
X3.3253Y-3.9679
X3.3253Y-4.0663
X3.3253Y-4.2631
X3.3253Y-4.3616
X3.3253Y-4.46
X3.3253Y-4.5584
X3.3253Y-4.7553
X3.3253Y-4.8537
X3.3253Y-4.9521
X3.3253Y-5.5427
X3.3253Y-5.838
X3.367Y-5.4103
X3.3701Y-3.6457
X3.3701Y-3.7047
X3.3898Y-2.0197
X3.4154Y-5.313
X3.4237Y-2.4915
X3.4237Y-2.7868
X3.4237Y-4.0663
X3.4237Y-4.2631
X3.4237Y-4.3616
X3.4237Y-4.46
X3.4237Y-4.5584
X3.4237Y-4.7553
X3.4237Y-4.8537
X3.4237Y-4.9521
X3.4237Y-5.6411
X3.4237Y-5.7395
X3.4237Y-5.838
X3.4449Y-5.5315
X3.4525Y-5.3737
X3.4606Y-2.9764
X3.5079Y-3.4882
X3.5108Y-1.9892
X3.5118Y-2.1693
X3.5195Y-3.5551
X3.5222Y-2.8852
X3.5222Y-3.771
X3.5222Y-3.8694
X3.5222Y-3.9679
X3.5222Y-4.0663
X3.5222Y-4.3616
X3.5222Y-4.46
X3.5222Y-4.5584
X3.5222Y-4.7553
X3.5222Y-4.8537
X3.5222Y-4.9521
X3.5222Y-5.6411
X3.5222Y-5.7395
X3.5222Y-5.838
X3.5315Y-2.3346
X3.5315Y-2.4449
X3.5315Y-4.6378
X3.5414Y-3.0512
X3.5414Y-3.1496
X3.5472Y-3.25
X3.5512Y-5.3071
X3.563Y-2.7677
X3.5709Y-4.1339
X3.5709Y-4.248
X3.5709Y-3.3183
X3.5866Y-3.4116
X3.5906Y-5.2402
X3.5915Y-2.003
X3.5973Y-2.7763
X3.6063Y-4.6811
X3.6063Y-5.3543
X3.6142Y-5.1378
X3.6181Y-4.6378
X3.6206Y-3.5742
X3.6206Y-3.771
X3.6206Y-3.8694
X3.6206Y-3.9679
X3.6206Y-4.0663
X3.6206Y-4.2631
X3.6206Y-4.3616
X3.6206Y-4.46
X3.6206Y-4.5584
X3.6206Y-4.7553
X3.6206Y-4.8537
X3.6206Y-4.9521
X3.6206Y-5.6411
X3.6206Y-5.7395
X3.6206Y-5.838
X3.628Y-3.4567
X3.6339Y-2.0945
X3.6407Y-2.0384
X3.6417Y-3.1496
X3.6417Y-3.1988
X3.6437Y-3.0827
X3.6437Y-3.25
X3.6496Y-3.3228
X3.6516Y-2.6339
X3.6535Y-5.0433
X3.6772Y-2.6811
X3.689Y-5.1378
X3.7047Y-2.1693
X3.7047Y-2.2638
X3.7047Y-2.6024
X3.7067Y-2.6535
X3.7106Y-2.3701
X3.7106Y-2.4173
X3.7106Y-2.4646
X3.7126Y-4.1417
X3.7126Y-4.2638
X3.7165Y-5.2165
X3.719Y-2.0978
X3.719Y-3.082
X3.719Y-4.0663
X3.719Y-4.3616
X3.719Y-4.46
X3.719Y-4.5584
X3.719Y-4.7553
X3.719Y-4.9521
X3.719Y-5.3458
X3.719Y-5.6411
X3.719Y-5.838
X3.7283Y-2.8022
X3.7697Y-5.2126
X3.7717Y-4.1536
X3.7835Y-2.2913
X3.8091Y-2.2146
X3.8174Y-2.0978
X3.8174Y-2.4915
X3.8174Y-2.5899
X3.8174Y-3.082
X3.8174Y-3.1805
X3.8174Y-3.3773
X3.8174Y-3.5742
X3.8174Y-3.6726
X3.8174Y-3.771
X3.8174Y-3.8694
X3.8174Y-3.9679
X3.8174Y-4.0663
X3.8174Y-4.2631
X3.8174Y-4.46
X3.8174Y-4.5584
X3.8174Y-4.7553
X3.8174Y-4.9521
X3.8174Y-5.4443
X3.8174Y-5.6411
X3.8174Y-5.838
X3.8228Y-2.4409
X3.874Y-2.6063
X3.874Y-3.1614
X3.8858Y-2.6417
X3.8898Y-4.0
X3.9036Y-4.0748
X3.9094Y-4.5591
X3.9114Y-2.5925
X3.9159Y-2.0978
X3.9159Y-2.4915
X3.9159Y-3.082
X3.9159Y-3.5742
X3.9159Y-4.46
X3.9159Y-4.8537
X3.9159Y-4.9521
X3.9159Y-5.0506
X3.9159Y-5.149
X3.9159Y-5.2474
X3.9159Y-5.3458
X3.9159Y-5.838
X3.9291Y-4.2441
X3.9331Y-2.252
X3.937Y-4.3701
X3.9528Y-3.9547
X3.9547Y-4.3287
X3.9563Y-4.0744
X3.9606Y-3.5197
X3.9685Y-2.4016
X3.978Y-4.3606
X4.0118Y-4.1535
X4.0143Y-2.0978
X4.0143Y-2.2946
X4.0143Y-2.5899
X4.0143Y-3.082
X4.0143Y-3.2789
X4.0143Y-3.3773
X4.0143Y-3.4757
X4.0143Y-3.5742
X4.0143Y-3.6726
X4.0143Y-3.771
X4.0143Y-3.8694
X4.0143Y-4.8537
X4.0143Y-4.9521
X4.0143Y-5.0506
X4.0143Y-5.149
X4.0143Y-5.2474
X4.0143Y-5.3458
X4.0143Y-5.4443
X4.0143Y-5.5427
X4.0143Y-5.6411
X4.0143Y-5.7395
X4.0143Y-5.838
X4.0157Y-4.2402
X4.0236Y-2.685
X4.028Y-2.6499
X4.0354Y-3.2165
X4.0512Y-4.4764
X4.0591Y-2.6732
X4.0669Y-5.2362
X4.0709Y-4.6142
X4.0866Y-2.2992
X4.0866Y-4.0945
X4.0984Y-3.2205
X4.1063Y-4.3937
X4.1127Y-2.0978
X4.1127Y-2.4915
X4.1127Y-2.5899
X4.1127Y-3.082
X4.1127Y-3.3773
X4.1127Y-3.4757
X4.1127Y-3.5742
X4.1127Y-3.6726
X4.1127Y-3.771
X4.1127Y-3.8694
X4.1127Y-4.9521
X4.1127Y-5.0506
X4.1127Y-5.149
X4.1127Y-5.6411
X4.1127Y-5.7395
X4.1127Y-5.838
X4.1496Y-4.8819
X4.1535Y-2.3563
X4.1535Y-4.2402
X4.1594Y-2.2067
X4.1811Y-3.937
X4.185Y-4.0787
X4.185Y-4.3346
X4.189Y-4.0315
X4.2087Y-2.1693
X4.2111Y-2.0978
X4.2111Y-2.3931
X4.2111Y-2.4915
X4.2111Y-2.5899
X4.2111Y-3.082
X4.2111Y-4.9521
X4.2111Y-5.2474
X4.2111Y-5.5427
X4.2111Y-5.6411
X4.2111Y-5.838
X4.2165Y-4.2402
X4.2205Y-4.0
X4.2283Y-2.0433
X4.2362Y-4.7638
X4.252Y-4.1378
X4.252Y-4.3386
X4.252Y-4.626
X4.2559Y-4.0787
X4.2559Y-5.1496
X4.2598Y-3.9291
X4.2677Y-4.5748
X4.2756Y-4.1102
X4.2756Y-4.9567
X4.2795Y-2.0
X4.2874Y-4.2402
X4.2913Y-3.3504
X4.2938Y-3.4154
X4.2953Y-3.6654
X4.2963Y-3.0659
X4.3031Y-5.1496
X4.3071Y-3.4882
X4.3096Y-3.771
X4.3096Y-5.2474
X4.3096Y-5.4443
X4.3096Y-5.5427
X4.3096Y-5.6411
X4.3096Y-5.7395
X4.3096Y-5.838
X4.315Y-3.9291
X4.315Y-4.9055
X4.3189Y-5.0079
X4.3287Y-4.5748
X4.3386Y-2.0433
X4.3543Y-2.2362
X4.3696Y-4.0154
X4.372Y-2.4134
X4.3799Y-2.5118
X4.3976Y-2.1831
X4.4016Y-4.3937
X4.4055Y-4.2402
X4.408Y-2.7868
X4.408Y-2.9836
X4.408Y-3.6726
X4.408Y-3.8694
X4.408Y-5.0506
X4.408Y-5.149
X4.408Y-5.2474
X4.408Y-5.3458
X4.408Y-5.838
X4.4099Y-4.8858
X4.4193Y-3.065
X4.4351Y-4.6811
X4.437Y-4.1417
X4.437Y-4.3346
X4.4528Y-3.2008
X4.4606Y-5.0
X4.4685Y-4.2402
X4.4724Y-4.1496
X4.4862Y-4.6772
X4.5039Y-3.4921
X4.5064Y-2.0978
X4.5064Y-3.082
X4.5064Y-3.1805
X4.5064Y-4.3616
X4.5064Y-4.46
X4.5064Y-5.3458
X4.5064Y-5.4443
X4.5118Y-3.2441
X4.5433Y-5.0906
X4.5551Y-2.315
X4.5551Y-2.4134
X4.5551Y-2.5118
X4.5603Y-3.9501
X4.563Y-3.6811
X4.5821Y-4.0368
X4.5827Y-4.5866
X4.5945Y-2.5787
X4.6048Y-2.1962
X4.6048Y-2.6883
X4.6048Y-2.7868
X4.6048Y-3.082
X4.6048Y-3.1805
X4.6048Y-3.8694
X4.6048Y-5.4443
X4.6181Y-2.4771
X4.6181Y-4.0079
X4.6181Y-4.5472
X4.6189Y-2.4417
X4.6211Y-2.8445
X4.6222Y-2.3417
X4.6299Y-2.0728
X4.6339Y-2.2756
X4.6339Y-3.7795
X4.6397Y-2.5507
X4.6417Y-2.378
X4.6496Y-4.5236
X4.6496Y-4.7618
X4.6555Y-4.8307
X4.6689Y-3.8776
X4.6732Y-4.6024
X4.7033Y-2.9836
X4.7033Y-3.082
X4.7033Y-3.1805
X4.7033Y-3.9679
X4.7033Y-4.0663
X4.7033Y-4.3616
X4.7033Y-5.3458
X4.7195Y-2.0738
X4.7224Y-3.878
X4.732Y-4.606
X4.748Y-2.2362
X4.7525Y-2.6929
X4.7795Y-3.2244
X4.8017Y-2.0978
X4.8017Y-2.1962
X4.8017Y-2.7868
X4.8017Y-2.8852
X4.8017Y-3.3773
X4.8017Y-3.6726
X4.8017Y-3.771
X4.8017Y-3.8694
X4.8017Y-3.9679
X4.8017Y-4.0663
X4.8017Y-4.1647
X4.8017Y-4.5584
X4.8017Y-4.6569
X4.8017Y-4.7553
X4.8017Y-5.2474
X4.8017Y-5.6411
X4.8017Y-5.7395
X4.8017Y-5.838
X4.813Y-2.3189
X4.8268Y-2.5098
X4.8268Y-3.5354
X4.8366Y-2.4114
X4.8622Y-4.2677
X4.8661Y-2.6289
X4.878Y-4.9803
X4.8819Y-4.5866
X4.8819Y-4.8366
X4.8937Y-4.4331
X4.8976Y-4.2913
X4.8976Y-4.3858
X4.9001Y-2.0978
X4.9001Y-2.6883
X4.9001Y-2.7868
X4.9001Y-2.8852
X4.9001Y-2.9836
X4.9001Y-3.082
X4.9001Y-3.1805
X4.9001Y-3.3773
X4.9001Y-3.5742
X4.9001Y-3.771
X4.9001Y-3.8694
X4.9001Y-3.9679
X4.9001Y-4.0663
X4.9001Y-5.2474
X4.9001Y-5.7395
X4.9001Y-5.838
X4.9016Y-4.2441
X4.9213Y-4.8031
X4.9488Y-2.6299
X4.9488Y-4.6772
X4.9547Y-2.3248
X4.9567Y-4.2638
X4.9931Y-2.1545
X4.9974Y-4.7349
X4.9985Y-2.0978
X4.9985Y-2.4915
X4.9985Y-2.6883
X4.9985Y-2.7868
X4.9985Y-3.3773
X4.9985Y-3.4757
X4.9985Y-3.6726
X4.9985Y-5.149
X4.9985Y-5.2474
X4.9985Y-5.3458
X4.9985Y-5.7395
X4.9985Y-5.838
X5.0075Y-4.0429
X5.0315Y-3.748
X5.0315Y-3.8268
X5.0448Y-5.0822
X5.0551Y-3.9764
X5.0575Y-4.0929
X5.063Y-3.7736
X5.0787Y-2.1486
X5.0866Y-4.315
X5.0945Y-4.0748
X5.097Y-2.0978
X5.097Y-2.3931
X5.097Y-2.4915
X5.097Y-2.7868
X5.097Y-2.8852
X5.097Y-2.9836
X5.097Y-3.2789
X5.097Y-3.4757
X5.097Y-3.5742
X5.097Y-4.1647
X5.097Y-4.2631
X5.097Y-4.8537
X5.097Y-4.9521
X5.097Y-5.0506
X5.097Y-5.3458
X5.097Y-5.7395
X5.097Y-5.838
X5.0984Y-3.7559
X5.0984Y-3.8268
X5.0984Y-3.9882
X5.1024Y-3.6654
X5.1329Y-2.5866
X5.1329Y-2.6732
X5.1339Y-5.2441
X5.1417Y-3.7736
X5.1417Y-4.6929
X5.1545Y-2.1132
X5.1772Y-4.0
X5.1811Y-3.7598
X5.1954Y-2.2946
X5.1954Y-2.3931
X5.1954Y-2.4915
X5.1954Y-2.5899
X5.1954Y-2.6883
X5.1954Y-2.7868
X5.1954Y-2.9836
X5.1954Y-3.082
X5.1954Y-3.1805
X5.1954Y-3.2789
X5.1954Y-3.3773
X5.1954Y-3.4757
X5.1954Y-3.5742
X5.1954Y-3.6726
X5.1954Y-4.2631
X5.1954Y-4.3616
X5.1954Y-4.46
X5.1954Y-4.5584
X5.1954Y-4.6569
X5.1954Y-4.8537
X5.1954Y-4.9521
X5.1954Y-5.0506
X5.1954Y-5.7395
X5.1954Y-5.838
X5.2087Y-4.1693
X5.2205Y-4.0
X5.2402Y-4.1732
X5.2717Y-3.9449
X5.2795Y-3.874
X5.2938Y-2.0978
X5.2938Y-2.1962
X5.2938Y-2.2946
X5.2938Y-2.3931
X5.2938Y-2.6883
X5.2938Y-2.9836
X5.2938Y-3.082
X5.2938Y-3.1805
X5.2938Y-3.2789
X5.2938Y-3.3773
X5.2938Y-3.4757
X5.2938Y-3.5742
X5.2938Y-3.6726
X5.2938Y-4.8537
X5.2938Y-4.9521
X5.2938Y-5.0506
X5.2938Y-5.149
X5.2938Y-5.4443
X5.2938Y-5.7395
X5.2938Y-5.838
X5.2999Y-4.0952
X5.325Y-3.8326
X5.3389Y-4.02
X5.372Y-3.9055
X5.3922Y-2.0978
X5.3922Y-2.1962
X5.3922Y-2.2946
X5.3922Y-2.6883
X5.3922Y-2.7868
X5.3922Y-2.9836
X5.3922Y-3.082
X5.3922Y-3.1805
X5.3922Y-3.2789
X5.3922Y-3.3773
X5.3922Y-3.4757
X5.3922Y-3.5742
X5.3922Y-3.6726
X5.3922Y-4.0663
X5.3922Y-4.1647
X5.3922Y-4.2631
X5.3922Y-4.3616
X5.3922Y-4.5584
X5.3922Y-4.6569
X5.3922Y-4.7553
X5.3922Y-5.4443
X5.3922Y-5.5427
X5.3922Y-5.7395
X5.3922Y-5.838
X5.4907Y-2.0978
X5.4907Y-2.1962
X5.4907Y-2.2946
X5.4907Y-2.4915
X5.4907Y-2.5899
X5.4907Y-2.6883
X5.4907Y-2.7868
X5.4907Y-3.1805
X5.4907Y-3.2789
X5.4907Y-4.0663
X5.4907Y-4.1647
X5.4907Y-4.2631
X5.4907Y-4.3616
X5.4907Y-4.46
X5.4907Y-4.5584
X5.4907Y-4.7553
X5.4907Y-4.8537
X5.4907Y-5.2474
X5.4907Y-5.3458
X5.4907Y-5.4443
X5.4907Y-5.5427
X5.4907Y-5.7395
X5.4907Y-5.838
X5.5891Y-2.0978
X5.5891Y-2.1962
X5.5891Y-2.2946
X5.5891Y-2.3931
X5.5891Y-2.6883
X5.5891Y-2.7868
X5.5891Y-2.8852
X5.5891Y-3.1805
X5.5891Y-3.4757
X5.5891Y-3.5742
X5.5891Y-3.6726
X5.5891Y-3.771
X5.5891Y-3.8694
X5.5891Y-4.0663
X5.5891Y-4.1647
X5.5891Y-4.2631
X5.5891Y-4.3616
X5.5891Y-4.46
X5.5891Y-4.5584
X5.5891Y-4.7553
X5.5891Y-4.8537
X5.5891Y-5.3458
X5.5891Y-5.4443
X5.5891Y-5.5427
X5.5891Y-5.6411
X5.5891Y-5.7395
X5.5891Y-5.838
X5.6875Y-2.2946
X5.6875Y-2.3931
X5.6875Y-2.4915
X5.6875Y-2.5899
X5.6875Y-2.6883
X5.6875Y-2.7868
X5.6875Y-2.8852
X5.6875Y-2.9836
X5.6875Y-3.4757
X5.6875Y-3.6726
X5.6875Y-4.3616
X5.6875Y-5.0506
X5.6875Y-5.149
X5.6875Y-5.2474
X5.6875Y-5.5427
X5.6875Y-5.838
X5.7859Y-2.0978
X5.7859Y-2.2946
X5.7859Y-2.3931
X5.7859Y-2.4915
X5.7859Y-2.5899
X5.7859Y-2.6883
X5.7859Y-2.7868
X5.7859Y-2.8852
X5.7859Y-2.9836
X5.7859Y-3.082
X5.7859Y-3.2789
X5.7859Y-3.4757
X5.7859Y-3.6726
X5.7859Y-3.9679
X5.7859Y-4.1647
X5.7859Y-4.3616
X5.7859Y-4.46
X5.7859Y-4.5584
X5.7859Y-4.8537
X5.7859Y-5.4443
X5.7859Y-5.5427
X5.7859Y-5.6411
X5.7859Y-5.838
X5.811Y-4.7087
T2
X3.1726Y-3.2354
X3.1726Y-3.3354
X3.1726Y-3.4354
X3.1726Y-3.5354
X3.1726Y-3.6354
X3.1726Y-3.7354
X3.1726Y-3.8354
T3
X3.7953Y-5.5296
X3.9528Y-5.5296
X4.1102Y-5.5296
X5.2921Y-4.685
X5.3921Y-4.485
X5.4921Y-4.685
T4
X2.5512Y-2.3858
X2.6496Y-2.3858
X2.7283Y-2.3858
X2.8268Y-2.3858
X5.0354Y-5.5449
X5.1339Y-5.5449
X5.2126Y-5.5449
X5.311Y-5.5449
X5.5843Y-4.9961
X5.5843Y-5.0945
X5.5843Y-5.1732
X5.5843Y-5.2717
T5
X2.1693Y-4.0118
X2.1693Y-4.1118
X2.1693Y-4.2118
X2.1693Y-4.3118
X2.315Y-4.0118
X2.315Y-4.1118
X2.315Y-4.2118
X2.315Y-4.3118
X2.4386Y-5.6732
X2.4386Y-5.7732
X2.5386Y-5.6732
X2.5386Y-5.7732
X2.6386Y-5.6732
X2.6386Y-5.7732
X2.7386Y-5.6732
X2.7386Y-5.7732
X2.8386Y-5.6732
X2.8386Y-5.7732
X2.9386Y-5.6732
X2.9386Y-5.7732
X3.0386Y-5.6732
X3.0386Y-5.7732
X3.1386Y-5.6732
X3.1386Y-5.7732
X3.2386Y-5.6732
X3.2386Y-5.7732
X3.3386Y-5.6732
X3.3386Y-5.7732
X3.448Y-3.2252
X3.448Y-3.3252
X3.448Y-3.4252
X3.448Y-3.5252
X3.448Y-3.6252
X3.448Y-3.7252
X3.448Y-3.8252
X3.448Y-3.9252
X3.6713Y-2.9882
X3.748Y-3.2252
X3.748Y-3.3252
X3.748Y-3.4252
X3.748Y-3.5252
X3.748Y-3.6252
X3.748Y-3.7252
X3.748Y-3.8252
X3.748Y-3.9252
X3.7713Y-2.9882
X3.8713Y-2.9882
X3.9713Y-2.9882
X4.0713Y-2.9882
X4.1713Y-2.9882
X4.4252Y-2.0394
X4.4803Y-2.748
X4.4911Y-5.7874
X4.5039Y-2.1654
X4.5911Y-5.7874
X4.6911Y-5.7874
X5.6693Y-4.4459
X5.6693Y-4.5459
T6
X3.7165Y-5.4607
X3.7165Y-5.6969
X4.189Y-5.4607
X4.189Y-5.6969
T7
X4.5979Y-4.3335
X4.7979Y-4.3335
T8
X5.7225Y-3.1732
X5.7225Y-3.37
X5.7225Y-3.5669
X5.7225Y-3.8268
X5.7225Y-4.0236
X5.7225Y-4.2205
T9
X2.1673Y-3.5354
X2.3642Y-3.3386
X2.3642Y-3.437
X2.3642Y-3.6339
X2.3642Y-3.7323
X4.4984Y-5.6063
X4.6984Y-5.6063
X5.378Y-4.9157
X5.378Y-5.1157
T10
X2.1197Y-4.9161
X4.9622Y-4.9161
T11
X2.6876Y-3.4554
X2.6876Y-3.6154
T12
X2.1673Y-3.3386
X2.1673Y-3.7323
X2.3642Y-3.5354
T13
X2.4303Y-2.2791
X2.9476Y-2.2791
X4.9146Y-5.6516
X5.4319Y-5.6516
X5.6909Y-4.8752
X5.6909Y-5.3925
T14
X2.1197Y-5.226
T15
X2.4488Y-4.6063
X4.622Y-5.226
T2
G00X4.9596Y-2.934
M15
G01X4.9596Y-3.0418
M16
G05
G00X5.0496Y-3.054
M15
G01X5.0496Y-3.1618
M16
G05
G00X5.3033Y-2.8879
M15
G01X5.1759Y-2.8879
M16
G05
T3
G00X5.3484Y-2.6181
M15
G01X5.3484Y-2.5157
M16
G05
G00X5.5098Y-2.378
M15
G01X5.4232Y-2.378
M16
G05
G00X5.5768Y-2.6102
M15
G01X5.5768Y-2.5236
M16
G05
T0
M30
